<svg xmlns="http://www.w3.org/2000/svg" viewBox="0 0 500 500"><g id="freepik--background-simple--inject-263"><path d="M83.65,230.48c-1.06-23.74,6.52-46.55,26.89-63.73,17.57-14.82,41.1-20.65,63.27-24.37,24.64-4.14,47.24-9.66,69.38-22,17.45-9.73,32.68-23.11,51.6-30.12,23-8.52,48.79-1.79,67.35,13.39,20.23,16.53,32,44.05,29.3,70.1-3,28.41-19.7,53.15-24.14,81.22-2.95,18.73.11,37.82.47,56.77S365.2,351,352.58,365.17c-15.14,17-40.18,20.73-62.91,20-75.8-2.52-167.4-40.46-197.27-115.85A121.11,121.11,0,0,1,83.65,230.48Z" style="fill:#92E3A9"></path><path d="M83.65,230.48c-1.06-23.74,6.52-46.55,26.89-63.73,17.57-14.82,41.1-20.65,63.27-24.37,24.64-4.14,47.24-9.66,69.38-22,17.45-9.73,32.68-23.11,51.6-30.12,23-8.52,48.79-1.79,67.35,13.39,20.23,16.53,32,44.05,29.3,70.1-3,28.41-19.7,53.15-24.14,81.22-2.95,18.73.11,37.82.47,56.77S365.2,351,352.58,365.17c-15.14,17-40.18,20.73-62.91,20-75.8-2.52-167.4-40.46-197.27-115.85A121.11,121.11,0,0,1,83.65,230.48Z" style="fill:#fff;opacity:0.9"></path></g><g id="freepik--Shadow--inject-263"><ellipse id="freepik--path--inject-263" cx="250" cy="416.24" rx="193.89" ry="11.32" style="fill:#f5f5f5"></ellipse></g><g id="freepik--stone-1--inject-263"><path d="M145.57,359.3s7.29-12.14,6.48-14.65-4.57,6.4-4.57,6.4,2.07-20.82-1.22-22.21-2.36,17.84-2.36,17.84-5.23-28.77-10.2-28.2S139.77,347,139.77,347s-6.94-13-10.21-11.35,7.58,14.74,7.58,14.74-5.57-3.74-6.36-1.7S139,358.09,145.57,359.3Z" style="fill:#92E3A9"></path><path d="M145.57,359.3s7.29-12.14,6.48-14.65-4.57,6.4-4.57,6.4,2.07-20.82-1.22-22.21-2.36,17.84-2.36,17.84-5.23-28.77-10.2-28.2S139.77,347,139.77,347s-6.94-13-10.21-11.35,7.58,14.74,7.58,14.74-5.57-3.74-6.36-1.7S139,358.09,145.57,359.3Z" style="fill:#fff;opacity:0.2;isolation:isolate"></path><path d="M148.34,358.24s11.45,2.2,13.16.87-6.23-1.73-6.23-1.73,16.68-4.27,16.82-7.21-14.46,3.21-14.46,3.21,20.77-12.17,18.93-15.86-20.36,12.77-20.36,12.77,8.08-9,5.89-11.11-9.26,10-9.26,10,1.32-5.37-.48-5.4S147.43,352.82,148.34,358.24Z" style="fill:#92E3A9"></path><path d="M148.34,358.24s11.45,2.2,13.16.87-6.23-1.73-6.23-1.73,16.68-4.27,16.82-7.21-14.46,3.21-14.46,3.21,20.77-12.17,18.93-15.86-20.36,12.77-20.36,12.77,8.08-9,5.89-11.11-9.26,10-9.26,10,1.32-5.37-.48-5.4S147.43,352.82,148.34,358.24Z" style="fill:#fff;opacity:0.2;isolation:isolate"></path><path d="M149.7,357.13S164,350.78,164.9,348s-8.21,2.88-8.21,2.88,15.15-17.52,13.06-20.88-13.52,14.65-13.52,14.65,13.62-29.38,8.76-32-12.71,29.72-12.71,29.72,2-16.19-2-16.79-2.54,18.18-2.54,18.18-2.66-6.94-4.67-5.6S144.53,351.84,149.7,357.13Z" style="fill:#92E3A9"></path><path d="M149.7,357.13S164,350.78,164.9,348s-8.21,2.88-8.21,2.88,15.15-17.52,13.06-20.88-13.52,14.65-13.52,14.65,13.62-29.38,8.76-32-12.71,29.72-12.71,29.72,2-16.19-2-16.79-2.54,18.18-2.54,18.18-2.66-6.94-4.67-5.6S144.53,351.84,149.7,357.13Z" style="fill:#fff;opacity:0.4;isolation:isolate"></path><path d="M168.27,379.43S153,355.17,146.63,354.12s-21.14-39.69-26.74-43.34-18.26-12.33-18.26-12.33S89,245.58,86.86,244.71s-15.3,12.49-15.3,12.49l-6.45,10.2-8.32,6.8v53.5S52,349.19,52,352.16s4.22,49.3,4.22,49.3l-4.22,7H178.82Z" style="fill:#263238"></path><path d="M178.82,408.48H52l4.22-7S52,355.13,52,352.16s4.75-24.46,4.75-24.46V274.2l8.32-6.8,5.37-8.49,1.08-1.71s13.19-13.36,15.3-12.49,14.77,53.74,14.77,53.74,12.66,8.68,18.26,12.33,20.42,42.29,26.74,43.34,21.64,25.31,21.64,25.31Z" style="fill:#fff;opacity:0.5;isolation:isolate"></path><path d="M130.11,399.7l-3,8.78H52l4.22-7S52,355.13,52,352.16s4.75-24.46,4.75-24.46V274.2l8.32-6.8,5.37-8.49-1.56,50.8s13.24-7.52,14.14-7.42,18.75,10.36,18.75,10.36Z" style="opacity:0.2;isolation:isolate"></path></g><g id="freepik--Backpack--inject-263"><path d="M72.39,330.93s-6.06,9.39-7.38,16.93-5.9,26.52-2,29.95S80,392.05,80,392.05l2.11-3.16S70.28,382.82,64.48,376a39.9,39.9,0,0,1,.79-11.34s3.43-18,9.23-22.18S72.39,330.93,72.39,330.93Z" style="fill:#263238"></path><path d="M105.36,309.71,73.18,314s-4.93,2.32-5.89,6.58,8,45.4,8,45.4,2.11,33.1,5.28,39,19.1,3.57,19.1,3.57L117,371.37Z" style="fill:#263238"></path><path d="M105.36,309.71,73.18,314s-4.93,2.32-5.89,6.58,8,45.4,8,45.4,2.11,33.1,5.28,39,19.1,3.57,19.1,3.57L117,371.37Z" style="fill:#fff;opacity:0.2;isolation:isolate"></path><path d="M115.12,303.29c-8.31-2.49-28.09.35-32.44,1.11a6.94,6.94,0,0,0-2.49,1c-3.26,2.08-5.82,6.4-5.82,6.4s-4.22,2.55-3.71,3.79,13.84,76.74,18,93.08a22.08,22.08,0,0,0,5.36,2,8.05,8.05,0,0,0,1,.18c4.82.57,28,2.95,35.63-2.41,1.27-.9,2-3.79,2.31-8.08C134.71,375.81,122.19,305.4,115.12,303.29Z" style="fill:#92E3A9"></path><path d="M98,399.18c-2.63-1.32-7.38-34.29-9.49-43.78s-10.42-48-8.29-50c-3.26,2.08-5.82,6.4-5.82,6.4s-4.22,2.55-3.71,3.79,13.84,76.74,18,93.08a24.71,24.71,0,0,0,4.59,1.83l.85.2a8.34,8.34,0,0,0,.87.16c4.74.56,28,3,35.66-2.41,1.27-.9,2-3.79,2.31-8.08C125.1,402.47,100.27,400.32,98,399.18Z" style="opacity:0.2;isolation:isolate"></path><path d="M118.06,350.43s-4.61-9.78-6.58-10.59-2.51,9.93-2.51,9.93l3.14-2.36Z" style="fill:#fff;opacity:0.5"></path></g><g id="freepik--stone-2--inject-263"><path d="M333.49,390s-6.59-.25-7.25-13.56,11-16.87,19.91-15.24c0,0-1.3-9.47,4.49-9.13s5.4,6.68,5.4,6.68,2-13.44,9.89-13.44,0,15.89,0,15.89,10.95-3.87,15,0-5,8.43-5,8.43,14.2,3.41,8.26,14.26c0,0,9.89,1.14,12.66,6,0,0-.79-9.8,2.77-9.15s2.77,9.26,2.77,9.26,5.93-9.45,11.08-6.11S411,395.27,411,395.27s9.89-3.55,11.48,1.15-5.54,6.44-5.54,6.44,10.28-1.75,10.28,6.95c0,0,19.78-1.39,24.53,6.43H333.89Z" style="fill:#92E3A9"></path><path d="M333.49,390s-6.59-.25-7.25-13.56,11-16.87,19.91-15.24c0,0-1.3-9.47,4.49-9.13s5.4,6.68,5.4,6.68,2-13.44,9.89-13.44,0,15.89,0,15.89,10.95-3.87,15,0-5,8.43-5,8.43,14.2,3.41,8.26,14.26c0,0,9.89,1.14,12.66,6,0,0-.79-9.8,2.77-9.15s2.77,9.26,2.77,9.26,5.93-9.45,11.08-6.11S411,395.27,411,395.27s9.89-3.55,11.48,1.15-5.54,6.44-5.54,6.44,10.28-1.75,10.28,6.95c0,0,19.78-1.39,24.53,6.43H333.89Z" style="fill:#fff;opacity:0.4;isolation:isolate"></path><path d="M154,390s4.87-.25,5.35-13.56-8.09-16.87-14.68-15.24c0,0,1-9.47-3.32-9.13s-4,6.68-4,6.68-1.46-13.44-7.3-13.44,0,15.89,0,15.89-8.07-3.87-11,0,3.71,8.43,3.71,8.43-10.47,3.41-6.09,14.26c0,0-7.3,1.14-9.34,6,0,0,.58-9.8-2-9.15s-2,9.26-2,9.26-4.38-9.45-8.18-6.11,1.76,11.35,1.76,11.35-7.3-3.55-8.47,1.15,4.09,6.44,4.09,6.44-7.59-1.75-7.59,6.95c0,0-14.59-1.39-18.09,6.43h87Z" style="fill:#92E3A9"></path><path d="M154,390s4.87-.25,5.35-13.56-8.09-16.87-14.68-15.24c0,0,1-9.47-3.32-9.13s-4,6.68-4,6.68-1.46-13.44-7.3-13.44,0,15.89,0,15.89-8.07-3.87-11,0,3.71,8.43,3.71,8.43-10.47,3.41-6.09,14.26c0,0-7.3,1.14-9.34,6,0,0,.58-9.8-2-9.15s-2,9.26-2,9.26-4.38-9.45-8.18-6.11,1.76,11.35,1.76,11.35-7.3-3.55-8.47,1.15,4.09,6.44,4.09,6.44-7.59-1.75-7.59,6.95c0,0-14.59-1.39-18.09,6.43h87Z" style="fill:#fff;opacity:0.4;isolation:isolate"></path><path d="M305,384.89s10-37.44,30.86-62.83c3.16-3.85,4.35,1.08,0,7.12s-17,46.31-17,46.31,10.68-20.8,26.5-35.88,19.78-13.51,20.57-12.12-26.5,27.19-36.39,54.25c0,0,24.92-20.87,40.75-24.4s-13.06,5.94-32.64,31.86c0,0,17.63-9.63,37.2-4.31s-12.66-1.85-34.92,13.6c0,0,19.28-2.81,26.8,5.33s-8-2.54-23.77,5.77c0,0,15.46,1.82,21.79,6.65H312.53Z" style="fill:#92E3A9"></path><path d="M305,384.89s10-37.44,30.86-62.83c3.16-3.85,4.35,1.08,0,7.12s-17,46.31-17,46.31,10.68-20.8,26.5-35.88,19.78-13.51,20.57-12.12-26.5,27.19-36.39,54.25c0,0,24.92-20.87,40.75-24.4s-13.06,5.94-32.64,31.86c0,0,17.63-9.63,37.2-4.31s-12.66-1.85-34.92,13.6c0,0,19.28-2.81,26.8,5.33s-8-2.54-23.77,5.77c0,0,15.46,1.82,21.79,6.65H312.53Z" style="fill:#fff;opacity:0.6000000000000001;isolation:isolate"></path><polygon points="138.99 416.24 326.24 416.24 310.42 383.83 312.53 362.2 309.36 352.16 306.2 324.96 310.42 311.83 303.5 303.03 245.01 298.44 178.77 317.9 129.49 373.68 132.66 394.81 114.2 416.24 138.99 416.24" style="fill:#263238"></polygon><path d="M114.2,416.24l18.46-21.43-3.17-21.12,49.28-55.78L245,298.45l36.69,2.87h0L303.5,303l6.92,8.8L306.2,325l3.16,27.2,3.17,10-2.11,21.63,15.82,32.41Z" style="fill:#fff;opacity:0.4;isolation:isolate"></path><path d="M299,310.55l-7.86,7.36-5.51,11.38,10.92,11.58-10.92,2.05-24.87-7.39-8.55,2.88s-17.22,1.16-24.79,2.29S209.27,354.6,205.64,353s0-12.32,0-12.32-24.45.06-25.17-4.34-1.7-18.45-1.7-18.45L245,298.45l36.69,2.87h0C304.27,306.16,299,310.55,299,310.55Z" style="opacity:0.2;isolation:isolate"></path><path d="M250.42,374s-7.9,11.87-11.27,12.26-26,6-26,6-3.78,12.34-8.39,12.66-37.45,4.68-39,4.68-16.22-16.83-19.78-18.7-13.32,3.92-13.32,3.92l-3.17-21.12s39,11.77,42.2,12.17,11.91,2.65,13.87,5.28,24.86-.25,24.86-.25,6.38-21.25,10.53-20.46S250.42,374,250.42,374Z" style="opacity:0.2;isolation:isolate"></path><path d="M312.53,362.2l-2.11,21.63-10.89-4.3-13.9,11.61,8.75,18.45s-11.92-5.93-14.43-6.72-27.74,0-27.74,0,11.66-5.94,17.2-7.51,8.3-19,10.54-21.77S312.53,362.2,312.53,362.2Z" style="opacity:0.2;isolation:isolate"></path><path d="M152.45,414s20.17-13.07,16.34-15.28-17.27,10.85-17.27,10.85,14.86-21.75,11.18-26.1-13.56,17.71-13.56,17.71,6.73-25.24,2-28-6.47,25.3-6.47,25.3-1.85-30.4-10.55-30,4,30,4,30-12.27-17.59-16.62-12.6,13.85,19,13.85,19-13.61-6.4-14.52-1.65,15,9.79,15,9.79-5.12,1.47-6.3,3.19h27.23S157.15,414.93,152.45,414Z" style="fill:#92E3A9"></path><path d="M152.45,414s20.17-13.07,16.34-15.28-17.27,10.85-17.27,10.85,14.86-21.75,11.18-26.1-13.56,17.71-13.56,17.71,6.73-25.24,2-28-6.47,25.3-6.47,25.3-1.85-30.4-10.55-30,4,30,4,30-12.27-17.59-16.62-12.6,13.85,19,13.85,19-13.61-6.4-14.52-1.65,15,9.79,15,9.79-5.12,1.47-6.3,3.19h27.23S157.15,414.93,152.45,414Z" style="fill:#fff;opacity:0.6000000000000001;isolation:isolate"></path></g><g id="freepik--Bottle--inject-263"><path d="M202.78,384.24v-3.52h-6.16v3.52a3.37,3.37,0,0,1-1.1,2.49h0a3.37,3.37,0,0,0-1.1,2.49v28.24a1.78,1.78,0,0,0,1.78,1.78h7a1.78,1.78,0,0,0,1.78-1.78V389.22a3.37,3.37,0,0,0-1.1-2.49h0A3.34,3.34,0,0,1,202.78,384.24Z" style="fill:#92E3A9"></path><path d="M205,398.08v-8.86a3.37,3.37,0,0,0-1.1-2.49,3.34,3.34,0,0,1-1.11-2.49v-3.52h-6.16v3.52a3.37,3.37,0,0,1-1.1,2.49,3.37,3.37,0,0,0-1.1,2.49v8.86Z" style="fill:#fff;opacity:0.6000000000000001;isolation:isolate"></path><path d="M194.42,409.16v8.3a1.78,1.78,0,0,0,1.78,1.78h7a1.78,1.78,0,0,0,1.78-1.78v-8.3Z" style="fill:#fff;opacity:0.6000000000000001;isolation:isolate"></path><rect x="196.07" y="379.75" width="7.27" height="2.77" rx="0.53" style="fill:#92E3A9"></rect></g><g id="freepik--Character--inject-263"><path d="M212.18,221.1S201.48,233.53,194,232c0,0-6.43,5-11.31,2.64,0,0-8.8,1.05-9.87-2a3.91,3.91,0,0,1-5-2.17l3.69-2.28,1.34,2.28s6-.33,9.87-.07c0,0,1.4-2.67,6.72-4.32,0,0-1.09-4.51,1.83-7.35S212.18,221.1,212.18,221.1Z" style="fill:#263238"></path><path d="M251.21,294.68c-4.76-4.07-17-.61-18.75-.07l-1.24-7.09L231,286l-32,2.47c-.26.61-.52,1.22-.77,1.84-.56,1.38-1.06,2.79-1.55,4.2-13.65,0-21.28,8.46-18.16,17.74,3.49,10.39,13.11,21.21,25.27,21.21a18,18,0,0,0,7.1-1.38,23.94,23.94,0,0,1,15.31-.66,24.48,24.48,0,0,0,10.21.06C266.23,326.32,257.73,300.25,251.21,294.68Z" style="fill:#92E3A9"></path><path d="M236.36,331.46a24.48,24.48,0,0,1-10.21-.06,23.94,23.94,0,0,0-15.31.66,18,18,0,0,1-7.1,1.38c-12.16,0-21.78-10.82-25.27-21.21a12.21,12.21,0,0,1-.52-6.05c1.14-6.62,8.1-11.72,18.68-11.69.49-1.41,1-2.82,1.55-4.2.25-.62.51-1.23.77-1.84L231,286l.27,1.54,1.24,7.09c1.8-.54,14-4,18.75.07a15,15,0,0,1,3.11,4.07C259.47,308,261.46,327.14,236.36,331.46Z" style="fill:#fff;opacity:0.5"></path><path d="M218.33,290.07a1.62,1.62,0,1,0,1.62-1.62A1.62,1.62,0,0,0,218.33,290.07Z" style="fill:#fff;opacity:0.6000000000000001;isolation:isolate"></path><polygon points="198.95 288.45 197.61 291.78 231.67 290.07 230.95 285.98 198.95 288.45" style="opacity:0.5;isolation:isolate"></polygon><path d="M216.94,287.21l.4,3.74a.76.76,0,0,0,.81.68l5-.4a.76.76,0,0,0,.7-.83l-.35-3.68a.76.76,0,0,0-.81-.69l-5,.34A.75.75,0,0,0,216.94,287.21Z" style="fill:#e0e0e0"></path><polygon points="208.58 287.66 208.19 292.06 206.95 292.06 207.15 287.66 208.58 287.66" style="fill:#92E3A9"></polygon><polygon points="226.53 286.32 227.03 290.93 228.16 290.93 227.77 286.13 226.53 286.32" style="fill:#92E3A9"></polygon><polygon points="208.58 287.66 208.19 292.06 206.95 292.06 207.15 287.66 208.58 287.66" style="fill:#fff;opacity:0.5"></polygon><polygon points="226.53 286.32 227.03 290.93 228.16 290.93 227.77 286.13 226.53 286.32" style="fill:#fff;opacity:0.5"></polygon><path d="M236.36,331.46a24.48,24.48,0,0,1-10.21-.06,23.94,23.94,0,0,0-15.31.66,18,18,0,0,1-7.1,1.38c-12.16,0-21.78-10.82-25.27-21.21a12.21,12.21,0,0,1-.52-6.05l38.37,5.8C214.48,300.62,202.74,297,202.74,297c6.72-.19,18.83,8.31,18.83,8.31a20.67,20.67,0,0,1,5.78-4,13.9,13.9,0,0,0-1.93,3.47l2.74.56c3.47-8.11,8-11.67,18.61-12.35l7.55,5.75C259.47,308,261.46,327.14,236.36,331.46Z" style="opacity:0.1;isolation:isolate"></path><path d="M295.44,294.68a3.73,3.73,0,0,1-2.16.28c-1,0-2.29-.2-3.74-.28-1.6-.09-12-8.87-12-8.87l-1.68-.57-.33-.12h0c-5.65-2-21.49-7.77-25.46-11.88a97.38,97.38,0,0,1-11.43-14.17c-3.23-4.81-5.18-8.39-8.1-11l-.13-6.75-.16-8.68c6.62,0,11.92,16.81,27.27,33.54,3.65,4,24.58,16.06,24.58,16.06s6.72-.31,8.6,2a22.7,22.7,0,0,1,2.14,3.42C294.47,290.62,296,294.29,295.44,294.68Z" style="fill:#e4897b"></path><path d="M238.66,259.07c-3.23-4.81-5.18-8.39-8.1-11l-.13-6.75C232.82,243.19,238.49,248.76,238.66,259.07Z" style="opacity:0.2;isolation:isolate"></path><path d="M293.28,295c-1,0-2.29-.2-3.74-.28-1.6-.09-12-8.87-12-8.87l-1.68-.57a20.16,20.16,0,0,1,10.12.2C290.52,287,294,289.78,293.28,295Z" style="opacity:0.2;isolation:isolate"></path><path d="M231,286l-32,2.47a221.19,221.19,0,0,0-1.75-22.64,63.69,63.69,0,0,0-1.23-6.43c-.56-2.15-1.2-4.49-2-7-.38-1.27-.78-2.6-1.22-4-.56-1.78-1.17-3.66-1.84-5.67s-1.28-3.86-2-5.95a92.4,92.4,0,0,1,9.68-2.53c1.23-.26,2.46-.49,3.7-.7A103.35,103.35,0,0,1,216.79,232c1.59,0,3.24,0,4.81.09,4.65.18,8.67.57,8.67.57s1,.25,1.67,6.89C232.53,245.76,232.25,263.27,231,286Z" style="fill:#92E3A9"></path><path d="M214.13,239.09c-7.95-1-10.34-4.42-10.34-4.42,3.25-3.06,2.66-7.58,1.83-10.4a16.16,16.16,0,0,0-1-2.6l9.57,1.79a27.54,27.54,0,0,0-.37,4,12.07,12.07,0,0,0,.27,3c.65,2.86,2.28,2.9,2.28,2.9C218.07,236.49,214.13,239.09,214.13,239.09Z" style="fill:#e4897b"></path><path d="M213.84,227.49a12.07,12.07,0,0,0,.27,3c-3.8-.5-6.68-3.54-8.49-6.18a16.16,16.16,0,0,0-1-2.6l9.57,1.79A27.54,27.54,0,0,0,213.84,227.49Z" style="opacity:0.2;isolation:isolate"></path><path d="M200.4,192.47c-13.14,3.44-14.83,39.5,3.43,32.84a14.71,14.71,0,0,1,3.46-6c6.78-7.21,19-19.17,11.8-22.84A34.91,34.91,0,0,0,200.4,192.47Z" style="fill:#263238"></path><path d="M211.32,197.29c8.32-.27,11.14,4.1,12,12.66,1.11,10.69-1,18.38-11.5,16.43C197.61,223.73,197.49,197.74,211.32,197.29Z" style="fill:#e4897b"></path><path d="M218,209.66a17.89,17.89,0,0,0,2.54,3.37,2.31,2.31,0,0,1-2.17,1Z" style="fill:#de5753"></path><path d="M212.84,209.14c0,.68-.3,1.26-.76,1.28s-.85-.5-.89-1.19.3-1.26.75-1.28S212.8,208.46,212.84,209.14Z" style="fill:#263238"></path><path d="M211.76,208l1.45-.66S212.54,208.62,211.76,208Z" style="fill:#263238"></path><path d="M221.32,208.52c0,.69-.3,1.26-.75,1.29s-.86-.51-.9-1.19.3-1.26.76-1.29S221.28,207.84,221.32,208.52Z" style="fill:#263238"></path><path d="M220.24,207.38l1.45-.67S221,208,220.24,207.38Z" style="fill:#263238"></path><path d="M212.57,203.39a4.36,4.36,0,0,0-3.57,1.38" style="fill:none;stroke:#263238;stroke-linecap:round;stroke-linejoin:round;stroke-width:0.707962px"></path><path d="M218.61,202.85a3.91,3.91,0,0,1,3.34.57" style="fill:none;stroke:#263238;stroke-linecap:round;stroke-linejoin:round;stroke-width:0.707962px"></path><path d="M202.67,211.61s3.67-7,2.91-12.22c0,0,16.28-7.28,17.64,9.44,0,0,1.12-14.92-13.19-14.79s-13.58,21.07-6,27.06C204,221.1,200.4,216,202.67,211.61Z" style="fill:#263238"></path><path d="M204.09,213.32a3.65,3.65,0,0,0-4-3.2c-2.57.36-3.63,5.7,2.83,6.76C203.81,217,204.3,216.12,204.09,213.32Z" style="fill:#e4897b"></path><path d="M216.81,217.87a6.39,6.39,0,0,1-3.38-.46" style="fill:none;stroke:#263238;stroke-linecap:round;stroke-linejoin:round;stroke-width:0.707962px"></path><path d="M200.4,192.47s11.62-3.67,20.34,2.21-13.36,8.6-13.36,8.6l5.09-3.52s-6.59,3.21-9.78,2.75Z" style="fill:#263238"></path><path d="M219.51,194.4s4.09,1.38,4,4.21-8.82,4.9-8.82,4.9" style="fill:none;stroke:#263238;stroke-linecap:round;stroke-linejoin:round;stroke-width:0.488465px"></path><path d="M282.73,302c-15.41,12.07-49.5,26.08-49.5,26.08a29.51,29.51,0,0,1-2.44-23.51,32.12,32.12,0,0,1,2.44-5.58s40.64-20.87,55-10.13C292.46,292.09,289.29,296.87,282.73,302Z" style="fill:#e4897b"></path><path d="M179.47,302.4c6.52-14.74,26-5.37,32.54,3.32,7.08,9.39,2.63,23.69-8.22,23.57C194.73,329.18,173.64,315.59,179.47,302.4Z" style="fill:#e4897b"></path><path d="M213.07,324.29a10.67,10.67,0,0,1-9.28,5c-6.35-.08-18.61-6.78-23.36-15.32-2-3.64-2.7-7.62-1-11.57.07-.16.15-.32.23-.48a0,0,0,0,1,0,0,11.78,11.78,0,0,1,9.29-7.07c8.24-1.16,18.58,5,23,10.89a0,0,0,0,1,0,0C216.41,311.56,216.36,319.3,213.07,324.29Z" style="opacity:0.1;isolation:isolate"></path><path d="M282.73,302c-15.41,12.07-49.5,26.08-49.5,26.08a29.51,29.51,0,0,1-2.44-23.51A31.59,31.59,0,0,0,240.85,307s20.7-16.38,33.62-13.74C278.1,294,281.09,297.44,282.73,302Z" style="opacity:0.2;isolation:isolate"></path><path d="M263.91,318.07a356.58,356.58,0,0,1-34.76,14.57c-8.6,3.14-14.55,5-14.55,5L211,329.43q2.82-1,5.61-2.16a144,144,0,0,0,23.49-13.17c22.68-15.21,41-32.8,49.16-24.24C297.24,298.25,282.41,308.94,263.91,318.07Z" style="fill:#e4897b"></path><path d="M220.39,324.87l4.28,10.32s-9.72,3.62-11.94,5.1c-2.95,2-6,7.94-8.38,7.55s-5.71-4.34-2.79-9.43,3.45-8.38,5.92-9.84,3.83-.13,8.29-1.21A23.91,23.91,0,0,0,220.39,324.87Z" style="fill:#263238"></path><path d="M216.67,341.57a1.18,1.18,0,0,1,.08.81.86.86,0,0,1-.82.53,1,1,0,0,1-.74-.23,3.81,3.81,0,0,1-.9-1.81c-.11.81-.33,1.58-.77,1.76-.28.13-.58,0-.9-.29a1.34,1.34,0,0,1-.43-1.07c.05-1.31,1.74-2.73,1.82-2.8l.09-.05h.08l.07,0h0a.14.14,0,0,1,.08.05A11.09,11.09,0,0,1,216.67,341.57Zm-1.72-.18a2.33,2.33,0,0,0,.54.92.51.51,0,0,0,.39.14c.36,0,.4-.18.42-.22.18-.52-.85-1.89-1.83-2.93A10.84,10.84,0,0,0,215,341.39Zm-2.24.26a.92.92,0,0,0,.24.35c.09.1.27.25.39.2.37-.16.58-1.6.59-3a3.91,3.91,0,0,0-1.27,2.11A.85.85,0,0,0,212.71,341.65Z" style="fill:#92E3A9"></path><path d="M263.91,318.07a356.58,356.58,0,0,1-34.76,14.57,105.78,105.78,0,0,1-12.57-5.37,144,144,0,0,0,23.49-13.17A84.5,84.5,0,0,1,263.91,318.07Z" style="opacity:0.1;isolation:isolate"></path><path d="M268.41,322.06l-1.59,8.87s-29-1.43-53.75-6.64c-13.52-2.84-25.75-6.82-31.22-12.3-2.78-2.79-3.82-6-2.38-9.59.07-.16.15-.32.23-.48a0,0,0,0,1,0,0c1.36-2.45,4.87-3,9.86-2.35,5.82.76,13.66,3.17,22.43,6.17C230,311.83,251.84,320.37,268.41,322.06Z" style="fill:#e4897b"></path><path d="M266,320.75l-.79,10.91s10.33.94,12.86,1.78c3.36,1.12,7.9,6.07,10.07,5.08s4.37-5.69.21-9.84-5.53-7.18-8.3-7.93-3.73.89-8.31,1A37.19,37.19,0,0,1,266,320.75Z" style="fill:#263238"></path><path d="M276.08,332.11l.06-.07h0l.07,0h0l.08,0h0s.07,0,.09,0,2.11,1,2.5,2.22a1.37,1.37,0,0,1-.13,1.15c-.23.39-.49.56-.8.52s-.88-.74-1.2-1.5a3.67,3.67,0,0,1-.4,2,.92.92,0,0,1-.64.42.84.84,0,0,1-.93-.3,1.18,1.18,0,0,1-.15-.8A11.35,11.35,0,0,1,276.08,332.11Zm.08.83c-.67,1.27-1.3,2.86-1,3.31,0,0,.11.16.46.1a.49.49,0,0,0,.34-.23,2.22,2.22,0,0,0,.28-1A10.8,10.8,0,0,0,276.16,332.94Zm2.27,1.44a3.88,3.88,0,0,0-1.78-1.69c.39,1.36,1,2.69,1.37,2.75.12,0,.26-.17.32-.29a.92.92,0,0,0,.14-.4A1,1,0,0,0,278.43,334.38Z" style="fill:#92E3A9"></path><path d="M181.34,312c0,2.12-.91,2-.91,2-2-3.64-2.7-7.62-1-11.57.07-.16.15-.32.23-.48a0,0,0,0,1,0,0,11.78,11.78,0,0,1,9.29-7.07C191.56,301.32,181.34,304.17,181.34,312Z" style="opacity:0.2;isolation:isolate"></path><path d="M197.2,265.81a63.69,63.69,0,0,0-1.23-6.43c-.56-2.15-1.2-4.49-2-7l2.26-4.27A30.43,30.43,0,0,1,197.2,265.81Z" style="opacity:0.2;isolation:isolate"></path><path d="M195,255.75s-.81,15.18-2.34,22.7S185.18,296,185.18,296l1.53,2.42s-4.61,10.9-8.06,11.28c-2,.21-3.93-3.53-5.58-5.55s5.4-8.11,5.4-8.11.74-3.27,1.7-7.23c1.36-5.64,3.18-12.68,4-13.73a1.79,1.79,0,0,0,.21-.75c.19-1.63,0-5.53-.07-10.23-.25-10.8-.29-25.85,4.65-27.39,0,0,3.37-1,5.7,4.58C198.17,249.79,195,255.75,195,255.75Z" style="fill:#e4897b"></path><path d="M188.93,273.9c-1.29-.77-3.21-.19-4.58.44.19-1.63,0-5.53-.07-10.23C188.07,265.79,188.93,273.9,188.93,273.9Z" style="opacity:0.1;isolation:isolate"></path><path d="M182.69,294.68c-1.32-.59-4.22,1.37-4.22,1.37s.74-3.27,1.7-7.23A18.16,18.16,0,0,0,182.69,294.68Z" style="opacity:0.1;isolation:isolate"></path><path d="M204.64,239.09a34.24,34.24,0,0,0-6-4.9c1.23-.26,2.46-.49,3.7-.7A103.35,103.35,0,0,1,216.79,232c1.59,0,3.24,0,4.81.09C229.56,243.69,211.83,246,204.64,239.09Z" style="fill:#e4897b"></path><path d="M230.34,249.61s-3-3.66-3.94-3.8,0,4.5,0,4.5l1.08-1.34Z" style="fill:#fff;opacity:0.5"></path></g></svg>