
<svg class="animated" id="freepik_stories-mental-health" xmlns="http://www.w3.org/2000/svg" xmlns:xlink="http://www.w3.org/1999/xlink" viewBox="0 0 500 500" version="1.1" xmlns:svgjs="http://svgjs.com/svgjs"><g id="freepik--background-simple--inject-189" class="animable" style="transform-origin: 253.42px 233.218px;"><path d="M386.23,77.23S340.34,39.75,280.65,56.37s-84.68,68-118.91,103.39c-17.93,18.51-44.41,25.33-65.71,39.58-68.1,45.56-58,148-5.5,186.64,45.46,33.45,102.26,36.95,176.19,12.28s126.82-39.5,172.66-110.17S442.76,128.1,386.23,77.23Z" style="fill: rgb(146, 227, 169); transform-origin: 253.42px 233.218px;" id="elfgk5frhfyvl" class="animable"></path><g id="elpgm0wn1o8en"><path d="M386.23,77.23S340.34,39.75,280.65,56.37s-84.68,68-118.91,103.39c-17.93,18.51-44.41,25.33-65.71,39.58-68.1,45.56-58,148-5.5,186.64,45.46,33.45,102.26,36.95,176.19,12.28s126.82-39.5,172.66-110.17S442.76,128.1,386.23,77.23Z" style="fill: rgb(255, 255, 255); opacity: 0.7; transform-origin: 253.42px 233.218px;" class="animable"></path></g></g><g id="freepik--Carpet--inject-189" class="animable" style="transform-origin: 249px 438px;"><polygon points="395 459 103 459 132.2 417 365.8 417 395 459" style="fill: rgb(38, 50, 56); stroke: rgb(38, 50, 56); stroke-linecap: round; stroke-linejoin: round; transform-origin: 249px 438px;" id="elq2tvmues0ss" class="animable"></polygon></g><g id="freepik--Plants--inject-189" class="animable" style="transform-origin: 253.822px 351.497px;"><path d="M405.14,402.58S375.6,357.53,380,347.19,400,354.58,400,354.58s-22.9-60.56-7.39-73.86,20.68,54.66,20.68,54.66,14-39.15,25.11-24.38-17,45.79-17,45.79,19.2.74,14,13.3-19.2,25.85-19.2,25.85Z" style="fill: rgb(146, 227, 169); transform-origin: 410.276px 340.787px;" id="elr94ea4yk8s" class="animable"></path><path d="M397,392.24s-17.72-25.11-8.86-30.28,13.29,10.34,13.29,10.34.74-67.94,14.78-62.77,8.86,46.52,8.86,46.52,17.72-11.81,17,5.17S417.69,393,417.69,393" style="fill: none; stroke: rgb(38, 50, 56); stroke-linecap: round; stroke-linejoin: round; transform-origin: 413.875px 351.125px;" id="elhhw2mbj98f" class="animable"></path><line x1="413.26" y1="393.72" x2="397.75" y2="376.73" style="fill: none; stroke: rgb(38, 50, 56); stroke-linecap: round; stroke-linejoin: round; transform-origin: 405.505px 385.225px;" id="eldmdigrwrz4r" class="animable"></line><line x1="414" y1="401.84" x2="413.26" y2="359.75" style="fill: none; stroke: rgb(38, 50, 56); stroke-linecap: round; stroke-linejoin: round; transform-origin: 413.63px 380.795px;" id="elnmyzxptunfd" class="animable"></line><line x1="414.74" y1="387.81" x2="428.77" y2="369.35" style="fill: none; stroke: rgb(38, 50, 56); stroke-linecap: round; stroke-linejoin: round; transform-origin: 421.755px 378.58px;" id="ellcivt7fv9pd" class="animable"></line><polygon points="427.29 389.29 388.15 389.29 392.06 424 423.38 424 427.29 389.29" style="fill: rgb(38, 50, 56); stroke: rgb(38, 50, 56); stroke-linecap: round; stroke-linejoin: round; transform-origin: 407.72px 406.645px;" id="elstk6ui36hv" class="animable"></polygon><path d="M91.14,402.58S61.6,357.53,66,347.19,86,354.58,86,354.58,63.07,294,78.58,280.72s20.68,54.66,20.68,54.66,14-39.15,25.11-24.38-17,45.79-17,45.79,19.2.74,14,13.3-19.2,25.85-19.2,25.85Z" style="fill: rgb(146, 227, 169); transform-origin: 96.2609px 340.79px;" id="elk7828ue280l" class="animable"></path><path d="M85.15,392.8s-18.36-17.25-18.92-25,11.69,1.67,16.69,5-12.79-21.7-12.24-40.06,10.57-11.12,13.91-3.33,5,15,6.68,16.69,4.45-12.8,11.68-8.91c11.56,6.23-7.23,27.26-3.34,31.16s12.8-16.69,17.25-5.56-14.47,31.15-14.47,31.15" style="fill: none; stroke: rgb(38, 50, 56); stroke-linecap: round; stroke-linejoin: round; transform-origin: 91.8746px 357.578px;" id="elclim7mf1vhv" class="animable"></path><line x1="96.83" y1="391.68" x2="82.92" y2="349.96" style="fill: none; stroke: rgb(38, 50, 56); stroke-linecap: round; stroke-linejoin: round; transform-origin: 89.875px 370.82px;" id="elq3vzhmicz6p" class="animable"></line><line x1="89.6" y1="370.54" x2="95.16" y2="357.75" style="fill: none; stroke: rgb(38, 50, 56); stroke-linecap: round; stroke-linejoin: round; transform-origin: 92.38px 364.145px;" id="el8cvxl014twe" class="animable"></line><polyline points="78.47 378.89 94.05 382.78 101.84 377.22" style="fill: none; stroke: rgb(38, 50, 56); stroke-linecap: round; stroke-linejoin: round; transform-origin: 90.155px 380px;" id="ell8pat61b48" class="animable"></polyline><polygon points="113.29 389.29 74.15 389.29 78.06 424 109.38 424 113.29 389.29" style="fill: rgb(38, 50, 56); stroke: rgb(38, 50, 56); stroke-linecap: round; stroke-linejoin: round; transform-origin: 93.72px 406.645px;" id="ely9ootytcbgi" class="animable"></polygon></g><g id="freepik--Character--inject-189" class="animable" style="transform-origin: 255.001px 255.504px;"><g id="freepik--Hair--inject-189" class="animable" style="transform-origin: 255.001px 176.686px;"><path d="M225.67,294s-14.67,1.33-20-8,4-20.67-6-24.67-22,9.34-42-2-9.34-26-4-37.33,8-16.67-4.67-24-26.67-28.67-18-49.33,30.67-11.34,42-22,1.33-23.34.67-40.67S196.33,55.33,219,58.67,246.33,86,246.33,101.33s24,19.34,35.34,2S302.33,82,319,89.33s2.67,32,10.67,36,14.66-15.33,38.66-4S379,162.66,367,170c-17.46,10.69,3.13,31.42,6.44,44.11,4.85,18.55-10.08,33.39-28.44,32.56-29.33-1.34-36.67-6-42.67,2.66S315,260,312.33,274s-8,19.33-20,19.33-19.33-10.66-32-5.33S231.67,297.33,225.67,294Z" style="fill: rgb(38, 50, 56); stroke: rgb(38, 50, 56); stroke-linecap: round; stroke-linejoin: round; transform-origin: 255.001px 176.686px;" id="eleb95d8h818" class="animable"></path></g><path d="M202.5,389.5a72,72,0,0,0-2.25,24.5c1.25,12.75,7.75,19.5,36,23.75s47.75.75,63.5-6.75,12.18-34.41,8.09-40.58S288,383,262.5,385.25,221.25,383.5,212,385,202.5,389.5,202.5,389.5Z" style="fill: rgb(105, 105, 105); stroke: rgb(38, 50, 56); stroke-linecap: round; stroke-linejoin: round; transform-origin: 255.677px 411.896px;" id="eleahbsyb6qhc" class="animable"></path><g id="elu9q712p7ln8"><path d="M292.5,393.5s-13.5,3.5-23,6-10.5,3.5-2,4.5,24.5,0,24.5,0-22.5,10.5-34.5,13-34-5.5-36.5-7.5,10.5-2,14-3.5,1.5-3.5-11-5.5-10,9.5,1,17.5,17.5,10.5,31.75,8,33.75-8.5,40.25-20.5S292.5,393.5,292.5,393.5Z" style="opacity: 0.3; transform-origin: 257.347px 410.215px;" class="animable"></path></g><path d="M196.13,313.45l-1.66,33.4s-3,7.76,2.4,12.74,12.36,3.51,16-2.95,3.14-21.41,4.06-27.32-6.27-12-12.18-14.21S196.13,313.45,196.13,313.45Z" style="fill: rgb(255, 255, 255); stroke: rgb(38, 50, 56); stroke-linecap: round; stroke-linejoin: round; transform-origin: 205.325px 337.977px;" id="el0nrb6sni8wff" class="animable"></path><path d="M313.07,313.45l1.66,33.4s2.95,7.76-2.4,12.74-12.37,3.51-16.06-2.95-3.14-21.41-4.06-27.32,6.28-12,12.18-14.21S313.07,313.45,313.07,313.45Z" style="fill: rgb(255, 255, 255); stroke: rgb(38, 50, 56); stroke-linecap: round; stroke-linejoin: round; transform-origin: 303.836px 337.977px;" id="ellnr7i5tlk1t" class="animable"></path><path d="M241.32,263.68s.63,13.9-2.74,19.79S224.47,289,217.53,289s-17.27,5.68-20.64,11.37a103.61,103.61,0,0,0-6.52,14.52l23.16,12.42s-2.53,4.85,0,12,6.31,9.9,5.26,13.48-14.74,29.05-16,33.05a37.69,37.69,0,0,0-1.47,5.68s29.26,5.69,54.73,4.85,51.79-5.9,51.79-5.9-7.79-13.68-12-21.47-8-15.79-7.16-18.53,5.69-10.1,5.48-22.95c0,0,18.73-4.84,25.68-12.63,0,0-8.21-20.42-16.63-23.79s-18.1,0-25-1.89-10.53-5.27-11.58-7.79-2.11-14.32-1.69-17.05Z" style="fill: rgb(146, 227, 169); stroke: rgb(38, 50, 56); stroke-linecap: round; stroke-linejoin: round; transform-origin: 255.105px 330.067px;" id="eldqd9owfn4k" class="animable"></path><g id="elnb0qzsbn28"><path d="M220,345s-7-7.5,1-8.5,19.5,7,32,10,27.5-10.5,34-8.5,2.5,12-4.5,16.5-26.5,4-37.5,3.5S228.5,354.5,220,345Z" style="opacity: 0.3; transform-origin: 253.727px 347.365px;" class="animable"></path></g><path d="M229,349.64s3.81,3.05,14,3.05,18-4.57,25.14-3.3" style="fill: none; stroke: rgb(38, 50, 56); stroke-linecap: round; stroke-linejoin: round; transform-origin: 248.57px 350.929px;" id="el2oor63gz1c9" class="animable"></path><path d="M224.68,350.4s4.31,3.56,13.2,3.81" style="fill: none; stroke: rgb(38, 50, 56); stroke-linecap: round; stroke-linejoin: round; transform-origin: 231.28px 352.305px;" id="elwmfm7arbaos" class="animable"></path><path d="M213.53,327.26s.73-3.77,5.56-7.33" style="fill: none; stroke: rgb(38, 50, 56); stroke-linecap: round; stroke-linejoin: round; transform-origin: 216.31px 323.595px;" id="el6u7svod9tzl" class="animable"></path><path d="M294.16,327.47s-1.69-7.28-6.26-8.81" style="fill: none; stroke: rgb(38, 50, 56); stroke-linecap: round; stroke-linejoin: round; transform-origin: 291.03px 323.065px;" id="elcnvuzn70fi" class="animable"></path><path d="M254.79,314.84c16.47-.65,21.64-16.5,23.26-25.71-6.87-1.9-10.42-5.25-11.47-7.76s-2.11-14.32-1.69-17.05l-23.57-.64s.63,13.9-2.74,19.79c-1.72,3-5.38,4.38-9.47,5C230.67,295.08,237,315.55,254.79,314.84Z" style="fill: rgb(255, 255, 255); transform-origin: 253.58px 289.269px;" id="el5fv4bckmy0o" class="animable"></path><g style="clip-path: url(&quot;#freepik--clip-path--inject-189&quot;); transform-origin: 253.125px 270.688px;" id="eldq3lrmqxwr" class="animable"><g id="eli8a1ci2yujf"><path d="M265.3,274.06a56,56,0,0,1-.41-9.74l-23.57-.64a77.89,77.89,0,0,1-.37,10.73C245.09,277.12,253.48,280.36,265.3,274.06Z" style="opacity: 0.3; transform-origin: 253.125px 270.688px;" class="animable"></path></g></g><path d="M254.79,314.84c16.47-.65,21.64-16.5,23.26-25.71-6.87-1.9-10.42-5.25-11.47-7.76s-2.11-14.32-1.69-17.05l-23.57-.64s.63,13.9-2.74,19.79c-1.72,3-5.38,4.38-9.47,5C230.67,295.08,237,315.55,254.79,314.84Z" style="fill: none; stroke: rgb(38, 50, 56); stroke-linecap: round; stroke-linejoin: round; transform-origin: 253.58px 289.269px;" id="eli9bb4yvw8yr" class="animable"></path><path d="M231.32,235s-3-4.89-5.95-1.91,0,8.92,1.91,11.68,5.52,4.88,6.37,3.82S231.32,235,231.32,235Z" style="fill: rgb(255, 255, 255); stroke: rgb(38, 50, 56); stroke-linecap: round; stroke-linejoin: round; transform-origin: 228.957px 240.498px;" id="elcyt49xj4tn" class="animable"></path><path d="M277.4,234.56s4.25-5.52,6.59-.21-4,13.38-7,14.87-1.49-3.4-1.28-5.1S277.4,234.56,277.4,234.56Z" style="fill: rgb(255, 255, 255); stroke: rgb(38, 50, 56); stroke-linecap: round; stroke-linejoin: round; transform-origin: 279.821px 240.771px;" id="el78i4gu1ra56" class="animable"></path><path d="M229,216.3s1.49,20.18,2.55,30.37S236.41,266,248.09,269s21-1.06,24.43-7.86,5.31-19.75,5.31-30.37v-17S247.67,205.26,229,216.3Z" style="fill: rgb(255, 255, 255); stroke: rgb(38, 50, 56); stroke-linecap: round; stroke-linejoin: round; transform-origin: 253.415px 240.321px;" id="eljsfgbejgl1b" class="animable"></path><path d="M251.49,245.18a7.89,7.89,0,0,0,3.61,1.28,9.24,9.24,0,0,0,3.82-1.28" style="fill: none; stroke: rgb(38, 50, 56); stroke-linecap: round; stroke-linejoin: round; transform-origin: 255.205px 245.82px;" id="elh5swhd7092" class="animable"></path><path d="M248.73,251.77s5.31,3.4,13-.43" style="fill: none; stroke: rgb(38, 50, 56); stroke-linecap: round; stroke-linejoin: round; transform-origin: 255.23px 252.251px;" id="el6ud8okpu333" class="animable"></path><path d="M240.24,234.56s4.46-.63,7,1.07" style="fill: none; stroke: rgb(38, 50, 56); stroke-linecap: round; stroke-linejoin: round; stroke-width: 2px; transform-origin: 243.74px 235.038px;" id="elbhktz1gl8mv" class="animable"></path><path d="M261.05,235.41s4.25-2.12,8.28-.21" style="fill: none; stroke: rgb(38, 50, 56); stroke-linecap: round; stroke-linejoin: round; stroke-width: 2px; transform-origin: 265.19px 234.906px;" id="elmg0sta5vn1q" class="animable"></path><path d="M230.26,232.63a33.77,33.77,0,0,0,3.39-7.83,23.6,23.6,0,0,0,1.17-11.22A35.25,35.25,0,0,0,229,216.3S229.56,224.21,230.26,232.63Z" style="fill: rgb(38, 50, 56); stroke: rgb(38, 50, 56); stroke-linecap: round; stroke-linejoin: round; transform-origin: 232.021px 223.105px;" id="elzdosp53zlve" class="animable"></path><path d="M277.82,230.94c0-.07,0-.13,0-.2v-17s-2.08-.58-5.47-1.24C272.57,215.8,273.56,225.75,277.82,230.94Z" style="fill: rgb(38, 50, 56); stroke: rgb(38, 50, 56); stroke-linecap: round; stroke-linejoin: round; transform-origin: 275.085px 221.72px;" id="eljssvab2uysa" class="animable"></path><path d="M238.54,227.13s3.61-4.88,11.25-3.4" style="fill: none; stroke: rgb(38, 50, 56); stroke-linecap: round; stroke-linejoin: round; transform-origin: 244.165px 225.29px;" id="el72i0337b2c4" class="animable"></path><path d="M260.62,224.37A10.39,10.39,0,0,1,271,226.28" style="fill: none; stroke: rgb(38, 50, 56); stroke-linecap: round; stroke-linejoin: round; transform-origin: 265.81px 225.009px;" id="el2of0f5qdo6l" class="animable"></path><path d="M256.75,426s-9.75,0-27.25-17.25S201,377,187.5,371s-26.5,7.25-25.75,21.5,11.25,34.25,42.5,45.75S262.25,445,265,445s16.25,6.75,24.25,7.5a62.24,62.24,0,0,0,13.25,0s2.25.25,3.5.25,2.75-1.5,2.75-1.5,2.53.66,3.53-1.09.22-2.41.22-2.41,4.28.37,5.78-2.38-.64-2.64-.64-2.64,2.93-.57,2.86-2.93a5.13,5.13,0,0,0-.5-2.55s1.75-2.75,1-5-3.5-3-6.25-1.75-16,.75-26.75,0S256.75,426,256.75,426Z" style="fill: rgb(255, 255, 255); stroke: rgb(38, 50, 56); stroke-linecap: round; stroke-linejoin: round; transform-origin: 241.453px 411.186px;" id="elctjqjz45djk" class="animable"></path><path d="M252.4,425c-4.46-1.61-12.24-5.71-22.9-16.22C212,391.5,201,377,187.5,371s-26.5,7.25-25.75,21.5,11.25,34.25,42.5,45.75a126.81,126.81,0,0,0,36.26,7.49C251.87,441,252.93,431,252.4,425Z" style="fill: rgb(105, 105, 105); transform-origin: 207.113px 407.63px;" id="el5lgxvc1dsge" class="animable"></path><g style="clip-path: url(&quot;#freepik--clip-path-2--inject-189&quot;); transform-origin: 204.936px 409.92px;" id="elo4bs6nmqf2r" class="animable"><g id="elwscbmeiz0zn"><path d="M248.15,440.34c-4.93-1.87-10.69-3.87-17.15-5.84-23-7-40-15.5-51.5-28.5s-7.5-29.5-7.5-29.5l-2.65-2.4a23.35,23.35,0,0,0-7.6,18.4c.75,14.25,11.25,34.25,42.5,45.75a126.81,126.81,0,0,0,36.26,7.49A19.9,19.9,0,0,0,248.15,440.34Z" style="opacity: 0.3; transform-origin: 204.936px 409.92px;" class="animable"></path></g></g><path d="M252.4,425c-4.46-1.61-12.24-5.71-22.9-16.22C212,391.5,201,377,187.5,371s-26.5,7.25-25.75,21.5,11.25,34.25,42.5,45.75a126.81,126.81,0,0,0,36.26,7.49C251.87,441,252.93,431,252.4,425Z" style="fill: none; stroke: rgb(38, 50, 56); stroke-linecap: round; stroke-linejoin: round; transform-origin: 207.113px 407.63px;" id="el5ff0tuap88g" class="animable"></path><path d="M320,437.25a5.62,5.62,0,0,0-4.86.12" style="fill: rgb(255, 255, 255); stroke: rgb(38, 50, 56); stroke-linecap: round; stroke-linejoin: round; transform-origin: 317.57px 437.063px;" id="elk4trpkqtrqs" class="animable"></path><path d="M317.64,442.73a5.87,5.87,0,0,0-4,0" style="fill: rgb(255, 255, 255); stroke: rgb(38, 50, 56); stroke-linecap: round; stroke-linejoin: round; transform-origin: 315.64px 442.554px;" id="elfzs25dx2tda" class="animable"></path><path d="M312.5,447.75a4.79,4.79,0,0,0-3.22-.95" style="fill: rgb(255, 255, 255); stroke: rgb(38, 50, 56); stroke-linecap: round; stroke-linejoin: round; transform-origin: 310.89px 447.269px;" id="eliggv5bxl68e" class="animable"></path><path d="M308.49,451s-1.07-1.93-2.64-1.93" style="fill: rgb(255, 255, 255); stroke: rgb(38, 50, 56); stroke-linecap: round; stroke-linejoin: round; transform-origin: 307.17px 450.035px;" id="elxjwwo2ar5j" class="animable"></path><path d="M245.66,426s9.75,0,27.25-17.25,28.5-31.75,42-37.75,26.5,7.25,25.75,21.5-11.25,34.25-42.5,45.75-58,6.75-60.75,6.75-16.25,6.75-24.25,7.5a62.24,62.24,0,0,1-13.25,0s-2.25.25-3.5.25-2.75-1.5-2.75-1.5-2.53.66-3.53-1.09-.22-2.41-.22-2.41-4.29.37-5.79-2.38.64-2.64.64-2.64-2.93-.57-2.86-2.93a5,5,0,0,1,.51-2.55s-1.75-2.75-1-5,3.5-3,6.25-1.75,16,.75,26.75,0S245.66,426,245.66,426Z" style="fill: rgb(255, 255, 255); stroke: rgb(38, 50, 56); stroke-linecap: round; stroke-linejoin: round; transform-origin: 260.957px 411.186px;" id="el4ls7vz9qbkb" class="animable"></path><path d="M250,425c4.45-1.61,12.23-5.71,22.9-16.22,17.5-17.25,28.5-31.75,42-37.75s26.5,7.25,25.75,21.5-11.25,34.25-42.5,45.75a126.8,126.8,0,0,1-36.27,7.49C250.53,441,249.48,431,250,425Z" style="fill: rgb(105, 105, 105); transform-origin: 295.288px 407.66px;" id="elkbyppg2qfms" class="animable"></path><g style="clip-path: url(&quot;#freepik--clip-path-3--inject-189&quot;); transform-origin: 298.185px 408.045px;" id="elimt9rfxyq5" class="animable"><g id="elmcg8tuik5a"><path d="M340.66,392.5c.52-9.93-5.64-19.36-14-22.15L323,373s12.5,7.5,9.5,22-27.5,29.5-47,37.5a222.3,222.3,0,0,1-29.82,9.33,20.85,20.85,0,0,0,6.21,3.91,126.8,126.8,0,0,0,36.27-7.49C329.41,426.75,339.91,406.75,340.66,392.5Z" style="opacity: 0.3; transform-origin: 298.185px 408.045px;" class="animable"></path></g></g><path d="M250,425c4.45-1.61,12.23-5.71,22.9-16.22,17.5-17.25,28.5-31.75,42-37.75s26.5,7.25,25.75,21.5-11.25,34.25-42.5,45.75a126.8,126.8,0,0,1-36.27,7.49C250.53,441,249.48,431,250,425Z" style="fill: none; stroke: rgb(38, 50, 56); stroke-linecap: round; stroke-linejoin: round; transform-origin: 295.288px 407.66px;" id="elo9qahnztad" class="animable"></path><path d="M182.41,437.25a5.62,5.62,0,0,1,4.86.12" style="fill: rgb(255, 255, 255); stroke: rgb(38, 50, 56); stroke-linecap: round; stroke-linejoin: round; transform-origin: 184.84px 437.063px;" id="elvq42bojq0v" class="animable"></path><path d="M184.76,442.73a5.87,5.87,0,0,1,4,0" style="fill: rgb(255, 255, 255); stroke: rgb(38, 50, 56); stroke-linecap: round; stroke-linejoin: round; transform-origin: 186.76px 442.554px;" id="elnqu7h7u33km" class="animable"></path><path d="M189.91,447.75a4.79,4.79,0,0,1,3.22-.95" style="fill: rgb(255, 255, 255); stroke: rgb(38, 50, 56); stroke-linecap: round; stroke-linejoin: round; transform-origin: 191.52px 447.269px;" id="elatobsh4aa6" class="animable"></path><path d="M193.92,451S195,449,196.56,449" style="fill: rgb(255, 255, 255); stroke: rgb(38, 50, 56); stroke-linecap: round; stroke-linejoin: round; transform-origin: 195.24px 450px;" id="elpl95m24ypd" class="animable"></path><path d="M200.37,349.07s-3.69-.74-10.33,2.58-12.74,9.23-16.25,11.26-5.9,3.33-9,.19-9.78-11.82-16.06-11.63-8.49,8.86-7.38,10.7,2.77,2.22,4.06.74,2.95-4.43,4.61-3.32.74,6.28-1.84,7.2-9.6,5.35-7.94,7.94,11.08,6.09,18.09,6.64,15.69-4.24,21.41-5.17,21.23-2,28.42-7.93a15.1,15.1,0,0,0,5.36-14.22" style="fill: rgb(255, 255, 255); stroke: rgb(38, 50, 56); stroke-linecap: round; stroke-linejoin: round; transform-origin: 176.859px 365.207px;" id="ellvnvw3sltw" class="animable"></path><path d="M141.12,370.85s-.73-8.12-3.13-8.68-2.77,5-2.4,10.34,3.32,6.83,5.16,5.35S141.12,370.85,141.12,370.85Z" style="fill: rgb(255, 255, 255); stroke: rgb(38, 50, 56); stroke-linecap: round; stroke-linejoin: round; transform-origin: 138.571px 370.266px;" id="eljqxl4g6jycp" class="animable"></path><path d="M146.89,373.14s.7-8.13-1.56-9.1-3.6,4.42-4.19,9.75,2.07,7.31,4.15,6.19S146.89,373.14,146.89,373.14Z" style="fill: rgb(255, 255, 255); stroke: rgb(38, 50, 56); stroke-linecap: round; stroke-linejoin: round; transform-origin: 144.024px 372.104px;" id="elczj3srzrfv4" class="animable"></path><path d="M151.87,375s.71-8.12-1.56-9.09-3.6,4.42-4.18,9.75,2.06,7.31,4.14,6.18S151.87,375,151.87,375Z" style="fill: rgb(255, 255, 255); stroke: rgb(38, 50, 56); stroke-linecap: round; stroke-linejoin: round; transform-origin: 149.012px 373.971px;" id="el39bhze3fpvq" class="animable"></path><path d="M164.93,381a24.22,24.22,0,0,1-10.7,2.22,39.48,39.48,0,0,1-.37-4.62c0-2,4.24-10.33,10.52-9.78" style="fill: rgb(255, 255, 255); stroke: rgb(38, 50, 56); stroke-linecap: round; stroke-linejoin: round; transform-origin: 159.395px 376.01px;" id="elljaeqh8zssi" class="animable"></path><path d="M157.16,378.17s2.35-6.36.41-7.84-4.33,2.46-6,6.6.44,6.56,2.64,6.29S157.16,378.17,157.16,378.17Z" style="fill: rgb(255, 255, 255); stroke: rgb(38, 50, 56); stroke-linecap: round; stroke-linejoin: round; transform-origin: 154.653px 376.626px;" id="eljabywqe92ds" class="animable"></path><path d="M308.82,349.07s3.69-.74,10.34,2.58,12.73,9.23,16.24,11.26,5.91,3.33,9.05.19,9.78-11.82,16.05-11.63,8.49,8.86,7.39,10.7-2.77,2.22-4.06.74-3-4.43-4.62-3.32-.74,6.28,1.85,7.2,9.6,5.35,7.93,7.94-11.07,6.09-18.08,6.64-15.69-4.24-21.42-5.17-21.22-2-28.42-7.93a15.08,15.08,0,0,1-5.35-14.22" style="fill: rgb(255, 255, 255); stroke: rgb(38, 50, 56); stroke-linecap: round; stroke-linejoin: round; transform-origin: 332.376px 365.207px;" id="eldome5zeabb" class="animable"></path><path d="M368.07,370.85s.74-8.12,3.14-8.68,2.77,5,2.4,10.34-3.32,6.83-5.17,5.35S368.07,370.85,368.07,370.85Z" style="fill: rgb(255, 255, 255); stroke: rgb(38, 50, 56); stroke-linecap: round; stroke-linejoin: round; transform-origin: 370.621px 370.266px;" id="eljd3yhwuyeoj" class="animable"></path><path d="M362.31,373.14s-.71-8.13,1.55-9.1,3.61,4.42,4.19,9.75S366,381.1,363.91,380,362.31,373.14,362.31,373.14Z" style="fill: rgb(255, 255, 255); stroke: rgb(38, 50, 56); stroke-linecap: round; stroke-linejoin: round; transform-origin: 365.168px 372.11px;" id="eld2147ckccg" class="animable"></path><path d="M357.32,375s-.7-8.12,1.56-9.09,3.61,4.42,4.19,9.75-2.07,7.31-4.14,6.18S357.32,375,357.32,375Z" style="fill: rgb(255, 255, 255); stroke: rgb(38, 50, 56); stroke-linecap: round; stroke-linejoin: round; transform-origin: 360.184px 373.971px;" id="elwq6u8ed6tqp" class="animable"></path><path d="M344.26,381A24.25,24.25,0,0,0,355,383.22a39.48,39.48,0,0,0,.37-4.62c0-2-4.25-10.33-10.53-9.78" style="fill: rgb(255, 255, 255); stroke: rgb(38, 50, 56); stroke-linecap: round; stroke-linejoin: round; transform-origin: 349.815px 376.011px;" id="el3dyu772pli1" class="animable"></path><path d="M352,378.17s-2.35-6.36-.41-7.84,4.32,2.46,6,6.6-.44,6.56-2.64,6.29S352,378.17,352,378.17Z" style="fill: rgb(255, 255, 255); stroke: rgb(38, 50, 56); stroke-linecap: round; stroke-linejoin: round; transform-origin: 354.509px 376.626px;" id="elzqdhiokgcu" class="animable"></path></g><g id="freepik--Graphics--inject-189" class="animable" style="transform-origin: 260.78px 158.468px;"><path d="M273,204c-2.35-3.41-6-.09-6.94.93-1-1-4.59-4.34-6.93-.93-2.55,3.71,6.85,11.44,6.93,11.4S275.52,207.71,273,204Z" style="fill: none; stroke: rgb(146, 227, 169); stroke-linecap: round; stroke-linejoin: round; transform-origin: 266.061px 208.949px;" id="elnarub4qdneq" class="animable"></path><path d="M249.65,207.06a27.17,27.17,0,0,0-11.44-8.91c-7.32-2.86-2.55-8.58.63-7a44.76,44.76,0,0,0,6.36,2.54s-8.27-6.68-8.58-12.4,8.58,1.59,8.58,1.59S234.39,168,237.89,165.4s6.67,2.23,8.9,6.36a79.52,79.52,0,0,1,4.13,9.54s-.63-10.49,2.87-7.31,1.27,19.08,1.27,19.08,4.77-13,7-6S250.61,206.1,249.65,207.06Z" style="fill: none; stroke: rgb(146, 227, 169); stroke-linecap: round; stroke-linejoin: round; transform-origin: 248.328px 185.863px;" id="elyp4u8falvoe" class="animable"></path><path d="M249.65,207.06s5.09-15.27-5.4-35" style="fill: none; stroke: rgb(146, 227, 169); stroke-linecap: round; stroke-linejoin: round; transform-origin: 247.567px 189.56px;" id="elt61qzju3k9o" class="animable"></path><path d="M232.2,105.69a20.1,20.1,0,0,0-10.37,2.79c-5,3-6.2-2.33-3.84-3.5a34.27,34.27,0,0,0,4.34-2.62s-7.64,1.9-11.16-.47,4.77-4.36,4.77-4.36-13.65-.28-13.59-3.48,4.29-3,7.73-2.42a60.09,60.09,0,0,1,7.48,1.81s-6.48-4.31-3.05-5,11.84,7.76,11.84,7.76-5.57-8.63-.45-6.83S232.06,104.7,232.2,105.69Z" style="fill: none; stroke: rgb(146, 227, 169); stroke-linecap: round; stroke-linejoin: round; transform-origin: 217.275px 98.8919px;" id="ele3ydlv88e8" class="animable"></path><path d="M232.2,105.69s-6.74-9.82-23.07-12.42" style="fill: none; stroke: rgb(146, 227, 169); stroke-linecap: round; stroke-linejoin: round; transform-origin: 220.665px 99.48px;" id="elhw43lk6jnse" class="animable"></path><path d="M295.36,168.87a3.86,3.86,0,0,0-.84.11,3.65,3.65,0,1,0-6.14-3.1,3.65,3.65,0,1,0-5.62,4.38,3.65,3.65,0,1,0,4.2,5.86,3.64,3.64,0,0,0,7.26-.13,3.9,3.9,0,0,0,1.14.2,3.66,3.66,0,0,0,0-7.32Z" style="fill: none; stroke: rgb(146, 227, 169); stroke-linecap: round; stroke-linejoin: round; transform-origin: 289.882px 171.061px;" id="elfqlxcv9ea87" class="animable"></path><circle cx="289.13" cy="171.75" r="2.53" style="fill: none; stroke: rgb(146, 227, 169); stroke-linecap: round; stroke-linejoin: round; transform-origin: 289.13px 171.75px;" id="eljrcj2qgzvu" class="animable"></circle><path d="M222.18,197.66a3.88,3.88,0,0,0-.85.11,3.65,3.65,0,1,0-6.13-3.1,3.65,3.65,0,0,0-6.94,1.59,3.62,3.62,0,0,0,1.32,2.79,3.65,3.65,0,1,0,4.2,5.86,3.64,3.64,0,0,0,7.25-.13,3.6,3.6,0,0,0,1.15.2,3.66,3.66,0,0,0,0-7.32Z" style="fill: none; stroke: rgb(146, 227, 169); stroke-linecap: round; stroke-linejoin: round; transform-origin: 216.702px 199.815px;" id="elyptdulvsjgc" class="animable"></path><circle cx="215.94" cy="200.54" r="2.53" style="fill: none; stroke: rgb(146, 227, 169); stroke-linecap: round; stroke-linejoin: round; transform-origin: 215.94px 200.54px;" id="el8b95u7k28yo" class="animable"></circle><path d="M220.18,152.18a2.33,2.33,0,0,0-.53.07,2.23,2.23,0,0,0,.71-1.64,2.27,2.27,0,0,0-4.53-.29,2.27,2.27,0,1,0-3.49,2.73,2.24,2.24,0,0,0-1.26,2A2.28,2.28,0,0,0,215,156.7a2.27,2.27,0,0,0,4.52-.09,2.08,2.08,0,0,0,.71.13,2.28,2.28,0,0,0,0-4.56Z" style="fill: none; stroke: rgb(146, 227, 169); stroke-linecap: round; stroke-linejoin: round; transform-origin: 216.795px 153.476px;" id="elyiruc72bqm8" class="animable"></path><circle cx="216.3" cy="153.97" r="1.58" style="fill: none; stroke: rgb(146, 227, 169); stroke-linecap: round; stroke-linejoin: round; transform-origin: 216.3px 153.97px;" id="els4eduw7lb9m" class="animable"></circle><path d="M199.57,222a2.25,2.25,0,0,0-.52.07,2.26,2.26,0,0,0,.7-1.64,2.27,2.27,0,0,0-4.52-.29,2.27,2.27,0,1,0-3.5,2.73,2.27,2.27,0,1,0,2.61,3.65,2.27,2.27,0,0,0,4.52-.09,2.13,2.13,0,0,0,.71.13,2.28,2.28,0,0,0,0-4.56Z" style="fill: none; stroke: rgb(146, 227, 169); stroke-linecap: round; stroke-linejoin: round; transform-origin: 196.167px 223.354px;" id="eljo14ptm0fh" class="animable"></path><circle cx="195.69" cy="223.79" r="1.58" style="fill: none; stroke: rgb(146, 227, 169); stroke-linecap: round; stroke-linejoin: round; transform-origin: 195.69px 223.79px;" id="elwwlmqwy1lcb" class="animable"></circle><path d="M243.83,114.29a2.25,2.25,0,0,0-.52.07,2.27,2.27,0,1,0-3.82-1.94,2.27,2.27,0,0,0-4.32,1,2.23,2.23,0,0,0,.82,1.73,2.27,2.27,0,0,0,1,4.31,2.24,2.24,0,0,0,1.59-.66,2.27,2.27,0,0,0,4.52-.08,2.41,2.41,0,0,0,.71.13,2.28,2.28,0,1,0,0-4.56Z" style="fill: none; stroke: rgb(146, 227, 169); stroke-linecap: round; stroke-linejoin: round; transform-origin: 240.403px 115.636px;" id="elrdopvtgaqu" class="animable"></path><circle cx="239.95" cy="116.08" r="1.58" style="fill: none; stroke: rgb(146, 227, 169); stroke-linecap: round; stroke-linejoin: round; transform-origin: 239.95px 116.08px;" id="ele3hpb7ei0cg" class="animable"></circle><path d="M292.68,128.68a2.33,2.33,0,0,0-.53.07,2.23,2.23,0,0,0,.71-1.64,2.27,2.27,0,0,0-4.53-.29,2.27,2.27,0,1,0-3.49,2.73,2.24,2.24,0,0,0-1.26,2,2.28,2.28,0,0,0,3.87,1.63,2.27,2.27,0,0,0,4.52-.09,2.08,2.08,0,0,0,.71.13,2.28,2.28,0,0,0,0-4.56Z" style="fill: none; stroke: rgb(146, 227, 169); stroke-linecap: round; stroke-linejoin: round; transform-origin: 289.27px 129.966px;" id="elozn5tkv4pd8" class="animable"></path><circle cx="288.8" cy="130.47" r="1.58" style="fill: none; stroke: rgb(146, 227, 169); stroke-linecap: round; stroke-linejoin: round; transform-origin: 288.8px 130.47px;" id="elf6pwz9vjedh" class="animable"></circle><path d="M263,158a65.54,65.54,0,0,1,4.67-10c2.33-3.67,10.66-4.33,10.66-4.33S274,150.67,272,154,263,158,263,158Z" style="fill: none; stroke: rgb(146, 227, 169); stroke-linecap: round; stroke-linejoin: round; transform-origin: 270.665px 150.835px;" id="el6x1yxkhs8g8" class="animable"></path><path d="M263,158s6.33-9,13.67-13.33" style="fill: none; stroke: rgb(146, 227, 169); stroke-linecap: round; stroke-linejoin: round; transform-origin: 269.835px 151.335px;" id="ela2kuw71b945" class="animable"></path><path d="M166.87,190.44a66,66,0,0,1,10.93-1.53c4.34,0,9.45,6.58,9.45,6.58s-8.24.18-12.12.32S166.87,190.44,166.87,190.44Z" style="fill: none; stroke: rgb(146, 227, 169); stroke-linecap: round; stroke-linejoin: round; transform-origin: 177.06px 192.361px;" id="elxmpbnuyuh8s" class="animable"></path><path d="M166.87,190.44s11,.41,18.63,4.19" style="fill: none; stroke: rgb(146, 227, 169); stroke-linecap: round; stroke-linejoin: round; transform-origin: 176.185px 192.535px;" id="el45vkjokgpcs" class="animable"></path><path d="M315.23,182.83s-1.62-7.53-5.15-7.09-.68,9.3-.68,9.3-4.64,1.32-4.42,3.31,3.52.33,6.38-.11c0,0-1.15,5.17,1.94,6s2.5-6.82,2.5-6.82,6.9,1.41,8.84-1.68C326.89,182.19,318.1,182.38,315.23,182.83Z" style="fill: none; stroke: rgb(146, 227, 169); stroke-linecap: round; stroke-linejoin: round; transform-origin: 314.988px 185.012px;" id="elv4hyjqejgrq" class="animable"></path><path d="M315.23,180.51s-6.44,9.79-6.06,10.82,7.35-8.5,8.51-9.66S316.78,178.83,315.23,180.51Z" style="fill: rgb(38, 50, 56); stroke: rgb(146, 227, 169); stroke-linecap: round; stroke-linejoin: round; transform-origin: 313.587px 185.604px;" id="elku5g2z2vl1c" class="animable"></path><path d="M317.68,181.67s4.25-3.87,6.31-2.32-.38,1.8-.64,1.29" style="fill: none; stroke: rgb(146, 227, 169); stroke-linecap: round; stroke-linejoin: round; transform-origin: 321.245px 180.327px;" id="elg0ojfqagik" class="animable"></path><path d="M315.62,179.73s1.16-5.67-.13-6.83-1.81.39-.9,1.29" style="fill: none; stroke: rgb(146, 227, 169); stroke-linecap: round; stroke-linejoin: round; transform-origin: 315.115px 176.108px;" id="el42grxf8dvat" class="animable"></path><path d="M254,135.56c-3.44-5-8.76-.13-10.19,1.36-1.44-1.49-6.76-6.38-10.2-1.36-3.75,5.45,10.07,16.81,10.2,16.76S257.73,141,254,135.56Z" style="fill: none; stroke: rgb(146, 227, 169); stroke-linecap: round; stroke-linejoin: round; transform-origin: 243.802px 142.834px;" id="el154kfwvi9qy" class="animable"></path><path d="M206.27,116.06c-3.56-2.12-5.45,2.41-5.92,3.73-1.31-.51-6-2-6.69,2.06-.76,4.43,11,7.53,11.07,7.46S210.13,118.36,206.27,116.06Z" style="fill: none; stroke: rgb(146, 227, 169); stroke-linecap: round; stroke-linejoin: round; transform-origin: 200.648px 122.407px;" id="elt238bkjobc" class="animable"></path><path d="M173.08,157.3c-4.13-.31-3.81,4.59-3.63,6-1.4.13-6.26.86-5.07,4.82,1.29,4.31,13.21,1.83,13.23,1.74S177.56,157.64,173.08,157.3Z" style="fill: none; stroke: rgb(146, 227, 169); stroke-linecap: round; stroke-linejoin: round; transform-origin: 170.903px 163.969px;" id="elni66cjluvn" class="animable"></path><path d="M304.17,222.08c3.28-2.53-.23-6-1.29-6.88,1-1,4.09-4.82.56-7-3.84-2.35-11.06,7.45-11,7.53S300.61,224.82,304.17,222.08Z" style="fill: none; stroke: rgb(146, 227, 169); stroke-linecap: round; stroke-linejoin: round; transform-origin: 298.989px 215.217px;" id="el6qr85uyavnc" class="animable"></path><path d="M285.05,154.78a34.81,34.81,0,0,1,7.45-5.28" style="fill: none; stroke: rgb(146, 227, 169); stroke-linecap: round; stroke-linejoin: round; transform-origin: 288.775px 152.14px;" id="elij4fyggovve" class="animable"></path><path d="M266.5,195s2.34-19.91,13.3-34.41" style="fill: none; stroke: rgb(146, 227, 169); stroke-linecap: round; stroke-linejoin: round; transform-origin: 273.15px 177.795px;" id="elqu0l5w3sux" class="animable"></path><path d="M236.94,203.45A42.79,42.79,0,0,1,239.5,208" style="fill: none; stroke: rgb(146, 227, 169); stroke-linecap: round; stroke-linejoin: round; transform-origin: 238.22px 205.725px;" id="el2xt239tyi9a" class="animable"></path><path d="M199.71,179.82a16.81,16.81,0,0,0,4.79,2.68c7.91,3,18.95,6,27.54,14.82" style="fill: none; stroke: rgb(146, 227, 169); stroke-linecap: round; stroke-linejoin: round; transform-origin: 215.875px 188.57px;" id="eltp53w4sd78h" class="animable"></path><path d="M196,170.5a9.18,9.18,0,0,0,1,6.13" style="fill: none; stroke: rgb(146, 227, 169); stroke-linecap: round; stroke-linejoin: round; transform-origin: 196.423px 173.565px;" id="eltsmheeki5io" class="animable"></path><path d="M288.41,118.56a27.3,27.3,0,0,0,6.09-8.06" style="fill: none; stroke: rgb(146, 227, 169); stroke-linecap: round; stroke-linejoin: round; transform-origin: 291.455px 114.53px;" id="elsxk8ftpphhg" class="animable"></path><path d="M258.78,147.78a41.61,41.61,0,0,1,6.72-11.28c5.69-6.77,11.82-10,17.27-13.65" style="fill: none; stroke: rgb(146, 227, 169); stroke-linecap: round; stroke-linejoin: round; transform-origin: 270.775px 135.315px;" id="elkqdi0ml5aag" class="animable"></path><path d="M255.5,164a37.93,37.93,0,0,1,.65-7" style="fill: none; stroke: rgb(146, 227, 169); stroke-linecap: round; stroke-linejoin: round; transform-origin: 255.825px 160.5px;" id="elrk82r9y80zl" class="animable"></path><path d="M286.68,204.58c4.16-2.1,10-3.68,17.82-3.08,19.5,1.5,28.5,7.5,37-4" style="fill: none; stroke: rgb(146, 227, 169); stroke-linecap: round; stroke-linejoin: round; transform-origin: 314.09px 201.04px;" id="elcpc6xnhs4t" class="animable"></path><path d="M278,212a17.38,17.38,0,0,1,3.24-3.72" style="fill: none; stroke: rgb(146, 227, 169); stroke-linecap: round; stroke-linejoin: round; transform-origin: 279.62px 210.14px;" id="el37mwbt8gorq" class="animable"></path><path d="M319.46,159.35h-2.67c-1.61,0-4.55-1.87-3.21-3.48s5.88,2.14,5.88,2.14l-4-12.57,8.56-4,3.48,11.77s-5.35-2.14-5.89.26,3.48,2.14,5.89,1.07" style="fill: none; stroke: rgb(146, 227, 169); stroke-linecap: round; stroke-linejoin: round; transform-origin: 320.37px 150.395px;" id="elb3beenk5u8l" class="animable"></path><line x1="316.25" y1="148.11" x2="324.54" y2="144.1" style="fill: none; stroke: rgb(146, 227, 169); stroke-linecap: round; stroke-linejoin: round; transform-origin: 320.395px 146.105px;" id="elyr6xupxp9jr" class="animable"></line><path d="M337.85,155.35h-1.76c-1.07,0-3-1.24-2.13-2.3s3.89,1.41,3.89,1.41l-2.65-8.31,5.66-2.65,2.3,7.78s-3.54-1.41-3.89.18,2.3,1.41,3.89.7" style="fill: none; stroke: rgb(146, 227, 169); stroke-linecap: round; stroke-linejoin: round; transform-origin: 338.45px 149.425px;" id="elfruu3gb6j6j" class="animable"></path><line x1="335.73" y1="147.92" x2="341.21" y2="145.27" style="fill: none; stroke: rgb(146, 227, 169); stroke-linecap: round; stroke-linejoin: round; transform-origin: 338.47px 146.595px;" id="el385ehbtp3f2" class="animable"></line><path d="M182.35,146.35h-1.76c-1.07,0-3-1.24-2.13-2.3s3.89,1.41,3.89,1.41l-2.65-8.31,5.66-2.65,2.3,7.78s-3.54-1.41-3.89.18,2.3,1.41,3.89.7" style="fill: none; stroke: rgb(146, 227, 169); stroke-linecap: round; stroke-linejoin: round; transform-origin: 182.95px 140.425px;" id="elcyutauhq4ww" class="animable"></path><line x1="180.23" y1="138.92" x2="185.71" y2="136.27" style="fill: none; stroke: rgb(146, 227, 169); stroke-linecap: round; stroke-linejoin: round; transform-origin: 182.97px 137.595px;" id="elhnru0rc1678" class="animable"></line><path d="M350,174.46s7.24-2.18,6.09-6.46c-1-3.62-4.38,0-4.38,0s2.1-3.4-1-5-4,2.78-4,2.78-.62-4.06-3.44-2.19,3.13,11.89,3.13,11.89Z" style="fill: none; stroke: rgb(146, 227, 169); stroke-linecap: round; stroke-linejoin: round; transform-origin: 349.363px 169.064px;" id="elc7yjqnd7kvt" class="animable"></path><path d="M340.72,189.91a38.49,38.49,0,0,0,5.63-14.4l3.08-9.52" style="fill: none; stroke: rgb(146, 227, 169); stroke-linecap: round; stroke-linejoin: round; transform-origin: 345.075px 177.95px;" id="el7wlkbwocu0w" class="animable"></path><path d="M344.47,182.4a8,8,0,0,0-1.25-5.64,22.27,22.27,0,0,0-4.06-5s-.94,3.44-.32,5.63S344.47,182.4,344.47,182.4Z" style="fill: none; stroke: rgb(146, 227, 169); stroke-linecap: round; stroke-linejoin: round; transform-origin: 341.595px 177.08px;" id="elsi32ov5eef8" class="animable"></path><path d="M343.54,184.9a6.47,6.47,0,0,1,4.38-1.56h5.94S346.35,189.28,343.54,184.9Z" style="fill: none; stroke: rgb(146, 227, 169); stroke-linecap: round; stroke-linejoin: round; transform-origin: 348.7px 184.924px;" id="eldtq0eb9bdml" class="animable"></path><polyline points="345.39 167.6 346.33 175 351.58 171.1" style="fill: none; stroke: rgb(146, 227, 169); stroke-linecap: round; stroke-linejoin: round; transform-origin: 348.485px 171.3px;" id="elv8smj6wo0m" class="animable"></polyline><path d="M181.47,206.73s-4.74-5.88-8.27-3.21c-3,2.27,1.65,4.06,1.65,4.06s-3.95-.66-4.22,2.83S174.7,213,174.7,213s-3.53,2.11-.73,4,9.84-7.38,9.84-7.38Z" style="fill: none; stroke: rgb(146, 227, 169); stroke-linecap: round; stroke-linejoin: round; transform-origin: 177.214px 210.039px;" id="elabofivhw28c" class="animable"></path><path d="M199.26,209.48a38.38,38.38,0,0,0-15.45.2l-10,.74" style="fill: none; stroke: rgb(146, 227, 169); stroke-linecap: round; stroke-linejoin: round; transform-origin: 186.535px 209.606px;" id="el33wvn87ksjl" class="animable"></path><path d="M190.89,208.83a8,8,0,0,0-4.75,3.28,22.25,22.25,0,0,0-3.1,5.65s3.54-.42,5.33-1.83S190.89,208.83,190.89,208.83Z" style="fill: none; stroke: rgb(146, 227, 169); stroke-linecap: round; stroke-linejoin: round; transform-origin: 186.965px 213.295px;" id="elr6ii3op3zl" class="animable"></path><path d="M193.56,208.76a6.47,6.47,0,0,1-3.1-3.47c-1.05-2.61-2.23-5.51-2.23-5.51S196.56,204.5,193.56,208.76Z" style="fill: none; stroke: rgb(146, 227, 169); stroke-linecap: round; stroke-linejoin: round; transform-origin: 191.221px 204.27px;" id="ely6ad6wraiw" class="animable"></path><polyline points="176.84 213.55 183.34 209.89 177.75 206.5" style="fill: none; stroke: rgb(146, 227, 169); stroke-linecap: round; stroke-linejoin: round; transform-origin: 180.09px 210.025px;" id="elb5u4qwbqvv8" class="animable"></polyline><path d="M229.84,181.59a21.9,21.9,0,0,0-1-2c-1.79-3.29-4.42-6.18-8.55-5.59-7,1,6,12,8.34,12.33C231.51,186.74,230.77,183.81,229.84,181.59Z" style="fill: rgb(146, 227, 169); transform-origin: 224.456px 180.146px;" id="elz1o3564q8o" class="animable"></path><path d="M224.51,140.26c-.36-.85-.74-1.59-1-2-1.8-3.3-4.42-6.18-8.55-5.59-7,1,6,12,8.34,12.33C226.18,145.41,225.44,142.47,224.51,140.26Z" style="fill: rgb(146, 227, 169); transform-origin: 219.126px 138.816px;" id="ele0wtp1inlbb" class="animable"></path><path d="M294.87,185.65c-.89.26-1.67.56-2.1.73-3.48,1.4-6.65,3.68-6.54,7.85.19,7.07,12.61-4.58,13.21-6.87C300.17,184.59,297.17,185,294.87,185.65Z" style="fill: rgb(146, 227, 169); transform-origin: 292.889px 190.826px;" id="el1lp3gmk2fgq" class="animable"></path><path d="M303.87,148.32a21.32,21.32,0,0,0-2.1.73c-3.48,1.4-6.65,3.67-6.54,7.84.19,7.07,12.61-4.58,13.21-6.86C309.17,147.25,306.17,147.65,303.87,148.32Z" style="fill: rgb(146, 227, 169); transform-origin: 301.889px 153.486px;" id="elgz1hu6lg524" class="animable"></path><path d="M355.12,146a19.41,19.41,0,0,0-2.09.73c-3.48,1.4-6.65,3.67-6.54,7.84.19,7.07,12.61-4.58,13.21-6.86C360.43,144.9,357.43,145.3,355.12,146Z" style="fill: rgb(146, 227, 169); transform-origin: 353.149px 151.155px;" id="elhlzmj6uytoo" class="animable"></path><path d="M214.59,180a10.5,10.5,0,0,0-.47-1c-.87-1.6-2.15-3-4.17-2.73-3.42.49,2.93,5.86,4.07,6C215.41,182.51,215.05,181.08,214.59,180Z" style="fill: rgb(146, 227, 169); transform-origin: 211.975px 179.267px;" id="elpffvv40lma" class="animable"></path><path d="M190.18,154.06c-.34-.29-.68-.53-.86-.66-1.51-1.05-3.28-1.73-4.95-.57-2.84,2,5.24,3.92,6.33,3.56C192,155.94,191.07,154.83,190.18,154.06Z" style="fill: rgb(146, 227, 169); transform-origin: 187.556px 154.329px;" id="elp9xo9gor5w" class="animable"></path><path d="M226.26,166.33a10.08,10.08,0,0,0-.47-1c-.88-1.61-2.16-3-4.17-2.73-3.42.49,2.93,5.85,4.07,6C227.07,168.85,226.71,167.41,226.26,166.33Z" style="fill: rgb(146, 227, 169); transform-origin: 223.641px 165.597px;" id="elvq7lh9anfkq" class="animable"></path><path d="M167.39,143.81a9.37,9.37,0,0,0-.47-1c-.87-1.61-2.15-3-4.17-2.73-3.42.49,2.93,5.86,4.07,6C168.21,146.32,167.85,144.89,167.39,143.81Z" style="fill: rgb(146, 227, 169); transform-origin: 164.775px 143.076px;" id="eljjigtntaatd" class="animable"></path><path d="M183.3,178.84a9.79,9.79,0,0,0-1-.53c-1.64-.8-3.5-1.2-5,.2-2.5,2.39,5.79,3.07,6.81,2.54C185.43,180.41,184.3,179.45,183.3,178.84Z" style="fill: rgb(146, 227, 169); transform-origin: 180.771px 179.401px;" id="elgem0ys7o9t" class="animable"></path><path d="M223.26,127a10.5,10.5,0,0,0-.47-1c-.88-1.6-2.16-3-4.17-2.73-3.42.49,2.93,5.86,4.07,6C224.07,129.51,223.71,128.08,223.26,127Z" style="fill: rgb(146, 227, 169); transform-origin: 220.641px 126.267px;" id="eldxu9gm30q1g" class="animable"></path><path d="M260.87,167.64c-.27.35-.5.69-.62.88-1,1.54-1.61,3.35-.38,5,2.08,2.76,3.72-5.39,3.31-6.47C262.68,165.71,261.6,166.72,260.87,167.64Z" style="fill: rgb(146, 227, 169); transform-origin: 261.214px 170.245px;" id="el73auxnincu" class="animable"></path><path d="M276.87,188.64c-.27.35-.5.69-.62.88-1,1.54-1.61,3.35-.38,5,2.08,2.76,3.72-5.39,3.31-6.47C278.68,186.71,277.6,187.72,276.87,188.64Z" style="fill: rgb(146, 227, 169); transform-origin: 277.214px 191.245px;" id="eloh9oqy76w5" class="animable"></path><path d="M299.15,134a9.89,9.89,0,0,0-1,.33c-1.71.65-3.28,1.73-3.27,3.76,0,3.45,6.2-2.1,6.52-3.21C301.75,133.48,300.29,133.64,299.15,134Z" style="fill: rgb(146, 227, 169); transform-origin: 298.166px 136.478px;" id="el556mty7l4lv" class="animable"></path><path d="M260.53,121.43c-.32.31-.6.61-.75.78-1.21,1.37-2.1,3.06-1.13,4.85,1.63,3,4.49-4.76,4.26-5.88C262.62,119.8,261.39,120.63,260.53,121.43Z" style="fill: rgb(146, 227, 169); transform-origin: 260.58px 124.093px;" id="elzobu8ucs6og" class="animable"></path><path d="M191.58,192a9.56,9.56,0,0,0,.82.7c1.45,1.13,3.19,1.9,4.92.83,2.93-1.81-5-4.19-6.14-3.88C189.83,190,190.73,191.17,191.58,192Z" style="fill: rgb(146, 227, 169); transform-origin: 194.227px 191.832px;" id="elgj4rzr3gje" class="animable"></path><path d="M316.52,134.37c-.44,0-.85,0-1.08,0-1.83.11-3.65.67-4.25,2.61-1,3.3,6.55-.15,7.18-1.11C319.14,134.7,317.7,134.42,316.52,134.37Z" style="fill: rgb(146, 227, 169); transform-origin: 314.843px 136.374px;" id="elt1v2a74vfrj" class="animable"></path></g><defs>     <filter id="active" height="200%">         <feMorphology in="SourceAlpha" result="DILATED" operator="dilate" radius="2"></feMorphology>                <feFlood flood-color="#32DFEC" flood-opacity="1" result="PINK"></feFlood>        <feComposite in="PINK" in2="DILATED" operator="in" result="OUTLINE"></feComposite>        <feMerge>            <feMergeNode in="OUTLINE"></feMergeNode>            <feMergeNode in="SourceGraphic"></feMergeNode>        </feMerge>    </filter>    <filter id="hover" height="200%">        <feMorphology in="SourceAlpha" result="DILATED" operator="dilate" radius="2"></feMorphology>                <feFlood flood-color="#ff0000" flood-opacity="0.5" result="PINK"></feFlood>        <feComposite in="PINK" in2="DILATED" operator="in" result="OUTLINE"></feComposite>        <feMerge>            <feMergeNode in="OUTLINE"></feMergeNode>            <feMergeNode in="SourceGraphic"></feMergeNode>        </feMerge>            <feColorMatrix type="matrix" values="0   0   0   0   0                0   1   0   0   0                0   0   0   0   0                0   0   0   1   0 "></feColorMatrix>    </filter></defs><defs><clipPath id="freepik--clip-path--inject-189"><path d="M254.79,314.84c16.47-.65,21.64-16.5,23.26-25.71-6.87-1.9-10.42-5.25-11.47-7.76s-2.11-14.32-1.69-17.05l-23.57-.64s.63,13.9-2.74,19.79c-1.72,3-5.38,4.38-9.47,5C230.67,295.08,237,315.55,254.79,314.84Z" style="fill:#fff;stroke:#263238;stroke-linecap:round;stroke-linejoin:round"></path></clipPath><clipPath id="freepik--clip-path-2--inject-189"><path d="M252.4,425c-4.46-1.61-12.24-5.71-22.9-16.22C212,391.5,201,377,187.5,371s-26.5,7.25-25.75,21.5,11.25,34.25,42.5,45.75a126.81,126.81,0,0,0,36.26,7.49C251.87,441,252.93,431,252.4,425Z" style="fill:#696969;stroke:#263238;stroke-linecap:round;stroke-linejoin:round"></path></clipPath><clipPath id="freepik--clip-path-3--inject-189"><path d="M250,425c4.45-1.61,12.23-5.71,22.9-16.22,17.5-17.25,28.5-31.75,42-37.75s26.5,7.25,25.75,21.5-11.25,34.25-42.5,45.75a126.8,126.8,0,0,1-36.27,7.49C250.53,441,249.48,431,250,425Z" style="fill:#696969;stroke:#263238;stroke-linecap:round;stroke-linejoin:round"></path></clipPath></defs></svg>