<svg width="200" height="200" viewBox="0 0 200 200" fill="none" xmlns="http://www.w3.org/2000/svg">
<g filter="url(#filter0_d_11_155)">
<path fill-rule="evenodd" clip-rule="evenodd" d="M100 28L127.588 61L113.5 62.5L100 28ZM85 62.5L100 28L72.4118 61L85 62.5Z" fill="url(#paint0_linear_11_155)"/>
<path fill-rule="evenodd" clip-rule="evenodd" d="M85 62.5V172.5H113.5V62.5H85Z" fill="#E6EEEF" fill-opacity="0.52"/>
<path fill-rule="evenodd" clip-rule="evenodd" d="M85 62.5V172.5H113.5V62.5H85Z" fill="#D9D9D9"/>
<path fill-rule="evenodd" clip-rule="evenodd" d="M113.5 62.5H85L100 28L113.5 62.5Z" fill="url(#paint1_linear_11_155)"/>
<path d="M113.5 62.5L127.588 61L130.5 168L113.5 172.5V62.5Z" fill="#D9D9D9"/>
<path d="M113.5 62.5L127.588 61L130.5 168L113.5 172.5V62.5Z" fill="#E6EEEF" fill-opacity="0.52"/>
<path fill-rule="evenodd" clip-rule="evenodd" d="M72.4118 61L85 62.5V172.5L69 168L72.4118 61Z" fill="#D9D9D9"/>
<path fill-rule="evenodd" clip-rule="evenodd" d="M72.4118 61L85 62.5V172.5L69 168L72.4118 61Z" fill="#E6EEEF" fill-opacity="0.52"/>
<path d="M100 28L127.588 61M100 28L113.5 62.5M100 28L85 62.5M100 28L72.4118 61M127.588 61L113.5 62.5M127.588 61L130.5 168L113.5 172.5M113.5 62.5V172.5M113.5 62.5H85M85 62.5L72.4118 61M85 62.5V172.5M72.4118 61L69 168L85 172.5M85 172.5H113.5" stroke="black" stroke-width="1.25" stroke-linecap="round" stroke-linejoin="round"/>
</g>
<path d="M113.37 47.7965L114.538 49.4188L116.348 48.8103L115.259 50.4214L116.427 52.0437L114.587 51.4171L113.498 53.0282L113.449 51.0299L111.608 50.4033L113.419 49.7949L113.37 47.7965Z" fill="#FBFCBC"/>
<defs>
<filter id="filter0_d_11_155" x="64.375" y="27.375" width="70.75" height="153.75" filterUnits="userSpaceOnUse" color-interpolation-filters="sRGB">
<feFlood flood-opacity="0" result="BackgroundImageFix"/>
<feColorMatrix in="SourceAlpha" type="matrix" values="0 0 0 0 0 0 0 0 0 0 0 0 0 0 0 0 0 0 127 0" result="hardAlpha"/>
<feOffset dy="4"/>
<feGaussianBlur stdDeviation="2"/>
<feComposite in2="hardAlpha" operator="out"/>
<feColorMatrix type="matrix" values="0 0 0 0 0 0 0 0 0 0 0 0 0 0 0 0 0 0 0.25 0"/>
<feBlend mode="normal" in2="BackgroundImageFix" result="effect1_dropShadow_11_155"/>
<feBlend mode="normal" in="SourceGraphic" in2="effect1_dropShadow_11_155" result="shape"/>
</filter>
<linearGradient id="paint0_linear_11_155" x1="99.75" y1="28" x2="99.75" y2="172.5" gradientUnits="userSpaceOnUse">
<stop stop-color="white"/>
<stop offset="1" stop-color="#FBFFB1" stop-opacity="0"/>
</linearGradient>
<linearGradient id="paint1_linear_11_155" x1="99.75" y1="28" x2="99.75" y2="172.5" gradientUnits="userSpaceOnUse">
<stop stop-color="white"/>
<stop offset="1" stop-color="#FBFFB1" stop-opacity="0"/>
</linearGradient>
</defs>
</svg>
