<svg width="200" height="200" viewBox="0 0 200 200" fill="none" xmlns="http://www.w3.org/2000/svg">
<g filter="url(#filter0_di_11_152)">
<path fill-rule="evenodd" clip-rule="evenodd" d="M91 93C132.267 93.6992 154.44 99.4033 194.5 104L156.5 158.5L145.5 161.322L99.5 173.125L119 139L99.5 118.5L91 93Z" fill="#252525" fill-opacity="0.93" shape-rendering="crispEdges"/>
<path fill-rule="evenodd" clip-rule="evenodd" d="M52.5 40.5L80.5 27L99.5 14.5L119 24L194.5 104C181.591 102.519 170.539 100.922 160.107 99.4157C138.167 96.2467 118.969 93.4739 91 93L79.2667 77L71 70.5L59 56L52.5 40.5Z" fill="#050505" shape-rendering="crispEdges"/>
<path fill-rule="evenodd" clip-rule="evenodd" d="M119 139L99.5 173.125L80.5 178L44 151C44 151 42.2861 138.559 38.9667 124.5C33.1088 120.204 20.5 104 20.5 104L30 75.5L52.5 40.5L59 56L71 70.5L79.2667 77L91 93L99.5 118.5L119 139Z" fill="#1C1A1A" shape-rendering="crispEdges"/>
<path d="M91 93C132.267 93.6992 154.44 99.4033 194.5 104M91 93L99.5 118.5L119 139M91 93C118.969 93.4739 138.167 96.2467 160.107 99.4157C170.539 100.922 181.591 102.519 194.5 104M91 93L79.2667 77L71 70.5L59 56L52.5 40.5M194.5 104L156.5 158.5L145.5 161.322L99.5 173.125M194.5 104L119 24L99.5 14.5L80.5 27L52.5 40.5M99.5 173.125L119 139M99.5 173.125L80.5 178L44 151C44 151 42.2861 138.559 38.9667 124.5C33.1088 120.204 20.5 104 20.5 104L30 75.5L52.5 40.5M119 139H170.096" stroke="black" stroke-width="1.25" shape-rendering="crispEdges"/>
</g>
<g filter="url(#filter1_di_11_152)">
<path d="M71.5272 71C75.9976 102.407 47.5071 94.5556 39 124" stroke="black" stroke-width="1.25"/>
</g>
<defs>
<filter id="filter0_di_11_152" x="15.8013" y="9.78229" width="183.502" height="172.897" filterUnits="userSpaceOnUse" color-interpolation-filters="sRGB">
<feFlood flood-opacity="0" result="BackgroundImageFix"/>
<feColorMatrix in="SourceAlpha" type="matrix" values="0 0 0 0 0 0 0 0 0 0 0 0 0 0 0 0 0 0 127 0" result="hardAlpha"/>
<feOffset/>
<feGaussianBlur stdDeviation="2"/>
<feComposite in2="hardAlpha" operator="out"/>
<feColorMatrix type="matrix" values="0 0 0 0 0 0 0 0 0 0 0 0 0 0 0 0 0 0 0.25 0"/>
<feBlend mode="normal" in2="BackgroundImageFix" result="effect1_dropShadow_11_152"/>
<feBlend mode="normal" in="SourceGraphic" in2="effect1_dropShadow_11_152" result="shape"/>
<feColorMatrix in="SourceAlpha" type="matrix" values="0 0 0 0 0 0 0 0 0 0 0 0 0 0 0 0 0 0 127 0" result="hardAlpha"/>
<feOffset dx="1" dy="4"/>
<feGaussianBlur stdDeviation="1"/>
<feComposite in2="hardAlpha" operator="arithmetic" k2="-1" k3="1"/>
<feColorMatrix type="matrix" values="0 0 0 0 1 0 0 0 0 1 0 0 0 0 1 0 0 0 0.5 0"/>
<feBlend mode="normal" in2="shape" result="effect2_innerShadow_11_152"/>
</filter>
<filter id="filter1_di_11_152" x="34.3996" y="66.9119" width="42.2254" height="61.2615" filterUnits="userSpaceOnUse" color-interpolation-filters="sRGB">
<feFlood flood-opacity="0" result="BackgroundImageFix"/>
<feColorMatrix in="SourceAlpha" type="matrix" values="0 0 0 0 0 0 0 0 0 0 0 0 0 0 0 0 0 0 127 0" result="hardAlpha"/>
<feOffset/>
<feGaussianBlur stdDeviation="2"/>
<feComposite in2="hardAlpha" operator="out"/>
<feColorMatrix type="matrix" values="0 0 0 0 0 0 0 0 0 0 0 0 0 0 0 0 0 0 0.25 0"/>
<feBlend mode="normal" in2="BackgroundImageFix" result="effect1_dropShadow_11_152"/>
<feBlend mode="normal" in="SourceGraphic" in2="effect1_dropShadow_11_152" result="shape"/>
<feColorMatrix in="SourceAlpha" type="matrix" values="0 0 0 0 0 0 0 0 0 0 0 0 0 0 0 0 0 0 127 0" result="hardAlpha"/>
<feOffset dx="1" dy="4"/>
<feGaussianBlur stdDeviation="1"/>
<feComposite in2="hardAlpha" operator="arithmetic" k2="-1" k3="1"/>
<feColorMatrix type="matrix" values="0 0 0 0 1 0 0 0 0 1 0 0 0 0 1 0 0 0 0.5 0"/>
<feBlend mode="normal" in2="shape" result="effect2_innerShadow_11_152"/>
</filter>
</defs>
</svg>
