<svg width="200" height="200" viewBox="0 0 200 200" fill="none" xmlns="http://www.w3.org/2000/svg">
<g filter="url(#filter0_di_11_153)">
<g filter="url(#filter1_d_11_153)">
<path d="M133 30L162.5 47.5L131.75 40.75L101 34L133 30Z" fill="#BA2222"/>
<path fill-rule="evenodd" clip-rule="evenodd" d="M190.5 124.5L168.5 104L162.5 47.5C179.89 54.383 182.842 75.705 186.002 98.53C187.867 111.353 189.367 120.353 190.5 124.5Z" fill="#A51C1C"/>
<path fill-rule="evenodd" clip-rule="evenodd" d="M101 34L131.75 40.75L162.5 47.5L168.5 104L190.5 124.5L168.5 169L150 163L130.5 159L117 148L96 153.5L72 163L50 153.5L29 138L19 122L12.5 117.5L10 101.5L12.5 86.5L22 76L62 66L94.5 40.5L101 34Z" fill="#B91919"/>
<path d="M162.5 47.5L133 30L101 34M162.5 47.5L168.5 104L190.5 124.5M162.5 47.5C179.89 54.383 182.842 75.705 186.002 98.53C187.867 111.353 189.367 120.353 190.5 124.5M162.5 47.5L131.75 40.75L101 34M101 34L94.5 40.5L62 66L22 76L12.5 86.5L10 101.5L12.5 117.5L19 122L29 138L50 153.5L72 163L96 153.5L117 148L130.5 159L150 163L168.5 169L190.5 124.5" stroke="black" stroke-width="1.25" stroke-linecap="round" stroke-linejoin="round"/>
</g>
<path d="M162.5 47.5L101 34L94 41L62 66L22 76L12.5 86.5C38.164 99.438 52.686 106.534 86 110.5L101.5 116.136L117 121.773L168.5 103.5L162.5 47.5Z" fill="#CE2C2C" stroke="black" stroke-width="1.25" stroke-linecap="round" stroke-linejoin="round"/>
<path d="M168.5 103.5L190.5 124.5L168.5 169L130.5 138L117 121.773L168.5 103.5Z" fill="#920707" stroke="black" stroke-width="1.25" stroke-linecap="round" stroke-linejoin="round"/>
<path d="M117 121.773L130.5 138" stroke="black" stroke-width="1.25" stroke-linecap="round" stroke-linejoin="round"/>
</g>
<defs>
<filter id="filter0_di_11_153" x="5.375" y="29.375" width="189.75" height="148.25" filterUnits="userSpaceOnUse" color-interpolation-filters="sRGB">
<feFlood flood-opacity="0" result="BackgroundImageFix"/>
<feColorMatrix in="SourceAlpha" type="matrix" values="0 0 0 0 0 0 0 0 0 0 0 0 0 0 0 0 0 0 127 0" result="hardAlpha"/>
<feOffset dy="4"/>
<feGaussianBlur stdDeviation="2"/>
<feComposite in2="hardAlpha" operator="out"/>
<feColorMatrix type="matrix" values="0 0 0 0 0 0 0 0 0 0 0 0 0 0 0 0 0 0 0.25 0"/>
<feBlend mode="normal" in2="BackgroundImageFix" result="effect1_dropShadow_11_153"/>
<feBlend mode="normal" in="SourceGraphic" in2="effect1_dropShadow_11_153" result="shape"/>
<feColorMatrix in="SourceAlpha" type="matrix" values="0 0 0 0 0 0 0 0 0 0 0 0 0 0 0 0 0 0 127 0" result="hardAlpha"/>
<feOffset dy="4"/>
<feGaussianBlur stdDeviation="2"/>
<feComposite in2="hardAlpha" operator="arithmetic" k2="-1" k3="1"/>
<feColorMatrix type="matrix" values="0 0 0 0 0 0 0 0 0 0 0 0 0 0 0 0 0 0 0.25 0"/>
<feBlend mode="normal" in2="shape" result="effect2_innerShadow_11_153"/>
</filter>
<filter id="filter1_d_11_153" x="5.375" y="29.375" width="189.75" height="148.25" filterUnits="userSpaceOnUse" color-interpolation-filters="sRGB">
<feFlood flood-opacity="0" result="BackgroundImageFix"/>
<feColorMatrix in="SourceAlpha" type="matrix" values="0 0 0 0 0 0 0 0 0 0 0 0 0 0 0 0 0 0 127 0" result="hardAlpha"/>
<feOffset dy="4"/>
<feGaussianBlur stdDeviation="2"/>
<feComposite in2="hardAlpha" operator="out"/>
<feColorMatrix type="matrix" values="0 0 0 0 0 0 0 0 0 0 0 0 0 0 0 0 0 0 0.25 0"/>
<feBlend mode="normal" in2="BackgroundImageFix" result="effect1_dropShadow_11_153"/>
<feBlend mode="normal" in="SourceGraphic" in2="effect1_dropShadow_11_153" result="shape"/>
</filter>
</defs>
</svg>
