<svg width="24" height="24" viewBox="0 0 24 24" fill="none" xmlns="http://www.w3.org/2000/svg">
<g clip-path="url(#clip0_53_77)">
<rect width="24" height="24" fill="white"/>
<path d="M10 14.66V16.286C9.99622 16.6287 9.90448 16.9646 9.73358 17.2615C9.56268 17.5585 9.31834 17.8066 9.024 17.982C8.39914 18.4448 7.89084 19.047 7.53948 19.7407C7.18813 20.4344 7.00341 21.2005 7 21.978" stroke="black" stroke-width="1.25" stroke-linecap="round" stroke-linejoin="round"/>
<path d="M14 14.66V16.286C14.0038 16.6287 14.0955 16.9646 14.2664 17.2615C14.4373 17.5585 14.6817 17.8066 14.976 17.982C15.6009 18.4448 16.1092 19.047 16.4605 19.7407C16.8119 20.4344 16.9966 21.2005 17 21.978" stroke="black" stroke-width="1.25" stroke-linecap="round" stroke-linejoin="round"/>
<path d="M18 9H19.5C20.163 9 20.7989 8.73661 21.2678 8.26777C21.7366 7.79893 22 7.16304 22 6.5C22 5.83696 21.7366 5.20107 21.2678 4.73223C20.7989 4.26339 20.163 4 19.5 4H18" stroke="black" stroke-width="1.25" stroke-linecap="round" stroke-linejoin="round"/>
<path d="M4 22H20" stroke="black" stroke-width="1.25" stroke-linecap="round" stroke-linejoin="round"/>
<path fill-rule="evenodd" clip-rule="evenodd" d="M7 22H17L16.5 20L15.5 18.5L14.5 17L14 15H10L9.5 17L8 19L7 22Z" fill="#E4AA0C" stroke="black"/>
<path d="M6 9C6 10.5913 6.63214 12.1174 7.75736 13.2426C8.88258 14.3679 10.4087 15 12 15C13.5913 15 15.1174 14.3679 16.2426 13.2426C17.3679 12.1174 18 10.5913 18 9V3C18 2.73478 17.8946 2.48043 17.7071 2.29289C17.5196 2.10536 17.2652 2 17 2H7C6.73478 2 6.48043 2.10536 6.29289 2.29289C6.10536 2.48043 6 2.73478 6 3V9Z" fill="#E4AA0C" stroke="black" stroke-width="1.25" stroke-linecap="round" stroke-linejoin="round"/>
<path d="M6 9H4.5C3.83696 9 3.20107 8.73661 2.73223 8.26777C2.26339 7.79893 2 7.16304 2 6.5C2 5.83696 2.26339 5.20107 2.73223 4.73223C3.20107 4.26339 3.83696 4 4.5 4H6" stroke="black" stroke-width="1.25" stroke-linecap="round" stroke-linejoin="round"/>
</g>
<defs>
<clipPath id="clip0_53_77">
<rect width="24" height="24" fill="white"/>
</clipPath>
</defs>
</svg>
