<svg width="24" height="24" viewBox="0 0 24 24" fill="none" xmlns="http://www.w3.org/2000/svg">
<g clip-path="url(#clip0_54_208)">
<rect width="24" height="24" fill="white"/>
<path d="M2.992 16.3419C3.13904 16.7129 3.17177 17.1193 3.086 17.5089L2.021 20.7989C1.98668 20.9658 1.99555 21.1386 2.04677 21.3011C2.09799 21.4635 2.18986 21.6102 2.31366 21.7272C2.43747 21.8442 2.58911 21.9276 2.7542 21.9696C2.91929 22.0115 3.09236 22.0106 3.257 21.9669L6.67 20.9689C7.03771 20.896 7.41852 20.9279 7.769 21.0609C9.90438 22.0582 12.3234 22.2691 14.5991 21.6567C16.8749 21.0442 18.8613 19.6476 20.2077 17.7133C21.5541 15.779 22.1741 13.4313 21.9583 11.0845C21.7425 8.73763 20.7047 6.54241 19.0281 4.88613C17.3514 3.22986 15.1437 2.21898 12.7944 2.03183C10.4451 1.84469 8.10513 2.49332 6.18744 3.86328C4.26975 5.23323 2.89753 7.23648 2.31289 9.51958C1.72825 11.8027 1.96877 14.2189 2.992 16.3419Z" stroke="black" stroke-width="1.25" stroke-linecap="round" stroke-linejoin="round"/>
<path d="M12 8V12" stroke="#FF0000" stroke-width="1.25" stroke-linecap="round" stroke-linejoin="round"/>
<path d="M12 16H12.01Z" fill="#FF0000"/>
<path d="M12 16H12.01" stroke="#FF0000" stroke-width="1.25" stroke-linecap="round" stroke-linejoin="round"/>
</g>
<defs>
<clipPath id="clip0_54_208">
<rect width="24" height="24" fill="white"/>
</clipPath>
</defs>
</svg>
