<svg width="24" height="24" viewBox="0 0 24 24" fill="none" xmlns="http://www.w3.org/2000/svg">
<g clip-path="url(#clip0_54_206)">
<rect width="24" height="24" fill="white"/>
<path d="M7 10V7C7 5.67392 7.52678 4.40215 8.46447 3.46447C9.40215 2.52678 10.6739 2 12 2C13.3261 2 14.5979 2.52678 15.5355 3.46447C16.4732 4.40215 17 5.67392 17 7V10" stroke="black" stroke-width="1.25" stroke-linecap="round" stroke-linejoin="round"/>
<path d="M19 9.375C20.4497 9.375 21.625 10.5503 21.625 12V20C21.625 21.4497 20.4497 22.625 19 22.625H5C3.55025 22.625 2.375 21.4497 2.375 20V12C2.375 10.5503 3.55025 9.375 5 9.375H19ZM12 14C11.4477 14 11 14.8954 11 16C11 17.1046 11.4477 18 12 18C12.5523 18 13 17.1046 13 16C13 14.8954 12.5523 14 12 14Z" fill="#E3D10E"/>
<path d="M19 9.375V9.875C20.1736 9.875 21.125 10.8264 21.125 12H21.625H22.125C22.125 10.2741 20.7259 8.875 19 8.875V9.375ZM21.625 12H21.125V20H21.625H22.125V12H21.625ZM21.625 20H21.125C21.125 21.1736 20.1736 22.125 19 22.125V22.625V23.125C20.7259 23.125 22.125 21.7259 22.125 20H21.625ZM19 22.625V22.125H5V22.625V23.125H19V22.625ZM5 22.625V22.125C3.82639 22.125 2.875 21.1736 2.875 20H2.375H1.875C1.875 21.7259 3.27411 23.125 5 23.125V22.625ZM2.375 20H2.875V12H2.375H1.875V20H2.375ZM2.375 12H2.875C2.875 10.8264 3.82639 9.875 5 9.875V9.375V8.875C3.27411 8.875 1.875 10.2741 1.875 12H2.375ZM5 9.375V9.875H19V9.375V8.875H5V9.375ZM12 14V13.5C11.4324 13.5 11.0532 13.9471 10.8457 14.3622C10.6232 14.8072 10.5 15.3869 10.5 16H11H11.5C11.5 15.5085 11.6007 15.0883 11.7401 14.8094C11.8098 14.6701 11.8798 14.5845 11.9337 14.5389C11.9595 14.5171 11.978 14.5074 11.9878 14.5034C11.9927 14.5014 11.9958 14.5006 11.9973 14.5003C11.9987 14.5 11.9995 14.5 12 14.5V14ZM11 16H10.5C10.5 16.6131 10.6232 17.1928 10.8457 17.6378C11.0532 18.0529 11.4324 18.5 12 18.5V18V17.5C11.9995 17.5 11.9987 17.5 11.9973 17.4997C11.9958 17.4994 11.9927 17.4986 11.9878 17.4966C11.978 17.4926 11.9595 17.4829 11.9337 17.4611C11.8798 17.4155 11.8098 17.3299 11.7401 17.1906C11.6007 16.9117 11.5 16.4915 11.5 16H11ZM12 18V18.5C12.5676 18.5 12.9468 18.0529 13.1543 17.6378C13.3768 17.1928 13.5 16.6131 13.5 16H13H12.5C12.5 16.4915 12.3993 16.9117 12.2599 17.1906C12.1902 17.3299 12.1202 17.4155 12.0663 17.4611C12.0405 17.4829 12.022 17.4926 12.0122 17.4966C12.0073 17.4986 12.0042 17.4994 12.0027 17.4997C12.0013 17.5 12.0005 17.5 12 17.5V18ZM13 16H13.5C13.5 15.3869 13.3768 14.8072 13.1543 14.3622C12.9468 13.9471 12.5676 13.5 12 13.5V14V14.5C12.0005 14.5 12.0013 14.5 12.0027 14.5003C12.0042 14.5006 12.0073 14.5014 12.0122 14.5034C12.022 14.5074 12.0405 14.5171 12.0663 14.5389C12.1202 14.5845 12.1902 14.6701 12.2599 14.8094C12.3993 15.0883 12.5 15.5085 12.5 16H13Z" fill="black"/>
</g>
<defs>
<clipPath id="clip0_54_206">
<rect width="24" height="24" fill="white"/>
</clipPath>
</defs>
</svg>
