<svg width="24" height="24" viewBox="0 0 24 24" fill="none" xmlns="http://www.w3.org/2000/svg">
<g clip-path="url(#clip0_53_75)">
<rect width="24" height="24" fill="white"/>
<path d="M12 7V18" stroke="black" stroke-width="1.25" stroke-linecap="round" stroke-linejoin="round"/>
<path d="M16 12H18" stroke="black" stroke-width="1.25" stroke-linecap="round" stroke-linejoin="round"/>
<path d="M16 8H18" stroke="black" stroke-width="1.25" stroke-linecap="round" stroke-linejoin="round"/>
<path d="M2.29289 17.7071C2.48043 17.8946 2.73478 18 3 18H9C9.79565 18 11 19 12 19C13 19 14.2044 18 15 18H21C21.2652 18 21.5196 17.8946 21.7071 17.7071C21.8946 17.5196 22 17.2652 22 17V4C22 3.73478 21.8946 3.48043 21.7071 3.29289C21.5196 3.10536 21.2652 3 21 3H16C14.9391 3 13.9217 3.42143 13.1716 4.17157C12.4214 4.92172 12 5.93913 12 7C12 5.93913 11.5786 4.92172 10.8284 4.17157C10.0783 3.42143 9.06087 3 8 3H3C2.73478 3 2.48043 3.10536 2.29289 3.29289C2.10536 3.48043 2 3.73478 2 4V17C2 17.2652 2.10536 17.5196 2.29289 17.7071Z" stroke="black" stroke-width="1.25" stroke-linecap="round" stroke-linejoin="round"/>
<path d="M6 12H8" stroke="black" stroke-width="1.25" stroke-linecap="round" stroke-linejoin="round"/>
<path d="M6 8H8" stroke="black" stroke-width="1.25" stroke-linecap="round" stroke-linejoin="round"/>
<path d="M16 12H18" stroke="black" stroke-width="1.25" stroke-linecap="round" stroke-linejoin="round"/>
<path d="M16 8H18" stroke="black" stroke-width="1.25" stroke-linecap="round" stroke-linejoin="round"/>
</g>
<defs>
<clipPath id="clip0_53_75">
<rect width="24" height="24" fill="white"/>
</clipPath>
</defs>
</svg>
