<svg width="512" height="512" viewBox="0 0 512 512" fill="none" xmlns="http://www.w3.org/2000/svg">
<path d="M427.821 90C427.821 133.078 341.735 168 235.542 168C129.349 168 43.2628 133.078 43.2628 90C43.2628 46.9218 129.349 12 235.542 12C341.735 12 427.821 46.9218 427.821 90Z" fill="#EE9089"/>
<ellipse cx="204.297" cy="255.5" rx="189.876" ry="76.5" fill="#E16F7C"/>
<ellipse cx="247.079" cy="422.5" rx="186.511" ry="76.5" fill="#C45266"/>
<ellipse cx="47.4545" cy="98.4577" rx="47.4545" ry="98.4577" transform="matrix(-0.7534 0.657562 -0.627873 -0.778316 417.772 412.095)" fill="#87BBA2"/>
<ellipse cx="40.0255" cy="110.844" rx="40.0255" ry="110.844" transform="matrix(-0.828663 -0.559748 0.529595 -0.848251 394.596 498.668)" fill="#87BBA2"/>
<path d="M248.658 511.938C201.234 511.024 156.338 503.316 122.652 490.297C86.0539 476.135 63.3037 457.578 56.3797 436.108C54.8411 431.254 54.7312 430.455 54.7312 421.833C54.6762 411.669 55.1708 409.042 58.5778 401.961C65.5567 387.344 78.4705 375.467 99.5722 364.161C115.069 355.938 132.818 349.2 154.14 343.661C154.469 343.547 150.843 343.033 146.172 342.519C116.113 338.979 85.7242 331.499 62.974 322.077C27.0352 307.231 5.21919 287.474 0.823008 265.776C-0.385941 260.066 -0.221084 249.102 1.04282 243.849C5.38404 226.376 20.386 210.788 45.8838 197.312C68.4143 185.435 99.1326 175.956 130.51 171.217C138.808 169.961 139.193 169.847 137.105 169.275C135.896 168.933 131.939 167.848 128.312 166.877C113.31 162.823 90.615 154.315 80.229 148.948C53.5772 135.015 37.3662 117.542 34.1241 99.2698C33.2998 94.4734 33.4097 83.9668 34.3439 79.2274C35.388 74.0884 39.2896 65.8658 43.4659 60.1558C56.9292 41.5409 88.252 23.8967 125.839 13.6186C150.788 6.82355 169.691 3.68301 201.948 0.942164C217.06 -0.314055 254.263 -0.314055 269.539 0.942164C292.894 2.88359 309.929 5.22473 324.766 8.47947C354.825 15.1032 378.4 23.5541 397.578 34.5746C414.613 44.3959 425.934 55.0167 432.748 67.5218C435.55 72.7179 437.254 78.2567 437.968 84.9946C439.397 98.0136 435.66 107.549 424.285 119.426C405.876 138.784 370.707 156.713 329.163 167.905C321.359 170.018 316.743 171.046 300.862 174.243C297.84 174.871 295.862 175.385 296.521 175.385C297.125 175.442 301.961 176.584 307.237 177.955C343.23 187.491 370.047 200.624 386.753 216.841C400.216 229.917 406.316 245.277 404.447 261.208C403.788 266.918 401.864 273.599 399.721 277.596C391.973 292.042 378.235 303.919 355.979 315.397L349.055 318.994L355.1 325.675C362.134 333.44 368.179 341.435 373.124 349.257L376.586 354.796L377.685 352.912C384.939 340.521 392.962 330.014 403.623 318.994C425.219 296.725 449.288 283.192 477.973 277.082C484.348 275.711 487.26 275.883 489.458 277.881C490.777 279.08 490.887 279.709 491.656 287.703C492.646 298.266 492.316 325.446 491.052 335.211C487.205 364.903 478.633 391.969 465.939 414.524C448.959 444.616 425.439 468.198 399.227 481.503C391.369 485.443 382.631 489.04 375.322 491.21C373.124 491.895 370.487 493.094 369.498 493.837C367.519 495.436 357.518 498.234 339.604 502.345C309.49 509.14 277.947 512.509 248.658 511.938ZM285.201 496.692C304.379 494.922 330.811 490.296 347.022 485.9L349.77 485.157L349.55 476.592C349.44 471.91 349.22 466.942 349 465.572L348.671 463.059L343.725 461.004C310.699 447.185 281.024 416.808 263.879 379.292C259.868 370.613 256.021 360.563 253.493 352.17C252.449 348.743 251.515 345.831 251.405 345.717C250.911 345.146 215.137 347.373 206.07 348.515C197.717 349.6 174.637 353.483 167.768 355.025C154.03 358.051 132.763 364.789 121.828 369.642C92.2086 382.718 74.5689 397.622 69.1286 414.067C65.1171 426.172 71.4916 440.447 86.5485 453.295C107.32 470.996 144.908 485.329 189.309 492.581C199.585 494.294 224.039 496.92 236.293 497.72C244.042 498.176 276.079 497.491 285.201 496.692ZM378.894 474.48C389.72 470.311 396.424 466.714 406.59 459.69C437.089 438.506 461.048 402.19 472.038 360.506C477.039 341.606 478.853 327.388 478.907 307.231C478.907 299.18 478.743 292.442 478.523 292.214C477.589 291.243 458.465 298.095 450.607 302.206C445.936 304.662 435.715 311.057 431.649 314.083C430.165 315.225 425.934 318.766 422.307 321.963C395.765 345.26 376.861 378.379 367.904 417.265C364.552 431.711 362.409 448.613 362.793 457.464L362.958 461.746L373.069 446.329C378.675 437.878 385.379 427.771 387.962 423.831C392.797 416.636 406.425 395.909 445.826 336.124C451.212 327.902 455.003 322.648 455.882 322.249C459.015 320.821 464.84 321.963 465.664 324.19C465.829 324.704 465.994 326.76 465.994 328.758C465.994 332.184 465.829 332.641 463.081 336.867C454.783 349.543 426.483 392.483 414.064 411.269C374.114 471.567 370.267 477.62 371.641 477.22C372.3 476.992 375.597 475.793 378.894 474.48ZM349.495 447.014C349.495 445.244 350.869 433.31 351.693 427.942L352.792 420.919L347.627 414.524C344.769 410.983 335.757 399.906 327.514 389.856C319.326 379.806 310.259 368.786 307.456 365.303C304.654 361.877 297.62 353.254 291.795 346.174C286.025 339.093 281.024 332.755 280.75 332.013C279.925 329.9 280.145 325.161 281.134 323.619C282.014 322.192 284.816 321.05 287.399 321.05C290.092 321.05 292.4 323.162 300.038 332.641C304.269 337.894 312.897 348.458 319.161 356.052C333.339 373.297 343.615 385.973 351.198 395.338L357.078 402.59L358.013 399.106C359.386 393.967 364.112 380.891 366.585 375.352L368.728 370.556L366.97 367.358C366.036 365.588 363.508 361.477 361.365 358.165C346.473 335.268 326.525 316.481 304.984 305.118C291.026 297.695 269.924 291.414 258.934 291.357C256.791 291.357 256.626 291.471 256.846 292.67C257.01 293.356 257.285 296.61 257.45 299.922C258.219 313.969 262.066 332.869 267.341 349.029C276.793 377.694 290.531 400.591 309.874 419.948C320.205 430.341 331.745 438.792 344.055 444.958C348.341 447.128 349.495 447.528 349.495 447.014ZM240.58 330.814C244.316 330.528 247.449 330.186 247.559 330.071C247.668 329.957 247.394 328.073 246.954 325.903C245.196 317.281 243.932 304.376 243.602 292.499C243.327 280.451 243.327 280.165 244.536 278.681L245.69 277.082H253.274C280.695 277.082 308.061 286.732 332.844 305.176L336.801 308.088L342.791 305.404C364.497 295.64 381.752 281.479 388.016 268.231C392.413 258.867 392.248 252.015 387.357 242.193C377.576 222.722 348.176 204.621 307.731 193.258C287.179 187.434 267.341 183.893 241.514 181.324C227.006 179.896 223.489 179.782 202.223 179.782C181.011 179.782 177.44 179.896 163.207 181.324C115.343 186.063 77.866 196.284 49.4557 212.33C30.0576 223.236 17.3087 236.826 14.0115 250.016C12.9675 254.242 12.9675 256.411 14.0665 261.037C20.8806 289.872 68.9088 315.853 134.906 326.417C145.512 328.13 167.878 330.585 181.616 331.556C187.276 331.956 233.491 331.385 240.58 330.814ZM261.022 165.164C310.754 161.11 358.507 146.664 392.687 125.422C410.162 114.516 423.406 100.298 424.615 91.1044C425.329 85.6798 421.372 75.573 415.767 68.6067C409.063 60.1557 397.908 51.5906 384.28 44.3959C356.474 29.6639 320.645 20.2994 275.035 15.7313C260.472 14.3038 257.12 14.1896 235.744 14.1896C214.532 14.1896 210.96 14.3038 196.563 15.7313C151.392 20.2423 116.113 29.3784 88.1971 43.9391C77.5363 49.4779 71.8213 53.3036 64.3478 59.8131C55.8302 67.1792 49.5656 76.3153 47.5324 84.3665C46.4883 88.6491 46.4883 90.7618 47.5874 95.4441C54.4014 124.28 102.045 150.032 168.482 160.825C178.593 162.48 201.838 164.993 215.686 165.964C221.401 166.363 253.274 165.792 261.022 165.164Z" fill="black"/>
<path d="M131.609 463.745C117.706 461.232 106.606 456.093 96.8795 447.642C87.5926 439.534 80.7785 425.601 80.7785 414.524C80.7785 411.612 80.9983 410.983 82.3721 409.499C83.8009 408.014 84.3504 407.843 87.3728 407.843C90.3402 407.843 90.9447 408.014 92.3185 409.442C93.4175 410.584 93.967 411.897 94.2418 413.896C96.0003 426.401 106.111 438.849 119.245 444.673C132.708 450.669 144.743 452.439 157.876 450.326C164.965 449.241 167.658 449.584 169.526 451.868C170.57 453.238 170.9 454.266 170.9 456.379C170.9 459.976 170.076 461.86 167.933 462.831C163.262 465.115 141.995 465.629 131.609 463.745Z" fill="black"/>
<path d="M85.1747 297.695C77.1517 296.211 74.6788 295.468 68.8539 293.07C48.7963 284.562 35.333 267.832 34.234 249.845C33.9043 245.22 33.9592 245.163 35.6078 243.45C37.0915 241.851 37.641 241.679 40.6634 241.679C43.6858 241.679 44.2353 241.851 45.664 243.335C46.5433 244.249 47.2577 245.505 47.2577 246.076C47.2577 248.36 49.0161 254.127 50.8845 257.953C54.2366 264.748 57.6436 268.688 64.5676 273.599C76.767 282.278 96.1102 286.732 110.563 284.277C119.685 282.735 121.773 283.078 123.421 286.332C124.685 288.845 124.246 293.87 122.652 295.525C120.949 297.239 114.574 298.152 101.66 298.495C92.7581 298.723 89.9555 298.552 85.1747 297.695Z" fill="black"/>
<path d="M126.938 131.817C112.761 129.533 104.408 126.393 94.6265 119.826C81.328 110.861 73.4149 97.8994 72.7005 84.081C72.4258 79.2275 72.5357 78.4851 73.5248 77.2289C74.459 76.0298 75.1734 75.8014 78.3606 75.6301C83.5811 75.3446 84.3504 76.0298 86.0539 82.8248C90.3952 100.183 101.715 110.519 123.092 116.514C127.708 117.828 129.411 117.999 137.929 117.999C143.204 118.056 149.689 117.828 152.271 117.542C160.239 116.686 162.108 117.885 162.108 123.937C162.108 128.163 161.613 129.362 159.525 130.276C155.074 132.103 134.852 133.074 126.938 131.817Z" fill="black"/>
</svg>
