<svg width="192" height="192" viewBox="0 0 192 192" fill="none" xmlns="http://www.w3.org/2000/svg">
<path d="M160.433 33.75C160.433 49.9043 128.151 63 88.3283 63C48.506 63 16.2236 49.9043 16.2236 33.75C16.2236 17.5957 48.506 4.5 88.3283 4.5C128.151 4.5 160.433 17.5957 160.433 33.75Z" fill="#EE9089"/>
<ellipse cx="76.6113" cy="95.8125" rx="71.2034" ry="28.6875" fill="#E16F7C"/>
<ellipse cx="92.6546" cy="158.438" rx="69.9416" ry="28.6875" fill="#C45266"/>
<ellipse cx="17.7954" cy="36.9216" rx="17.7954" ry="36.9216" transform="matrix(-0.7534 0.657562 -0.627873 -0.778316 156.664 154.536)" fill="#87BBA2"/>
<ellipse cx="15.0095" cy="41.5663" rx="15.0095" ry="41.5663" transform="matrix(-0.828663 -0.559748 0.529595 -0.848251 147.973 187)" fill="#87BBA2"/>
<path d="M93.2466 191.977C75.4627 191.634 58.6267 188.743 45.9945 183.861C32.2702 178.551 23.7389 171.592 21.1424 163.54C20.5654 161.72 20.5242 161.421 20.5242 158.187C20.5036 154.376 20.689 153.391 21.9667 150.736C24.5838 145.254 29.4264 140.8 37.3396 136.56C43.1508 133.477 49.8069 130.95 57.8024 128.873C57.9261 128.83 56.566 128.638 54.8144 128.445C43.5423 127.117 32.1466 124.312 23.6152 120.779C10.1382 115.212 1.9572 107.803 0.308628 99.666C-0.144728 97.5247 -0.0829064 93.4134 0.391057 91.4435C2.01902 84.8911 7.64475 79.0454 17.2064 73.992C25.6553 69.5381 37.1747 65.9836 48.9414 64.2063C52.053 63.7353 52.1973 63.6924 51.4142 63.4783C50.9609 63.3498 49.4771 62.943 48.1171 62.579C42.4913 61.0587 33.9806 57.8682 30.0859 55.8553C20.0914 50.6306 14.0123 44.0783 12.7965 37.2262C12.4874 35.4275 12.5286 31.4876 12.879 29.7103C13.2705 27.7831 14.7336 24.6997 16.2997 22.5584C21.3485 15.5778 33.0945 8.96127 47.1898 5.10696C56.5454 2.55883 63.6342 1.38113 75.7306 0.353312C81.3975 -0.117771 95.3485 -0.117771 101.077 0.353312C109.835 1.08135 116.224 1.95927 121.787 3.1798C133.06 5.66369 141.9 8.83279 149.092 12.9655C155.48 16.6485 159.725 20.6313 162.28 25.3207C163.331 27.2692 163.97 29.3463 164.238 31.873C164.774 36.7551 163.373 40.331 159.107 44.7849C152.203 52.0439 139.015 58.7675 123.436 62.9644C120.51 63.7567 118.779 64.1421 112.823 65.3412C111.69 65.5768 110.948 65.7695 111.195 65.7695C111.422 65.7909 113.235 66.2191 115.214 66.7331C128.711 70.309 138.768 75.234 145.032 81.3152C150.081 86.2187 152.368 91.9788 151.668 97.953C151.42 100.094 150.699 102.6 149.895 104.098C146.99 109.516 141.838 113.97 133.492 118.274L130.896 119.623L133.163 122.128C135.8 125.04 138.067 128.038 139.922 130.972L141.22 133.049L141.632 132.342C144.352 127.695 147.361 123.755 151.359 119.623C159.457 111.272 168.483 106.197 179.24 103.906C181.63 103.392 182.723 103.456 183.547 104.205C184.041 104.655 184.083 104.891 184.371 107.888C184.742 111.85 184.618 122.042 184.144 125.704C182.702 136.839 179.487 146.988 174.727 155.446C168.359 166.731 159.54 175.574 149.71 180.564C146.763 182.041 143.487 183.39 140.746 184.204C139.922 184.461 138.933 184.91 138.562 185.189C137.82 185.788 134.069 186.838 127.351 188.379C116.059 190.927 104.23 192.191 93.2466 191.977ZM106.95 186.259C114.142 185.596 124.054 183.861 130.133 182.212L131.164 181.934L131.081 178.722C131.04 176.966 130.958 175.103 130.875 174.589L130.751 173.647L128.897 172.876C116.512 167.695 105.384 156.303 98.9548 142.235C97.4505 138.98 96.0079 135.211 95.06 132.064C94.6685 130.779 94.3182 129.687 94.277 129.644C94.0915 129.43 80.6763 130.265 77.2761 130.693C74.1438 131.1 65.4889 132.556 62.913 133.134C57.7612 134.269 49.7863 136.796 45.6854 138.616C34.5782 143.519 27.9633 149.108 25.9232 155.275C24.4189 159.815 26.8093 165.168 32.4557 169.986C40.2452 176.624 54.3404 181.998 70.9909 184.718C74.8445 185.36 84.0146 186.345 88.61 186.645C91.5156 186.816 103.53 186.559 106.95 186.259ZM142.085 177.93C146.145 176.367 148.659 175.018 152.471 172.384C163.908 164.44 172.893 150.821 177.014 135.19C178.89 128.102 179.57 122.77 179.59 115.212C179.59 112.192 179.528 109.666 179.446 109.58C179.096 109.216 171.924 111.786 168.978 113.327C167.226 114.248 163.393 116.646 161.868 117.781C161.312 118.209 159.725 119.537 158.365 120.736C148.412 129.473 141.323 141.892 137.964 156.474C136.707 161.892 135.903 168.23 136.048 171.549L136.109 173.155L139.901 167.373C142.003 164.204 144.517 160.414 145.486 158.937C147.299 156.239 152.41 148.466 167.185 126.047C169.204 122.963 170.626 120.993 170.956 120.843C172.131 120.308 174.315 120.736 174.624 121.571C174.686 121.764 174.748 122.535 174.748 123.284C174.748 124.569 174.686 124.74 173.655 126.325C170.544 131.079 159.931 147.181 155.274 154.226C140.293 176.838 138.85 179.108 139.365 178.958C139.613 178.872 140.849 178.422 142.085 177.93ZM131.061 167.63C131.061 166.966 131.576 162.491 131.885 160.478L132.297 157.845L130.36 155.446C129.288 154.119 125.909 149.965 122.818 146.196C119.747 142.427 116.347 138.295 115.296 136.989C114.245 135.704 111.608 132.47 109.423 129.815C107.259 127.16 105.384 124.783 105.281 124.505C104.972 123.713 105.054 121.935 105.425 121.357C105.755 120.822 106.806 120.394 107.775 120.394C108.784 120.394 109.65 121.186 112.514 124.74C114.101 126.71 117.336 130.672 119.685 133.52C125.002 139.986 128.856 144.74 131.699 148.252L133.904 150.971L134.255 149.665C134.77 147.738 136.542 142.834 137.469 140.757L138.273 138.959L137.614 137.759C137.263 137.096 136.315 135.554 135.512 134.312C129.927 125.725 122.447 118.681 114.369 114.419C109.135 111.636 101.222 109.28 97.1001 109.259C96.2964 109.259 96.2346 109.302 96.3171 109.751C96.3789 110.008 96.4819 111.229 96.5437 112.471C96.8322 117.738 98.2747 124.826 100.253 130.886C103.797 141.635 108.949 150.222 116.203 157.481C120.077 161.378 124.405 164.547 129.021 166.859C130.628 167.673 131.061 167.823 131.061 167.63ZM90.2174 124.055C91.6186 123.948 92.7932 123.82 92.8345 123.777C92.8757 123.734 92.7726 123.027 92.6078 122.214C91.9484 118.98 91.4744 114.141 91.3507 109.687C91.2477 105.169 91.2477 105.062 91.7011 104.505L92.1338 103.906H94.9776C105.261 103.906 115.523 107.524 124.817 114.441L126.3 115.533L128.547 114.526C136.686 110.865 143.157 105.555 145.506 100.587C147.155 97.075 147.093 94.5055 145.259 90.8225C141.591 83.5207 130.566 76.7328 115.399 72.4717C107.692 70.2876 100.253 68.96 90.5677 67.9964C85.1274 67.4611 83.8086 67.4183 75.8336 67.4183C67.8793 67.4183 66.5398 67.4611 61.2026 67.9964C43.2538 69.7737 29.1998 73.6066 18.5459 79.6236C11.2716 83.7134 6.49075 88.8097 5.25433 93.756C4.86279 95.3406 4.86279 96.1543 5.27494 97.8887C7.83022 108.702 25.8408 118.445 50.5899 122.406C54.5671 123.049 62.9542 123.97 68.106 124.334C70.2285 124.483 87.559 124.269 90.2174 124.055ZM97.8832 61.9366C116.533 60.4163 134.44 54.9988 147.258 47.0333C153.811 42.9434 158.777 37.6116 159.231 34.1642C159.498 32.1299 158.015 28.3399 155.913 25.7275C153.399 22.5584 149.215 19.3465 144.105 16.6485C133.678 11.124 120.242 7.61226 103.138 5.89923C97.6771 5.36391 96.4201 5.32109 88.4039 5.32109C80.4496 5.32109 79.1101 5.36391 73.7111 5.89923C56.7721 7.59085 43.5423 11.0169 33.0739 16.4772C29.0761 18.5542 26.933 19.9889 24.1304 22.4299C20.9363 25.1922 18.5871 28.6182 17.8247 31.6374C17.4331 33.2434 17.4331 34.0357 17.8453 35.7915C20.4005 46.605 38.2669 56.2622 63.1809 60.3092C66.9726 60.9302 75.6894 61.8723 80.8823 62.2364C83.0255 62.3863 94.9776 62.1721 97.8832 61.9366Z" fill="black"/>
<path d="M49.3535 173.904C44.1399 172.962 39.9773 171.035 36.3298 167.866C32.8472 164.825 30.2919 159.6 30.2919 155.446C30.2919 154.354 30.3744 154.119 30.8895 153.562C31.4253 153.005 31.6314 152.941 32.7648 152.941C33.8776 152.941 34.1042 153.005 34.6194 153.541C35.0316 153.969 35.2376 154.461 35.3407 155.211C36.0001 159.9 39.7918 164.568 44.7169 166.752C49.7656 169.001 54.2786 169.665 59.2037 168.872C61.862 168.465 62.8717 168.594 63.5724 169.45C63.9639 169.964 64.0876 170.35 64.0876 171.142C64.0876 172.491 63.7784 173.198 62.9748 173.562C61.2232 174.418 53.2482 174.611 49.3535 173.904Z" fill="black"/>
<path d="M31.9405 111.636C28.9319 111.079 28.0046 110.801 25.8202 109.901C18.2986 106.711 13.2499 100.437 12.8377 93.6918C12.7141 91.9574 12.7347 91.936 13.3529 91.2936C13.9093 90.694 14.1154 90.6298 15.2488 90.6298C16.3822 90.6298 16.5882 90.694 17.124 91.2508C17.4537 91.5934 17.7216 92.0644 17.7216 92.2786C17.7216 93.1351 18.3811 95.2978 19.0817 96.7324C20.3387 99.2806 21.6164 100.758 24.2129 102.6C28.7876 105.854 36.0413 107.524 41.461 106.604C44.8818 106.026 45.6648 106.154 46.2831 107.375C46.757 108.317 46.5922 110.201 45.9946 110.822C45.3557 111.464 42.9653 111.807 38.1226 111.936C34.7843 112.021 33.7333 111.957 31.9405 111.636Z" fill="black"/>
<path d="M47.6019 49.4315C42.2853 48.575 39.153 47.3973 35.4849 44.9348C30.498 41.573 27.5306 36.7123 27.2627 31.5304C27.1597 29.7103 27.2009 29.4319 27.5718 28.9608C27.9221 28.5112 28.19 28.4255 29.3852 28.3613C31.3429 28.2542 31.6314 28.5112 32.2702 31.0593C33.8982 37.5688 38.1432 41.4445 46.1594 43.6929C47.8904 44.1854 48.5292 44.2496 51.7233 44.2496C53.7016 44.271 56.1332 44.1854 57.1018 44.0783C60.0898 43.7571 60.7904 44.2068 60.7904 46.4765C60.7904 48.0611 60.605 48.5108 59.8219 48.8534C58.1527 49.5386 50.5693 49.9026 47.6019 49.4315Z" fill="black"/>
</svg>
