<svg width="78" height="24" viewBox="0 0 78 24" fill="none" xmlns="http://www.w3.org/2000/svg">
<path d="M8.256 23.136C6.67733 23.136 5.25867 22.784 4 22.08C2.76267 21.3547 1.78133 20.352 1.056 19.072C0.351999 17.792 -1.43051e-06 16.3413 -1.43051e-06 14.72C-1.43051e-06 13.0987 0.351999 11.648 1.056 10.368C1.78133 9.088 2.76267 8.096 4 7.392C5.25867 6.66667 6.67733 6.304 8.256 6.304C9.51467 6.304 10.6773 6.54933 11.744 7.04C12.832 7.50933 13.7173 8.21333 14.4 9.152L13.6 9.824C13.0027 8.992 12.2347 8.36267 11.296 7.936C10.3787 7.50933 9.36533 7.296 8.256 7.296C6.89067 7.296 5.65333 7.616 4.544 8.256C3.456 8.87467 2.60267 9.74933 1.984 10.88C1.36533 11.9893 1.056 13.2693 1.056 14.72C1.056 16.1707 1.36533 17.4613 1.984 18.592C2.60267 19.7227 3.456 20.608 4.544 21.248C5.65333 21.8667 6.89067 22.176 8.256 22.176C9.36533 22.176 10.3787 21.9627 11.296 21.536C12.2347 21.1093 13.0027 20.48 13.6 19.648L14.4 20.288C13.7173 21.2267 12.832 21.9413 11.744 22.432C10.6773 22.9013 9.51467 23.136 8.256 23.136ZM70.478 6.304C72.5473 6.304 74.1793 6.912 75.374 8.128C76.5687 9.32267 77.166 11.04 77.166 13.28V23.04H76.11V13.344C76.11 11.3813 75.6087 9.888 74.606 8.864C73.6247 7.81867 72.2167 7.296 70.382 7.296C68.3127 7.296 66.6807 7.91467 65.486 9.152C64.2913 10.368 63.694 12.0107 63.694 14.08V23.04H62.638V6.432H63.662V10.496C64.1953 9.19467 65.0487 8.17067 66.222 7.424C67.4167 6.67733 68.8353 6.304 70.478 6.304Z" fill="#E16F7C"/>
<path d="M35.4185 22.208C36.0798 22.208 36.6452 22.1013 37.1145 21.888L37.0185 22.816C36.4852 23.0293 35.8878 23.136 35.2265 23.136C34.1598 23.136 33.3385 22.8587 32.7625 22.304C32.2078 21.728 31.9305 20.9493 31.9305 19.968C31.9305 19.648 31.9412 19.4133 31.9625 19.264C31.1518 20.48 30.1065 21.4293 28.8265 22.112C27.5465 22.7947 26.1172 23.136 24.5385 23.136C22.3625 23.136 20.6238 22.528 19.3225 21.312C18.0425 20.0747 17.4025 18.4107 17.4025 16.32C17.4025 14.4213 17.8078 12.7147 18.6185 11.2C19.4292 9.68533 20.5492 8.49067 21.9785 7.616C23.4078 6.74133 25.0185 6.304 26.8105 6.304C28.6665 6.304 30.1705 6.73067 31.3225 7.584C32.4745 8.43733 33.2105 9.64267 33.5305 11.2L34.4905 6.432H35.5465L33.1145 18.656C33.0292 19.0613 32.9865 19.456 32.9865 19.84C32.9865 21.4187 33.7972 22.208 35.4185 22.208ZM24.7305 22.176C26.3092 22.176 27.7172 21.792 28.9545 21.024C30.2132 20.256 31.1945 19.1893 31.8985 17.824C32.6238 16.4373 32.9865 14.8907 32.9865 13.184C32.9865 11.3067 32.4318 9.856 31.3225 8.832C30.2345 7.808 28.7092 7.296 26.7465 7.296C25.1678 7.296 23.7492 7.69067 22.4905 8.48C21.2318 9.248 20.2398 10.3147 19.5145 11.68C18.8105 13.0453 18.4585 14.5813 18.4585 16.288C18.4585 18.1653 19.0025 19.616 20.0905 20.64C21.1998 21.664 22.7465 22.176 24.7305 22.176ZM43.7075 6.432H44.7635L41.4675 23.04H40.4115L43.7075 6.432ZM45.2435 2.08C44.9662 2.08 44.7315 1.984 44.5395 1.792C44.3688 1.6 44.2835 1.376 44.2835 1.12C44.2835 0.821332 44.3902 0.565332 44.6035 0.351999C44.8168 0.117333 45.0728 0 45.3715 0C45.6488 0 45.8835 0.096 46.0755 0.288C46.2675 0.48 46.3635 0.704 46.3635 0.959999C46.3635 1.25867 46.2462 1.52533 46.0115 1.76C45.7982 1.97333 45.5422 2.08 45.2435 2.08ZM52.1517 10.304C53.6451 7.63733 56.0557 6.304 59.3837 6.304L59.1917 7.36H58.8077C56.8237 7.36 55.2024 7.95733 53.9437 9.152C52.6851 10.3467 51.8211 12.1067 51.3517 14.432L49.6237 23.04H48.5677L51.8637 6.432H52.9197L52.1517 10.304Z" fill="#89CFF0"/>
</svg>
