<svg xmlns="http://www.w3.org/2000/svg" viewBox="0 0 750 500"><g id="freepik--background-complete--inject-95"><path d="M164.6,446.27c15.55-10.87,19.08-31,18.46-49.16-.1-3,.23-6.22-1.2-8.88s-4.8-4.46-7.51-3.19c-2.25,1.06-3.23,3.67-4.49,5.83a17.65,17.65,0,0,1-7.09,6.78c-1.93,1-4.31,1.61-6.22.57-2.61-1.45-2.91-5.05-2.9-8.06q.06-8.42.11-16.83a27.92,27.92,0,0,0-.91-8.94c-.94-2.86-3-5.51-5.87-6.31s-6.4.85-7,3.79a27.55,27.55,0,0,0-.08,3.75c-.08,1.25-.67,2.63-1.85,3s-2.41-.5-3.31-1.38c-3.11-3-5.21-7-7.18-10.85s-3.89-7.88-6.7-11.19-6.72-5.94-11-6.19-8.9,2.42-10,6.65,1.38,8.55,4.07,12a67.49,67.49,0,0,0,14,13.33,5.47,5.47,0,0,1,2.34,2.52c.65,2-1.25,4-3.23,4.65-2.24.75-4.68.52-7,.79s-4.89,1.32-5.78,3.53c-1.23,3.08,1.34,6.3,3.87,8.42a57.55,57.55,0,0,0,17,9.83c2.22.81,4.55,1.52,6.33,3.07s2.87,4.27,1.79,6.39-3.85,2.8-6.17,2.37-4.39-1.69-6.6-2.53c-4.14-1.56-9.48-1.27-12.13,2.3a9.53,9.53,0,0,0-1,8.42,21.86,21.86,0,0,0,4.56,7.44,57.86,57.86,0,0,0,24.71,17.37c9.59,3.33,18.48,4.23,28,.74" style="fill:#f5f5f5"></path><path d="M164.84,459.71a132.29,132.29,0,0,0-4.92-24.81,267.85,267.85,0,0,0-10.71-29c-1.07-2.52-2.14-5-3.19-7.47s-2.1-4.88-3.27-7.19a134.4,134.4,0,0,0-7.49-12.89c-2.58-4-5.17-7.68-7.62-11.11s-4.81-6.58-7.07-9.37a105.7,105.7,0,0,0-11.66-12.31c-1.48-1.35-2.67-2.35-3.48-3l-.93-.75a3,3,0,0,0-.33-.25,2.7,2.7,0,0,0,.3.29l.89.8c.79.69,2,1.72,3.41,3.09a113.82,113.82,0,0,1,11.5,12.4c2.24,2.79,4.56,6,7,9.39s5,7.13,7.57,11.12a136.1,136.1,0,0,1,7.42,12.86c1.16,2.3,2.2,4.71,3.25,7.16l3.2,7.47a278.32,278.32,0,0,1,10.72,29,134.57,134.57,0,0,1,5,24.7" style="fill:#e0e0e0"></path><path d="M142.59,391.19a5.65,5.65,0,0,0,.29-1.28c.16-.83.35-2,.56-3.54.43-3,.87-7.16,1.35-11.74s1-8.73,1.45-11.72c.23-1.49.43-2.69.58-3.52a5.74,5.74,0,0,0,.16-1.31,6.6,6.6,0,0,0-.38,1.26c-.21.82-.47,2-.75,3.51-.57,3-1.14,7.12-1.61,11.72s-.87,8.62-1.19,11.75c-.15,1.41-.28,2.6-.38,3.56A5.62,5.62,0,0,0,142.59,391.19Z" style="fill:#e0e0e0"></path><path d="M103.89,384a8.29,8.29,0,0,0,1.55.18c1,.09,2.43.21,4.2.42,3.54.38,8.42,1.08,13.77,2.09s10.14,2.14,13.59,3.06c1.73.44,3.12.84,4.08,1.11a8.28,8.28,0,0,0,1.51.37,8,8,0,0,0-1.45-.58c-.94-.33-2.32-.79-4-1.28-3.43-1-8.23-2.21-13.59-3.23a139.22,139.22,0,0,0-13.84-1.94c-1.78-.15-3.22-.21-4.22-.23A7.91,7.91,0,0,0,103.89,384Z" style="fill:#e0e0e0"></path><path d="M159.44,434.19s.11-.15.27-.47l.66-1.4c.57-1.22,1.35-3,2.28-5.22,1.87-4.43,4.25-10.64,6.79-17.52s4.87-13.1,6.64-17.57l2.12-5.28c.22-.58.41-1.05.56-1.44a2.3,2.3,0,0,0,.17-.52,2,2,0,0,0-.27.47l-.66,1.4c-.57,1.22-1.35,3-2.28,5.22-1.87,4.43-4.25,10.64-6.79,17.52s-4.87,13.1-6.64,17.57c-.87,2.17-1.58,4-2.12,5.28-.22.58-.41,1-.56,1.44A2.49,2.49,0,0,0,159.44,434.19Z" style="fill:#e0e0e0"></path><path d="M108,417.62a2.4,2.4,0,0,0,.51.21l1.5.5,5.5,1.78c4.65,1.51,11,3.67,18.12,6.06s13.49,4.49,18.17,5.91c2.34.7,4.24,1.25,5.56,1.61l1.52.4a1.72,1.72,0,0,0,.54.1,1.9,1.9,0,0,0-.51-.21l-1.49-.5-5.5-1.78c-4.65-1.51-11.05-3.67-18.12-6.06s-13.49-4.49-18.17-5.9c-2.34-.71-4.24-1.26-5.56-1.62l-1.52-.4A2.16,2.16,0,0,0,108,417.62Z" style="fill:#e0e0e0"></path><path d="M355.79,45.74S364,81.08,380.47,86.36c14.91,4.79,32.33-.19,46,7.39,9.07,5,14.6,14.56,22.39,21.4,14,12.25,35.81,14.54,52,5.47,7.22-4,13.75-10.2,22-11,7.39-.7,14.34,3.13,21.41,5.39a52.55,52.55,0,0,0,39.46-3.23c7.34-3.75,13.76-9.24,21.39-12.36,10.06-4.12,21.29-3.77,32.12-4.86,15.27-1.53,31.22-6.7,40.61-18.84,5.29-6.84,8.09-15.38,13.52-22.11,7.89-9.79,20.26-14.57,30.52-21.84S741,11.72,736.48,0H288.8S303.27,66.18,355.79,45.74Z" style="fill:#f5f5f5"></path><path d="M426.09.4c-9.82,22.68-23.93,33.28-48.34,37.17-6.55,1-13.34,1.23-19.48,3.74C349.25,45,343,53.1,335.7,59.59a75.74,75.74,0,0,1-53.31,18.94c-15.43,27.55-49.82,43-80.68,36.26-12.29-2.69-23.77-8.47-36.13-10.85-11.38-2.19-23.14-1.42-34.58-3.31a76.45,76.45,0,0,1-56.82-44.8C45.16,59.21,15,41.34,3.93,14.29L.37,0Z" style="fill:#fafafa"></path><path d="M170.58,32.87,187,114.71s.91,5.46,6.37,6.37,8.8-21.83,8.8-21.83l5.75,1.82-10,29.1-4.55,22.74,1.82,54.56L229.92,460H199.8S178.77,222,177,211.11s-28.19-40.93-28.19-40.93v-7.27L176,192,148.76,32.87Z" style="fill:#e0e0e0"></path><path d="M577.36,32.87l-8,78.95s-.38,5.58-5.77,7-11-21.07-11-21.07L547,100.17l12.94,28.28,6.83,22.41,3.57,55-9.87,254h30.16s-2.39-241-1.65-252.19,24.3-43.94,24.3-43.94l-.72-7.31-24.55,32,13.17-155.6Z" style="fill:#e0e0e0"></path><path d="M251.92,32.45l24.57,58.19L288.73,136s24,49.63,24.82,47.07-4.83-79.6-4.83-79.6L291.29,32.87h22.34l11.9,68L346.8,460H308.67l-5.39-243.49-23.11-79.6L269,89.79,241,32.87Z" style="fill:#ebebeb"></path><path d="M468.9,32.87S448,78.57,444.68,104.71L430.79,68.35c-4.9,3.68,9.81,51.89,9.81,51.89s-11,53.92-10.81,81.7,0,138.08,0,138.08L403.38,460l30,.09s12.95-102.86,12.14-113.49-.82-147.06-.82-147.06,5.72-64.55,10.62-83.34,33.47-83.28,33.47-83.28Z" style="fill:#fafafa"></path><path d="M127,33.7c.94,2.82-16.9,93-21.59,105.15S96,165.14,96,165.14l-5.63-15-3.76,5.63,4.7,19.72S72.56,198,71.62,217.72s0,52.58,0,52.58L54.72,460H82V271.24s-5.63-47.89-2.82-56.34,18.78-35.67,18.78-35.67S115,157.63,117.26,136,134.53,33.7,134.53,33.7Z" style="fill:#f5f5f5"></path><path d="M633.47,32.87c-1,2.87,15.72,89.75,20.5,102.19s9.57,26.78,9.57,26.78l5.74-15.31,3.82,5.74-4.78,20.09s19.13,22.95,20.09,43,0,53.56,0,53.56l17,191H677.89v-190s5.73-48.78,2.86-57.39-19.12-36.35-19.12-36.35-17.44-22-19.72-44-16.1-99.32-16.1-99.32Z" style="fill:#ebebeb"></path><path d="M394.52,124.28c-11.92,2.62-21.34,13.94-21.77,26.14,12.16-1.46,22.26-13,22.08-25.25" style="fill:#f5f5f5"></path><path d="M664.17,27.51a18.6,18.6,0,0,0,17.71,13.27,16.88,16.88,0,0,0-17.14-13.5" style="fill:#e0e0e0"></path><path d="M690.22,92.37a20.23,20.23,0,0,0,24,.38c-6.19-6-17-6.48-23.68-1" style="fill:#f5f5f5"></path><path d="M482.31,154.15a15.94,15.94,0,0,0,9.77,16.26,14.48,14.48,0,0,0-9.24-16.27" style="fill:#e0e0e0"></path><path d="M410.3,165.32a16,16,0,0,0,9.78,16.26,14.46,14.46,0,0,0-9.25-16.26" style="fill:#e0e0e0"></path><path d="M62.43,79A16,16,0,0,0,44.69,85.7a14.49,14.49,0,0,0,17.65-6.22" style="fill:#e0e0e0"></path><path d="M532.27,34a15.94,15.94,0,0,0,2.92,18.75,14.48,14.48,0,0,0-2.43-18.55" style="fill:#e0e0e0"></path><path d="M234.65,44.63a16,16,0,0,0,9.78,16.27,14.48,14.48,0,0,0-9.25-16.27" style="fill:#e0e0e0"></path></g><g id="freepik--Floor--inject-95"><path d="M715.8,460c0,.15-152.59.26-340.78.26S34.2,460.1,34.2,460s152.56-.26,340.82-.26S715.8,459.81,715.8,460Z" style="fill:#263238"></path><path d="M647.33,407a2.89,2.89,0,0,1,.37.47l1,1.4c.84,1.22,2,3,3.4,5.29a171.27,171.27,0,0,1,17.2,37.65c.8,2.54,1.4,4.6,1.77,6,.17.67.31,1.22.43,1.65a2.3,2.3,0,0,1,.11.59,2.83,2.83,0,0,1-.22-.56c-.13-.43-.3-1-.51-1.63-.43-1.42-1.09-3.46-1.93-6a195.21,195.21,0,0,0-17.17-37.58c-1.34-2.29-2.46-4.12-3.25-5.37l-.89-1.46A2.12,2.12,0,0,1,647.33,407Z" style="fill:#263238"></path><path d="M663.65,377.26a5,5,0,0,1,0,.85c0,.6,0,1.41-.08,2.43s-.1,2.34-.11,3.84-.08,3.2-.05,5.08c0,3.77.11,8.26.4,13.24s.83,10.43,1.61,16.12,1.8,11.09,2.84,16,2.18,9.22,3.22,12.85c.48,1.82,1,3.44,1.43,4.88s.82,2.66,1.15,3.66l.74,2.32a4.71,4.71,0,0,1,.22.82s-.12-.27-.32-.79-.48-1.32-.83-2.28-.79-2.21-1.23-3.64-1-3.05-1.52-4.87c-1.08-3.62-2.22-8-3.32-12.84s-2.09-10.28-2.89-16-1.28-11.19-1.58-16.17-.35-9.49-.29-13.27c0-1.89.08-3.59.13-5.09s.12-2.79.2-3.84.13-1.83.17-2.43A5.17,5.17,0,0,1,663.65,377.26Z" style="fill:#263238"></path><path d="M678.23,415.62a9.71,9.71,0,0,1-.31,1.74c-.24,1.1-.55,2.71-.88,4.7a93.45,93.45,0,0,0,.08,31.42c.35,2,.66,3.6.91,4.7a10.53,10.53,0,0,1,.32,1.74,12.28,12.28,0,0,1-.52-1.69c-.3-1.09-.68-2.69-1.07-4.68a84.25,84.25,0,0,1-.08-31.55c.38-2,.74-3.6,1.05-4.69A12.1,12.1,0,0,1,678.23,415.62Z" style="fill:#263238"></path><path d="M664.8,459.71c-.09,0-.29-1.29-.81-3.36a43.83,43.83,0,0,0-2.76-7.81,45,45,0,0,0-4.19-7.15c-1.25-1.73-2.12-2.73-2-2.79s.27.21.68.64a25.11,25.11,0,0,1,1.66,1.93,36.68,36.68,0,0,1,7,15.1,24.24,24.24,0,0,1,.4,2.51A3.28,3.28,0,0,1,664.8,459.71Z" style="fill:#263238"></path><path d="M191.5,422.11a11.35,11.35,0,0,1-1.13,1.29c-.39.4-.85.9-1.36,1.49s-1.13,1.25-1.74,2c-1.28,1.51-2.7,3.38-4.19,5.53a79.11,79.11,0,0,0-4.37,7.28,77.14,77.14,0,0,0-3.48,7.76c-.92,2.44-1.64,4.68-2.16,6.59-.28.95-.47,1.83-.66,2.59s-.34,1.42-.45,2a11.54,11.54,0,0,1-.41,1.67,10.07,10.07,0,0,1,.21-1.71c.08-.55.19-1.22.36-2s.33-1.66.6-2.62a64.33,64.33,0,0,1,2.06-6.67,66.56,66.56,0,0,1,7.91-15.14,63,63,0,0,1,4.3-5.5c.63-.77,1.27-1.41,1.8-2s1-1.06,1.43-1.44A10.24,10.24,0,0,1,191.5,422.11Z" style="fill:#263238"></path><path d="M171.55,408.62a2.32,2.32,0,0,1-.14.51l-.48,1.44c-.22.62-.48,1.38-.75,2.28s-.62,1.9-.92,3c-.66,2.26-1.32,5-1.93,8s-1.09,6.43-1.41,10-.37,7-.32,10.09.26,5.9.53,8.24c.1,1.17.27,2.22.39,3.14s.24,1.73.35,2.37.17,1.1.23,1.5a2.12,2.12,0,0,1,0,.53,1.73,1.73,0,0,1-.15-.51c-.08-.39-.19-.88-.32-1.48s-.3-1.43-.44-2.36-.34-2-.47-3.15c-.31-2.34-.54-5.14-.64-8.26a93.62,93.62,0,0,1,.28-10.15,94.61,94.61,0,0,1,1.46-10.05,82,82,0,0,1,2-8c.32-1.14.69-2.14,1-3s.59-1.64.84-2.25l.57-1.4A1.83,1.83,0,0,1,171.55,408.62Z" style="fill:#263238"></path><path d="M148.06,439.82a4.58,4.58,0,0,1,.9.46,22.13,22.13,0,0,1,2.28,1.52,30.21,30.21,0,0,1,10.45,14.51,22.69,22.69,0,0,1,.72,2.64,4.07,4.07,0,0,1,.15,1c-.09,0-.41-1.37-1.22-3.52A33.5,33.5,0,0,0,151,442.09C149.23,440.65,148,439.9,148.06,439.82Z" style="fill:#263238"></path><path d="M262,440.85c.13-.07,2.3,4.16,4.86,9.44s4.51,9.6,4.38,9.66-2.3-4.16-4.85-9.44A106.06,106.06,0,0,1,262,440.85Z" style="fill:#263238"></path><path d="M271.9,427.91a5.57,5.57,0,0,1,0,1.28c0,.81-.07,2-.1,3.45a111.65,111.65,0,0,0,.35,11.38,108.79,108.79,0,0,0,1.55,11.28c.27,1.44.5,2.6.67,3.4a5.67,5.67,0,0,1,.2,1.25,6.79,6.79,0,0,1-.4-1.21c-.23-.78-.51-1.93-.83-3.36a86.35,86.35,0,0,1-1.91-22.75c.08-1.46.17-2.64.27-3.46A6.82,6.82,0,0,1,271.9,427.91Z" style="fill:#263238"></path><path d="M280.19,439.84a25.92,25.92,0,0,1-.9,2.91,51,51,0,0,0-1.7,7.11,52.41,52.41,0,0,0-.63,7.28,25.32,25.32,0,0,1-.06,3.05,13.52,13.52,0,0,1-.31-3,39.64,39.64,0,0,1,.49-7.37,38.56,38.56,0,0,1,1.86-7.15A13.37,13.37,0,0,1,280.19,439.84Z" style="fill:#263238"></path></g><g id="freepik--character-2--inject-95"><path d="M649.06,257.39h0c4.66-.48,7.8-1.25,10.87-1.4,3.78-.18,5.32-.52,5.24-1.23-.11-.94,0-.58-6.94-1.22,0,0,9.88.82,7.88-1-.88-.82-9.08-1.59-9.08-1.59,6.53,1.22,9.18.65,9.31-.35.2-1.44-9.77-2.3-9.77-2.3s7.59.8,9,.53.06-1.34-1.27-1.91c-1.5-.65-10.74-3.15-13.37-4a1.63,1.63,0,0,1-1.21-2.16c1.94-3.52,1.57-7.3,1-8.27a1.23,1.23,0,0,0-2.22.75,14.66,14.66,0,0,1-1.26,3.86,9.61,9.61,0,0,1-1.77,2.71c-.87.93-1.63,1.67-2.3,2.29l-69.33-3-4.13,19.13Z" style="fill:#b78876"></path><path d="M654.34,253.12c0,.18,2.09.46,4.72.64s4.76.18,4.76,0-2.11-.46-4.72-.64S654.36,253,654.34,253.12Z" style="fill:#aa6550"></path><path d="M654.31,250.44c0,.18,2.21.61,5,1s5.05.51,5.07.34-2.21-.61-5-1S654.33,250.27,654.31,250.44Z" style="fill:#aa6550"></path><path d="M654.29,247.66c0,.17,2.08.61,4.71,1s4.77.53,4.79.36-2.08-.62-4.71-1S654.31,247.49,654.29,247.66Z" style="fill:#aa6550"></path><path d="M410.54,237.6h0c-4.68.2-7.86.77-10.93.73-3.79,0-5.35.21-5.31.91.05.95,0,.59,6.85,1.65,0,0-9.81-1.43-7.93.55.83.88,9,2.14,9,2.14-6.45-1.61-9.13-1.2-9.33-.22-.28,1.43,9.62,2.9,9.62,2.9s-7.53-1.27-8.91-1.08-.14,1.34,1.15,2c1.46.74,10.53,3.8,13.1,4.82a1.62,1.62,0,0,1,1.07,2.23c-2.14,3.4-2,7.19-1.48,8.2a1.23,1.23,0,0,0,2.26-.62,14.83,14.83,0,0,1,1.49-3.78,9.71,9.71,0,0,1,1.94-2.6c.91-.86,1.72-1.56,2.43-2.14l73,3.41,1.24-20.82Z" style="fill:#b78876"></path><path d="M634,459.75c4.26-.34-5.59-4.17-10.34-5.26-5.73-1.31-10.36-2.89-10.36-2.89l.43-22.63-17.63-2.16-1.06,30.66a2.55,2.55,0,0,0,2.22,2.48Z" style="fill:#b78876"></path><path d="M376.64,424.74c-.59,1.18-15.31,14.43-15.31,14.43s-3.33,19.26-.39,20.44h18.84c.7-2.58-6.09-15.73-6.09-15.73l11.78-10.3Z" style="fill:#b78876"></path><path d="M509.54,263c0,.58,3.06,43.85,3.06,43.85l42.45,1.54L556.83,263Z" style="fill:#b78876"></path><path d="M578.05,239.25l-12-3.73a94,94,0,0,0-15.91-3.45l-4.18-.53-19.11-1.08c-1.09,0-9.64-1.24-17.49.21-17.18,3.17-25.75,4.49-25.75,4.49l.88,24,20.84.37c1.49,6.69,3.55,34.06,3.55,34.06l48,2.43,1.55-23.83a8.86,8.86,0,0,0,1.19-1.6,12.23,12.23,0,0,0,.27-11.5l14.78.83Z" style="fill:#FF5EEE"></path><polygon points="507.08 273.08 558.25 274.21 557.87 280.02 507.6 278.67 507.08 273.08" style="fill:#fafafa"></polygon><g style="opacity:0.2"><polygon points="507.6 278.66 508.87 293.58 556.83 296.01 557.87 280.01 507.6 278.66" style="fill:#fafafa"></polygon></g><g style="opacity:0.2"><path d="M534.13,264.6c.27.19-.26,1.63-2,3.34a12.12,12.12,0,0,1-3.63,2.35,11.46,11.46,0,0,1-5.36.84A11.83,11.83,0,0,1,518,269.4a12.8,12.8,0,0,1-3.23-2.84c-1.52-1.92-1.89-3.4-1.6-3.56s1.25.89,2.92,2.27a13.73,13.73,0,0,0,7.26,3.27,12.53,12.53,0,0,0,7.62-2.06C532.79,265.35,533.83,264.36,534.13,264.6Z"></path></g><path d="M565.29,171.16a10.21,10.21,0,0,0-10.63,4.27,10.54,10.54,0,0,0-1.6,6.73,19.36,19.36,0,0,0-4.34-2.56,34,34,0,0,0-9.18-2.27c-3.17-.4-6.49-.57-9.48.57-5,1.92-13.22,8.14-9.86,20.89l25.4,21.49a1.73,1.73,0,0,0,2.18.74,4.61,4.61,0,0,0,1.9-1.64A44,44,0,0,0,558,201.59c.93-4.28,1.15-9-.31-13a10.86,10.86,0,0,0,7.06.94,10,10,0,0,0,7.71-9.58A9.59,9.59,0,0,0,565.29,171.16Z" style="fill:#263238"></path><path d="M533,244.9a10.49,10.49,0,0,0,12.09-8.53l7.65-43.44h0a3.42,3.42,0,0,0-2.51-3.89l-16.4-4.28a10.26,10.26,0,0,0-12.62,7.76c-1.37,6.34-2.8,14.14-2.76,19,.07,9.84,7.25,12.17,7.25,12.17l-1.33,9.36A10.49,10.49,0,0,0,533,244.9Z" style="fill:#b78876"></path><path d="M522.11,198.66a1.25,1.25,0,0,0,1,1.42,1.19,1.19,0,0,0,1.44-.92,1.24,1.24,0,0,0-1-1.42A1.19,1.19,0,0,0,522.11,198.66Z" style="fill:#263238"></path><path d="M522.3,196.85c.13.18,1.17-.36,2.49-.16s2.2,1,2.37.87,0-.37-.41-.74a3.39,3.39,0,0,0-1.86-.9,3.27,3.27,0,0,0-2,.33C522.42,196.5,522.24,196.77,522.3,196.85Z" style="fill:#263238"></path><path d="M535.12,200.49a1.25,1.25,0,0,0,1,1.43,1.2,1.2,0,0,0,1.44-.92,1.26,1.26,0,0,0-1-1.43A1.2,1.2,0,0,0,535.12,200.49Z" style="fill:#263238"></path><path d="M535.3,199.07c.13.19,1.16-.36,2.49-.16s2.2,1,2.36.87,0-.37-.4-.74a3.42,3.42,0,0,0-1.87-.9,3.29,3.29,0,0,0-2,.33C535.42,198.72,535.23,199,535.3,199.07Z" style="fill:#263238"></path><path d="M529,208.17a9.41,9.41,0,0,0-2.1-.71c-.33-.09-.64-.2-.66-.44a1.69,1.69,0,0,1,.37-1c.45-.77.91-1.58,1.4-2.43a45.52,45.52,0,0,0,3.27-6.4,44.12,44.12,0,0,0-3.78,6.13l-1.35,2.44a2,2,0,0,0-.38,1.31.84.84,0,0,0,.48.57,2.17,2.17,0,0,0,.56.17A8.14,8.14,0,0,0,529,208.17Z" style="fill:#263238"></path><path d="M525.71,223.72a24.66,24.66,0,0,0,13.38-1.48s-4,6.19-13.52,3.84Z" style="fill:#aa6550"></path><path d="M529.07,211.45a2.46,2.46,0,0,1,2.28-.56,2.18,2.18,0,0,1,1.38,1,1.39,1.39,0,0,1-.13,1.59,1.62,1.62,0,0,1-1.81.18,5.18,5.18,0,0,1-1.54-1.27,1.6,1.6,0,0,1-.32-.45.45.45,0,0,1,.08-.49" style="fill:#aa6550"></path><path d="M532.76,209.68c-.21,0-.43,1.4-1.82,2.23s-2.9.45-2.94.65.3.33,1,.44a3.62,3.62,0,0,0,2.44-.45,3.19,3.19,0,0,0,1.43-1.89C533,210.07,532.86,209.69,532.76,209.68Z" style="fill:#263238"></path><path d="M535.05,196.66c.08.38,1.43.41,3,.83s2.73,1,3,.75-.05-.51-.51-.94a5,5,0,0,0-2.11-1.12,5,5,0,0,0-2.4-.08C535.35,196.24,535,196.48,535.05,196.66Z" style="fill:#263238"></path><path d="M523.37,193.09c.19.33,1.15.16,2.25.31s2,.51,2.26.23,0-.46-.35-.81a3.07,3.07,0,0,0-1.75-.77,3.14,3.14,0,0,0-1.88.33C523.47,192.63,523.29,192.93,523.37,193.09Z" style="fill:#263238"></path><path d="M521.22,192.52c2.92-7.94,4.71-4.35,7.88-7.87,3.17,4.35,11.11,10,16.23,11.67a3.49,3.49,0,0,1,1.47.72c.72.72.6,1.9.45,2.91a37,37,0,0,0-.59,8.59,14,14,0,0,0,3,8c4.18-6.2,5.67-13.92,5.35-21.39-.13-3-.64-6.3-2.72-8.54a13.27,13.27,0,0,0-5.65-3.19c-5.11-1.76-10.62-2.83-15.91-1.71s-9.51,2.83-11,8" style="fill:#263238"></path><path d="M556.05,188a3.09,3.09,0,0,0-3.84-1.14c-1.29.37-2.65,1.37-4.4,2a17.1,17.1,0,0,1-5.89,1.1,16.32,16.32,0,0,1-5.91-1,17,17,0,0,1-4.31-2.32,15.46,15.46,0,0,1-2.42-2.23,4.13,4.13,0,0,1-.72-1,29.55,29.55,0,0,0,3.36,2.9,17.18,17.18,0,0,0,15.72,2.08c1.7-.58,3.07-1.54,4.47-1.9a3.68,3.68,0,0,1,3.24.49,2.06,2.06,0,0,1,.6.7A.65.65,0,0,1,556.05,188Z" style="fill:#455a64"></path><path d="M565.61,171.89s.3.12.66.56a4.11,4.11,0,0,1,.85,2.21,6.87,6.87,0,0,1-.68,3.43,14.52,14.52,0,0,1-2.26,3.62,10.59,10.59,0,0,1-3.37,2.63,8.61,8.61,0,0,1-3.4.83,6.7,6.7,0,0,1-2.33-.32,2,2,0,0,1-.77-.37,10.78,10.78,0,0,0,3.08.32,8.6,8.6,0,0,0,3.21-.9,10.5,10.5,0,0,0,3.19-2.53c1.86-2.23,3.07-4.79,3-6.69a4.41,4.41,0,0,0-.65-2.11C565.82,172.12,565.58,171.93,565.61,171.89Z" style="fill:#455a64"></path><path d="M570.78,175.44a2.79,2.79,0,0,1,.14.92,9.73,9.73,0,0,1-.24,2.52,10.65,10.65,0,0,1-12.79,8.18,9.7,9.7,0,0,1-2.38-.85c-.53-.28-.8-.48-.78-.51a19.79,19.79,0,0,0,3.23,1,10.66,10.66,0,0,0,12.37-7.9A19.21,19.21,0,0,0,570.78,175.44Z" style="fill:#455a64"></path><path d="M403.43,399.36l.09-.07Z" style="fill:#263238"></path><path d="M612.55,338.06l-54.68-20.58-1.1-10a2.09,2.09,0,0,0-2-1.87l-42.65-1.45h-.42v.05c-2.72.52-13.93,5.54-21.92,15.59-5.53,6.95-42.11,49.23-45.24,50.12s-41.62,29.95-41.11,29.41l-28.18,24.47,11.64,18.52,77.78-53.61,61.7-41.46a97.35,97.35,0,0,0,21.56,7.91c7.85,1.87,42.52,6.23,42.52,6.23l3.07,75.64,26.13,3.24,5.27-83.9A18.13,18.13,0,0,0,612.55,338.06Z" style="fill:#263238"></path><path d="M556.77,307.48a11.19,11.19,0,0,1-1.77.3c-1.14.16-2.79.35-4.85.53a119.35,119.35,0,0,1-16.09.27,95.88,95.88,0,0,1-15.95-2.18c-2-.47-3.62-.9-4.72-1.24a12.74,12.74,0,0,1-1.7-.58,11.89,11.89,0,0,1,1.75.38c1.11.29,2.74.66,4.75,1.07a108.88,108.88,0,0,0,15.9,2,140.17,140.17,0,0,0,16-.12c2-.13,3.71-.26,4.85-.36A10.87,10.87,0,0,1,556.77,307.48Z" style="fill:#455a64"></path><path d="M543.67,344.68c0,.09-1.17-.18-3-.38a27.84,27.84,0,0,0-14.37,2.29c-1.72.77-2.73,1.39-2.77,1.31s.21-.21.65-.51a17.94,17.94,0,0,1,2-1.14,24.58,24.58,0,0,1,14.58-2.32,16.84,16.84,0,0,1,2.21.47A2.83,2.83,0,0,1,543.67,344.68Z" style="fill:#455a64"></path><path d="M591.53,370.18a65.38,65.38,0,0,1-1.66-8,64.37,64.37,0,0,1-1.16-8,63.75,63.75,0,0,1,1.67,7.95A61.06,61.06,0,0,1,591.53,370.18Z" style="fill:#455a64"></path><path d="M456.68,389.64a3.11,3.11,0,0,1-1.62.14,7.62,7.62,0,0,1-6.1-4.46,3,3,0,0,1-.36-1.58,11.8,11.8,0,0,1,.69,1.42,8.61,8.61,0,0,0,2.43,2.78,8.48,8.48,0,0,0,3.39,1.47A14.26,14.26,0,0,1,456.68,389.64Z" style="fill:#455a64"></path></g><g id="freepik--character-1--inject-95"><path d="M248.94,175.5c-2-3.34-5.48-5.59-9.06-7.16-3.79-1.66-8.74-2.48-11.64.47-1.77,1.82-2.32,4.68-4.4,6.13s-4.91,1-7.45,1.13c-4.63.3-9.16,3.43-10.35,7.92s1.72,9.86,6.29,10.66A7.42,7.42,0,0,0,220,206.72l28.88-20.2C251.26,183.46,251,178.84,248.94,175.5Z" style="fill:#263238"></path><path d="M235.67,241.74a10.49,10.49,0,0,1-11.8-8.91l-6.25-43.67h0a3.43,3.43,0,0,1,2.63-3.81l16.53-3.75a10.25,10.25,0,0,1,12.36,8.16c1.17,6.39,2.35,14.22,2.15,19.11-.38,9.83-7.63,11.94-7.63,11.94l1,9.39a10.49,10.49,0,0,1-9,11.54Z" style="fill:#ffbe9d"></path><path d="M248.06,195.87a1.25,1.25,0,0,1-1.05,1.39,1.19,1.19,0,0,1-1.41-1,1.25,1.25,0,0,1,1.05-1.39A1.21,1.21,0,0,1,248.06,195.87Z" style="fill:#263238"></path><path d="M247.92,194.06c-.13.18-1.15-.41-2.48-.24s-2.23.94-2.39.79,0-.37.43-.73a3.43,3.43,0,0,1,1.89-.84,3.27,3.27,0,0,1,2,.4C247.82,193.7,248,194,247.92,194.06Z" style="fill:#263238"></path><path d="M235,197.29a1.25,1.25,0,0,1-1.05,1.39,1.2,1.2,0,0,1-1.4-1,1.24,1.24,0,0,1,1-1.39A1.19,1.19,0,0,1,235,197.29Z" style="fill:#263238"></path><path d="M234.86,195.86c-.13.18-1.15-.4-2.48-.24s-2.23.94-2.39.79,0-.37.43-.73a3.43,3.43,0,0,1,1.89-.84,3.27,3.27,0,0,1,2,.4C234.76,195.5,234.93,195.78,234.86,195.86Z" style="fill:#263238"></path><path d="M240.87,205.16a8.8,8.8,0,0,1,2.12-.65c.33-.07.64-.18.67-.42a1.69,1.69,0,0,0-.34-1c-.42-.78-.86-1.6-1.31-2.47a45.13,45.13,0,0,1-3.07-6.5,43.59,43.59,0,0,1,3.58,6.24c.45.87.87,1.7,1.27,2.49a2,2,0,0,1,.34,1.32.88.88,0,0,1-.5.56,2.42,2.42,0,0,1-.57.15A8.49,8.49,0,0,1,240.87,205.16Z" style="fill:#263238"></path><path d="M243.66,220.81a24.67,24.67,0,0,1-13.33-1.92s3.84,6.32,13.39,4.28Z" style="fill:#eb996e"></path><path d="M240.69,208.44a2.42,2.42,0,0,0-2.26-.64,2.23,2.23,0,0,0-1.42,1,1.39,1.39,0,0,0,.09,1.6,1.63,1.63,0,0,0,1.79.24,5.09,5.09,0,0,0,1.59-1.22,1.41,1.41,0,0,0,.33-.44.47.47,0,0,0-.06-.5" style="fill:#eb996e"></path><path d="M237.06,206.55c.21,0,.39,1.4,1.75,2.28s2.88.54,2.91.74-.31.32-1,.42a3.66,3.66,0,0,1-2.42-.54,3.15,3.15,0,0,1-1.37-1.93C236.84,206.93,237,206.55,237.06,206.55Z" style="fill:#263238"></path><path d="M235.19,193.46c-.09.37-1.44.36-3,.73s-2.75.95-3,.65c-.11-.14.07-.51.54-.92a5,5,0,0,1,2.15-1,5,5,0,0,1,2.4,0C234.9,193,235.22,193.28,235.19,193.46Z" style="fill:#263238"></path><path d="M247,190.26c-.2.33-1.16.13-2.26.24s-2,.45-2.27.16c-.11-.14,0-.47.38-.8a3.08,3.08,0,0,1,1.77-.71,3.14,3.14,0,0,1,1.87.39C246.9,189.81,247.06,190.1,247,190.26Z" style="fill:#263238"></path><path d="M218.2,206.91l1.92,4.92a2.06,2.06,0,0,0,.77,1.13,1.69,1.69,0,0,0,1.93-.51c1.44-1.45,1.51-3.77,1.14-5.79s-1.07-4-.82-6a20.23,20.23,0,0,1,1.8-5c.68-1.65,1.11-3.56.35-5.18a12.45,12.45,0,0,0,13.94-5.22,2.63,2.63,0,0,0,4.77-2c.16,1.32.56,2.93,1.85,3.25a2.09,2.09,0,0,0,2.33-1.62,3.7,3.7,0,0,0-.76-3,8,8,0,0,0-4.93-2.93,19.12,19.12,0,0,0-5.85-.08,66.48,66.48,0,0,0-17.5,4.33c-1.61.65-3.32,1.45-4.13,3s-.52,3.38-.22,5.09l2.73,15.16" style="fill:#263238"></path><path d="M213.9,205.12a1.26,1.26,0,0,1-.44-.18,3.25,3.25,0,0,1-1-.92,4,4,0,0,1-.78-2,3.56,3.56,0,0,1,.85-2.75c.68-.86,1.67-1.5,2.41-2.42a5.46,5.46,0,0,0,.93-3.6,14.63,14.63,0,0,1,.13-2.16,6.62,6.62,0,0,1,.79-2.16,7.09,7.09,0,0,1,3.61-3.11,10.53,10.53,0,0,1,4.74-.31,17.8,17.8,0,0,0,4.27.17,5.52,5.52,0,0,0,1.84-.59,6,6,0,0,0,1.44-1.14c.84-.87,1.47-1.84,2.15-2.66a7.42,7.42,0,0,1,2.17-1.89,4.06,4.06,0,0,1,2.13-.46,2.82,2.82,0,0,1,1.31.42,1.32,1.32,0,0,1,.36.32,3.24,3.24,0,0,0-1.68-.53,3.77,3.77,0,0,0-2,.51,7.14,7.14,0,0,0-2,1.87c-.65.8-1.26,1.79-2.12,2.72a6.49,6.49,0,0,1-1.53,1.24,6.21,6.21,0,0,1-2,.67,18.14,18.14,0,0,1-4.4-.14,10.09,10.09,0,0,0-4.5.29,6.63,6.63,0,0,0-3.35,2.87,6.49,6.49,0,0,0-.74,2,14.58,14.58,0,0,0-.14,2.09,10.9,10.9,0,0,1-.2,2.06,4.17,4.17,0,0,1-.87,1.79c-.83,1-1.82,1.61-2.47,2.39A3.27,3.27,0,0,0,212,202a4,4,0,0,0,.65,1.94A4.69,4.69,0,0,0,213.9,205.12Z" style="fill:#455a64"></path><path d="M207.17,183.6a1.08,1.08,0,0,1-.15-.37,2.44,2.44,0,0,1,0-1.16,3.52,3.52,0,0,1,.88-1.6,4,4,0,0,1,2.13-1.16,7.43,7.43,0,0,1,2.93,0c1,.2,2.09.56,3.2.88a9.92,9.92,0,0,0,3.5.46,12.45,12.45,0,0,0,3.7-.91c2.46-1,4.63-2.38,6.82-3.23a9.93,9.93,0,0,1,6.15-.71,6.24,6.24,0,0,1,3.55,2.19,4.36,4.36,0,0,1,.55,1,1.47,1.47,0,0,1,.11.38c-.06,0-.21-.51-.82-1.26a6.24,6.24,0,0,0-3.47-2,9.74,9.74,0,0,0-5.89.79c-2.13.85-4.28,2.26-6.81,3.27a12.61,12.61,0,0,1-3.86.94,10.23,10.23,0,0,1-3.67-.51c-1.12-.34-2.15-.71-3.14-.91a7.09,7.09,0,0,0-2.77-.1,3.6,3.6,0,0,0-2.89,2.45A3.5,3.5,0,0,0,207.17,183.6Z" style="fill:#455a64"></path><path d="M248.94,175.5c-2-3.34-5.48-5.59-9.06-7.16-3.79-1.66-8.74-2.48-11.64.47-1.77,1.82-2.32,4.68-4.4,6.13s-4.91,1-7.45,1.13c-4.63.3-9.16,3.43-10.35,7.92s1.72,9.86,6.29,10.66A7.42,7.42,0,0,0,220,206.72l28.88-20.2C251.26,183.46,251,178.84,248.94,175.5Z" style="fill:#263238"></path><path d="M235.67,241.74a10.49,10.49,0,0,1-11.8-8.91l-6.25-43.67h0a3.43,3.43,0,0,1,2.63-3.81l16.53-3.75a10.25,10.25,0,0,1,12.36,8.16c1.17,6.39,2.35,14.22,2.15,19.11-.38,9.83-7.63,11.94-7.63,11.94l1,9.39a10.49,10.49,0,0,1-9,11.54Z" style="fill:#ffbe9d"></path><path d="M248.06,195.87a1.25,1.25,0,0,1-1.05,1.39,1.19,1.19,0,0,1-1.41-1,1.25,1.25,0,0,1,1.05-1.39A1.21,1.21,0,0,1,248.06,195.87Z" style="fill:#263238"></path><path d="M247.92,194.06c-.13.18-1.15-.41-2.48-.24s-2.23.94-2.39.79,0-.37.43-.73a3.43,3.43,0,0,1,1.89-.84,3.27,3.27,0,0,1,2,.4C247.82,193.7,248,194,247.92,194.06Z" style="fill:#263238"></path><path d="M235,197.29a1.25,1.25,0,0,1-1.05,1.39,1.2,1.2,0,0,1-1.4-1,1.24,1.24,0,0,1,1-1.39A1.19,1.19,0,0,1,235,197.29Z" style="fill:#263238"></path><path d="M234.86,195.86c-.13.18-1.15-.4-2.48-.24s-2.23.94-2.39.79,0-.37.43-.73a3.43,3.43,0,0,1,1.89-.84,3.27,3.27,0,0,1,2,.4C234.76,195.5,234.93,195.78,234.86,195.86Z" style="fill:#263238"></path><path d="M240.87,205.16a8.8,8.8,0,0,1,2.12-.65c.33-.07.64-.18.67-.42a1.69,1.69,0,0,0-.34-1c-.42-.78-.86-1.6-1.31-2.47a45.13,45.13,0,0,1-3.07-6.5,43.59,43.59,0,0,1,3.58,6.24c.45.87.87,1.7,1.27,2.49a2,2,0,0,1,.34,1.32.88.88,0,0,1-.5.56,2.42,2.42,0,0,1-.57.15A8.49,8.49,0,0,1,240.87,205.16Z" style="fill:#263238"></path><path d="M243.66,220.81a24.67,24.67,0,0,1-13.33-1.92s3.84,6.32,13.39,4.28Z" style="fill:#eb996e"></path><path d="M240.69,208.44a2.42,2.42,0,0,0-2.26-.64,2.23,2.23,0,0,0-1.42,1,1.39,1.39,0,0,0,.09,1.6,1.63,1.63,0,0,0,1.79.24,5.09,5.09,0,0,0,1.59-1.22,1.41,1.41,0,0,0,.33-.44.47.47,0,0,0-.06-.5" style="fill:#eb996e"></path><path d="M237.06,206.55c.21,0,.39,1.4,1.75,2.28s2.88.54,2.91.74-.31.32-1,.42a3.66,3.66,0,0,1-2.42-.54,3.15,3.15,0,0,1-1.37-1.93C236.84,206.93,237,206.55,237.06,206.55Z" style="fill:#263238"></path><path d="M235.19,193.46c-.09.37-1.44.36-3,.73s-2.75.95-3,.65c-.11-.14.07-.51.54-.92a5,5,0,0,1,2.15-1,5,5,0,0,1,2.4,0C234.9,193,235.22,193.28,235.19,193.46Z" style="fill:#263238"></path><path d="M247,190.26c-.2.33-1.16.13-2.26.24s-2,.45-2.27.16c-.11-.14,0-.47.38-.8a3.08,3.08,0,0,1,1.77-.71,3.14,3.14,0,0,1,1.87.39C246.9,189.81,247.06,190.1,247,190.26Z" style="fill:#263238"></path><path d="M218.2,206.91l1.92,4.92a2.06,2.06,0,0,0,.77,1.13,1.69,1.69,0,0,0,1.93-.51c1.44-1.45,1.51-3.77,1.14-5.79s-1.07-4-.82-6a20.23,20.23,0,0,1,1.8-5c.68-1.65,1.11-3.56.35-5.18a12.45,12.45,0,0,0,13.94-5.22,2.63,2.63,0,0,0,4.77-2c.16,1.32.56,2.93,1.85,3.25a2.09,2.09,0,0,0,2.33-1.62,3.7,3.7,0,0,0-.76-3,8,8,0,0,0-4.93-2.93,19.12,19.12,0,0,0-5.85-.08,66.48,66.48,0,0,0-17.5,4.33c-1.61.65-3.32,1.45-4.13,3s-.52,3.38-.22,5.09l2.73,15.16" style="fill:#263238"></path><path d="M213.9,205.12a1.26,1.26,0,0,1-.44-.18,3.25,3.25,0,0,1-1-.92,4,4,0,0,1-.78-2,3.56,3.56,0,0,1,.85-2.75c.68-.86,1.67-1.5,2.41-2.42a5.46,5.46,0,0,0,.93-3.6,14.63,14.63,0,0,1,.13-2.16,6.62,6.62,0,0,1,.79-2.16,7.09,7.09,0,0,1,3.61-3.11,10.53,10.53,0,0,1,4.74-.31,17.8,17.8,0,0,0,4.27.17,5.52,5.52,0,0,0,1.84-.59,6,6,0,0,0,1.44-1.14c.84-.87,1.47-1.84,2.15-2.66a7.42,7.42,0,0,1,2.17-1.89,4.06,4.06,0,0,1,2.13-.46,2.82,2.82,0,0,1,1.31.42,1.32,1.32,0,0,1,.36.32,3.24,3.24,0,0,0-1.68-.53,3.77,3.77,0,0,0-2,.51,7.14,7.14,0,0,0-2,1.87c-.65.8-1.26,1.79-2.12,2.72a6.49,6.49,0,0,1-1.53,1.24,6.21,6.21,0,0,1-2,.67,18.14,18.14,0,0,1-4.4-.14,10.09,10.09,0,0,0-4.5.29,6.63,6.63,0,0,0-3.35,2.87,6.49,6.49,0,0,0-.74,2,14.58,14.58,0,0,0-.14,2.09,10.9,10.9,0,0,1-.2,2.06,4.17,4.17,0,0,1-.87,1.79c-.83,1-1.82,1.61-2.47,2.39A3.27,3.27,0,0,0,212,202a4,4,0,0,0,.65,1.94A4.69,4.69,0,0,0,213.9,205.12Z" style="fill:#455a64"></path><path d="M207.17,183.6a1.08,1.08,0,0,1-.15-.37,2.44,2.44,0,0,1,0-1.16,3.52,3.52,0,0,1,.88-1.6,4,4,0,0,1,2.13-1.16,7.43,7.43,0,0,1,2.93,0c1,.2,2.09.56,3.2.88a9.92,9.92,0,0,0,3.5.46,12.45,12.45,0,0,0,3.7-.91c2.46-1,4.63-2.38,6.82-3.23a9.93,9.93,0,0,1,6.15-.71,6.24,6.24,0,0,1,3.55,2.19,4.36,4.36,0,0,1,.55,1,1.47,1.47,0,0,1,.11.38c-.06,0-.21-.51-.82-1.26a6.24,6.24,0,0,0-3.47-2,9.74,9.74,0,0,0-5.89.79c-2.13.85-4.28,2.26-6.81,3.27a12.61,12.61,0,0,1-3.86.94,10.23,10.23,0,0,1-3.67-.51c-1.12-.34-2.15-.71-3.14-.91a7.09,7.09,0,0,0-2.77-.1,3.6,3.6,0,0,0-2.89,2.45A3.5,3.5,0,0,0,207.17,183.6Z" style="fill:#455a64"></path><path d="M263.75,145.57c-2.15-4.16-4-6.8-5.27-9.6-1.55-3.45-2.43-4.77-3.06-4.43-.84.44-.53.23,1.39,6.9,0,0-2.83-9.5-3.84-7a11,11,0,0,0,.45,3.65c-.85-2.41-1.7-3.31-2.34-3.15-1.08.26.33,6,1,8.6a53.9,53.9,0,0,0-2.4-7.2c-.75-1.18-1.27.43-1.32,1.89,0,1.63,1,11.14,1.15,13.9a1.63,1.63,0,0,1-1.58,1.92c-4-.52-7.36,1.2-8.06,2.1s.31,2.15,1.51,1.79a15.32,15.32,0,0,1,4.06-.24,9.27,9.27,0,0,1,3.17.67c1.18.46,2.15.9,3,1.3l14.94,46.11-17.1,30.78,11.21,24.31,20.37-39.3a30.7,30.7,0,0,0,1.34-25.31Z" style="fill:#ffbe9d"></path><path d="M250.18,134.37a21.81,21.81,0,0,1,1.62,4.44,21.69,21.69,0,0,1,1.13,4.6A21.47,21.47,0,0,1,251.3,139,21.28,21.28,0,0,1,250.18,134.37Z" style="fill:#eb996e"></path><path d="M255.15,141.82a17.28,17.28,0,0,1-1.45-4,17.34,17.34,0,0,1-1-4.15,17.56,17.56,0,0,1,1.46,4A17.59,17.59,0,0,1,255.15,141.82Z" style="fill:#eb996e"></path><path d="M257.38,140.56a11.25,11.25,0,0,1-1.59-3.58,11.61,11.61,0,0,1-.8-3.83,20.42,20.42,0,0,1,1.3,3.67A22,22,0,0,1,257.38,140.56Z" style="fill:#eb996e"></path><path d="M261.39,148.6c0,.08-.43.19-1.07.58a4.68,4.68,0,0,0-1.87,2.19l-.11.27-.26-.16a8,8,0,0,0-1.13-.58,8.44,8.44,0,0,0-3.77-.61,16,16,0,0,1-1.62.16,3.17,3.17,0,0,1,1.58-.53,7.66,7.66,0,0,1,4,.5,8.13,8.13,0,0,1,1.21.64l-.37.11a4.53,4.53,0,0,1,2.18-2.28A2.16,2.16,0,0,1,261.39,148.6Z" style="fill:#eb996e"></path><path d="M209,263c0,.58,3.05,43.85,3.05,43.85l42.46,1.54L256.29,263Z" style="fill:#ffbe9d"></path><path d="M231.94,285.1c.06,0-.07.49-.12,1.37a10.1,10.1,0,0,0,.49,3.65,10.53,10.53,0,0,0,2.95,4.52A9.19,9.19,0,0,0,238,296.3a11.48,11.48,0,0,0,3.37.71c2.39.18,4.72,0,6.84.38a8,8,0,0,1,5,2.51,5.13,5.13,0,0,1,1.3,3.55,3.36,3.36,0,0,1-.2,1c-.09.22-.15.33-.17.32a6.88,6.88,0,0,0,.17-1.34,5.16,5.16,0,0,0-1.38-3.31,7.77,7.77,0,0,0-4.8-2.28c-2.05-.33-4.35-.15-6.8-.33a11.76,11.76,0,0,1-3.52-.75,9.51,9.51,0,0,1-2.85-1.79,10.51,10.51,0,0,1-3-4.76,9.19,9.19,0,0,1-.34-3.78,5.73,5.73,0,0,1,.2-1C231.88,285.21,231.92,285.1,231.94,285.1Z" style="fill:#263238"></path><path d="M249.81,301.47a6.56,6.56,0,0,1-.18-.67,2.88,2.88,0,0,0-1-1.43,2.66,2.66,0,0,0-2.47-.33,2.59,2.59,0,0,0,0,4.85,2.66,2.66,0,0,0,2.47-.33,2.88,2.88,0,0,0,1-1.43,5.14,5.14,0,0,1,.18-.66s.09.25,0,.71a2.75,2.75,0,0,1-1,1.67,3,3,0,0,1-2.86.49,3.05,3.05,0,0,1,0-5.75,3,3,0,0,1,2.86.49,2.75,2.75,0,0,1,1,1.67C249.9,301.21,249.84,301.47,249.81,301.47Z" style="fill:#263238"></path><path d="M249.79,301.51a9.18,9.18,0,0,0-2.67.4c-1.37.57-2,1.7-2.14,1.62s0-.36.32-.8a3.79,3.79,0,0,1,3.69-1.55C249.52,301.27,249.81,301.45,249.79,301.51Z" style="fill:#263238"></path><path d="M247.45,301.79c0,.14-.92-.08-1.46-1s-.33-1.8-.19-1.76.18.76.63,1.49S247.51,301.66,247.45,301.79Z" style="fill:#263238"></path><path d="M244.15,293.33c-.05,0-.06-.25-.19-.66a2.78,2.78,0,0,0-1-1.43,2.65,2.65,0,0,0-2.47-.33,2.59,2.59,0,0,0,0,4.85,2.65,2.65,0,0,0,2.47-.33,2.82,2.82,0,0,0,1-1.43c.13-.42.14-.67.19-.67s.09.26,0,.72a2.8,2.8,0,0,1-1,1.67,3,3,0,0,1-2.86.49,3,3,0,0,1,0-5.75,3,3,0,0,1,2.86.49,2.8,2.8,0,0,1,1,1.67C244.24,293.08,244.18,293.34,244.15,293.33Z" style="fill:#263238"></path><path d="M244.12,293.38a8.75,8.75,0,0,0-2.66.4,8.87,8.87,0,0,0-2.15,1.62c-.06,0,0-.36.32-.8a3.78,3.78,0,0,1,1.63-1.3,3.65,3.65,0,0,1,2.06-.25C243.85,293.14,244.14,293.32,244.12,293.38Z" style="fill:#263238"></path><path d="M241.79,293.66c0,.14-.93-.08-1.47-1s-.32-1.8-.19-1.76.18.76.64,1.49S241.85,293.52,241.79,293.66Z" style="fill:#263238"></path><path d="M244.39,298.5c.07,0-.22.79-1.11,1.72a6.13,6.13,0,0,1-1.82,1.36,5.66,5.66,0,0,1-2.77.52l-.3,0,.07-.29,0-.25a4.68,4.68,0,0,1,1.58-2.44,4.43,4.43,0,0,1,2.19-.93,3,3,0,0,1,2.11.33,9.21,9.21,0,0,0-2,0,4.41,4.41,0,0,0-1.94.94,4.28,4.28,0,0,0-1.38,2.2l-.05.22-.24-.31a5.47,5.47,0,0,0,2.53-.43A6.3,6.3,0,0,0,243,300C243.94,299.14,244.33,298.47,244.39,298.5Z" style="fill:#263238"></path><path d="M261.22,291.55c-1.39-3.79-5.91-10-4.67-13.86s3-7.51,3.81-11.46a26.88,26.88,0,0,0,.36-7.7c.19-.59.35-1.13.48-1.61.16-.64-.73-3.05-2.07-6.12-.26-.84-.55-1.66-.86-2.47a71.78,71.78,0,0,0-5.39-10.73c-1.59-3.18-2.77-5.47-2.77-5.47l-3.42-.44-2-5.5-22-.76-1.53,6.16-4.86.24L204.61,262l6.54,32,44-1.88s0-.07,0-.18Z" style="fill:#455a64"></path><path d="M219.28,247.46a71.86,71.86,0,0,0-.45-7.94c-.65-4.34-2.09-7.65-1.92-7.71a8.8,8.8,0,0,1,1,2.13,27.53,27.53,0,0,1,1.7,11.18A8,8,0,0,1,219.28,247.46Z" style="fill:#263238"></path><path d="M222.75,241.84a40.35,40.35,0,0,0-2-5.23c-1.44-2.74-3.07-4.7-2.93-4.8a14.81,14.81,0,0,1,3.39,4.56A11.63,11.63,0,0,1,222.75,241.84Z" style="fill:#263238"></path><path d="M225,231.29c-.14,0-.28-.86-.31-1.93a3.9,3.9,0,0,1,.21-2c.14,0,.28.87.31,1.94S225.16,231.29,225,231.29Z" style="fill:#263238"></path><path d="M229.09,231.16c-.15,0-.26-.87-.26-1.94s.11-1.94.26-1.94.26.87.26,1.94S229.23,231.16,229.09,231.16Z" style="fill:#263238"></path><path d="M233.35,231.29c-.15,0-.31-.91-.38-2.06s0-2.08.15-2.09a4.46,4.46,0,0,1,.37,2.06A4.36,4.36,0,0,1,233.35,231.29Z" style="fill:#263238"></path><path d="M237.09,231.29c-.14,0-.31-.76-.37-1.72s0-1.75.14-1.76.31.76.38,1.72S237.24,231.28,237.09,231.29Z" style="fill:#263238"></path><path d="M240.31,231c-.15,0-.26-.81-.44-1.78s-.36-1.78-.22-1.83.54.7.73,1.73S240.45,231,240.31,231Z" style="fill:#263238"></path><path d="M244.06,231.29c-.15,0-.4-.85-.77-1.9s-.7-1.91-.57-2,.69.7,1.06,1.81S244.2,231.27,244.06,231.29Z" style="fill:#263238"></path><path d="M244.62,258.81a3.66,3.66,0,0,0-1.38,1.31,5.87,5.87,0,0,0-.74,2.14,5.31,5.31,0,0,0,.54,3l.07.21h-.21l-5.52,0H237l.29-.32a3.51,3.51,0,0,0,.67-2.08,3.91,3.91,0,0,0-.5-2.3,5.46,5.46,0,0,0-1.89-1.73l-.58-.37a1.6,1.6,0,0,0-.57-.25,5,5,0,0,0-1.35-.07l.07,0a4.19,4.19,0,1,1-.4-7.9l-.29.38a4.21,4.21,0,0,1-.55-2.57,5,5,0,0,1,1.46-3.09,4,4,0,0,1,3.16-1.12,4.74,4.74,0,0,1,4.25,4.3l-.47-.09a3.79,3.79,0,0,1,7.15,2.49l-.34-.22a3.26,3.26,0,0,1,3.72-.19,3.45,3.45,0,0,1,1.77,2.86,5,5,0,0,1-2.61,4.58,7.24,7.24,0,0,1-3.35.88,7.89,7.89,0,0,1-.91,0,1.16,1.16,0,0,1-.31-.05s.43,0,1.21-.05a7.68,7.68,0,0,0,3.24-1,5.08,5.08,0,0,0,1.71-1.66,4.55,4.55,0,0,0,.68-2.69,3.07,3.07,0,0,0-1.62-2.54,2.87,2.87,0,0,0-3.25.17l-.55.48.2-.7a3.49,3.49,0,0,0-1.91-4,3.44,3.44,0,0,0-4.37,1.83l-.44,1.07,0-1.16a4.27,4.27,0,0,0-3.81-3.8,3.51,3.51,0,0,0-2.75,1,4.49,4.49,0,0,0-1.31,2.76,3.78,3.78,0,0,0,.48,2.25l.33.56-.62-.17a3.86,3.86,0,0,0-4.7,4,3.92,3.92,0,0,0,5.07,3H233a5.34,5.34,0,0,1,1.49.09,1.8,1.8,0,0,1,.7.32l.59.37a5.87,5.87,0,0,1,2,1.89,4.4,4.4,0,0,1,.54,2.55,3.89,3.89,0,0,1-.8,2.31l-.14-.32,5.52,0-.14.21a5.48,5.48,0,0,1-.49-3.12,5.86,5.86,0,0,1,.84-2.19,3.25,3.25,0,0,1,1-1A1.56,1.56,0,0,1,244.62,258.81Z" style="fill:#fff"></path><path d="M247.3,254.53s.09.23,0,.64a3.13,3.13,0,0,1-.72,1.6,3.07,3.07,0,0,1-2.35,1.12,3.36,3.36,0,0,1-2.82-1.5l-.09-.13.47,0a3.19,3.19,0,0,1-2.56,1.83,2.88,2.88,0,0,1-2.4-.89,3,3,0,0,1-.79-1.53,1.14,1.14,0,0,1,0-.63,4,4,0,0,0,1,1.89,2.54,2.54,0,0,0,2.09.69,2.78,2.78,0,0,0,2.14-1.56l.2-.45.26.42.08.11a2.94,2.94,0,0,0,2.38,1.3,2.76,2.76,0,0,0,2.08-.89A4.17,4.17,0,0,0,247.3,254.53Z" style="fill:#fff"></path><path d="M230.82,268.29a.19.19,0,0,1,.12,0,.22.22,0,0,1,.12.2c-.08.67-.15,1.2-.19,1.58q-.18,1.42-.18,1.62c0,.52.13.78.4.78a1.72,1.72,0,0,0,1.32-.7,4.32,4.32,0,0,0,.75-1.52,1.49,1.49,0,0,1-.9-.3,1.06,1.06,0,0,1-.39-.87.85.85,0,0,1,.3-.66.92.92,0,0,1,.6-.23,1,1,0,0,1,.71.28,1.15,1.15,0,0,1,.33.85q0,.12,0,.39l.14,0a1.45,1.45,0,0,0,.41-.21.66.66,0,0,1,.29-.11.19.19,0,0,1,.1,0,.2.2,0,0,1,.11.2c0,.13-.1.25-.3.37a2.23,2.23,0,0,1-.86.27h0a4.93,4.93,0,0,1-.85,1.8,2.27,2.27,0,0,1-1.83,1,.77.77,0,0,1-.27,0c-.36-.14-.53-.56-.53-1.25a9.23,9.23,0,0,1,.14-1.47c.09-.6.15-1,.17-1.26l-.49.31a1.19,1.19,0,0,1-.36.19.22.22,0,0,1-.13,0,.24.24,0,0,1-.12-.21.3.3,0,0,1,.15-.24h0A8.38,8.38,0,0,1,230.82,268.29Zm1.55.91a.6.6,0,0,0,.06.27c.13.23.41.34.85.34a2.68,2.68,0,0,0,0-.46.8.8,0,0,0,0-.27.42.42,0,0,0-.42-.32.51.51,0,0,0-.28.07A.42.42,0,0,0,232.37,269.2Z" style="fill:#fff"></path><path d="M235,268.28h2l.12,0a.24.24,0,0,1,.17.24.29.29,0,0,1,0,.09.31.31,0,0,1-.25.16h-1.78l-.22,1.68h1.28a.32.32,0,0,1,.14,0,.24.24,0,0,1,.15.23.19.19,0,0,1,0,.08c0,.1-.12.15-.25.17H234.9l-.2,1.57h1.75a.28.28,0,0,1,.13,0,.23.23,0,0,1,.16.23.25.25,0,0,1,0,.08.27.27,0,0,1-.25.17h-2a.23.23,0,0,1-.14,0,.29.29,0,0,1-.12-.26s.18-1.44.55-4.24a.29.29,0,0,1,0-.09A.23.23,0,0,1,235,268.28Z" style="fill:#fff"></path><path d="M239.1,270.64h1.15a.28.28,0,0,1,.12,0,.22.22,0,0,1,.12.21V271c0,.09-.05.19-.08.29a3.28,3.28,0,0,1-.72,1.3,1.38,1.38,0,0,1-1,.5h-.14a1.1,1.1,0,0,1-.78-.56,2.66,2.66,0,0,1-.34-1.38,3.76,3.76,0,0,1,.14-1,3.29,3.29,0,0,1,.68-1.33,1.39,1.39,0,0,1,1-.54,1.08,1.08,0,0,1,.44.09,1.46,1.46,0,0,1,.67.84.5.5,0,0,1,0,.12.27.27,0,0,1,0,.12.24.24,0,0,1-.21.12h-.08a.26.26,0,0,1-.16-.15v0a1.15,1.15,0,0,0-.14-.27.65.65,0,0,0-.55-.33.69.69,0,0,0-.38.14,2.07,2.07,0,0,0-.62.9,3.4,3.4,0,0,0-.27,1.3,2.33,2.33,0,0,0,.19,1,.68.68,0,0,0,.6.45.82.82,0,0,0,.56-.33,3.21,3.21,0,0,0,.59-1.07h-.83c-.18,0-.27-.12-.27-.27a.29.29,0,0,1,0-.09A.27.27,0,0,1,239.1,270.64Z" style="fill:#fff"></path><path d="M243,268.41l0,.08c0,.17.31,1.59.8,4.26a.14.14,0,0,1,0,.06.33.33,0,0,1,0,.13.22.22,0,0,1-.2.12h0a.22.22,0,0,1-.19-.17l-.28-1.42H241.7l-.68,1.42a.08.08,0,0,1,0,.05.26.26,0,0,1-.21.12.25.25,0,0,1-.14,0,.24.24,0,0,1-.11-.2.24.24,0,0,1,0-.08c0-.1.11-.25.21-.46,1-2.16,1.58-3.44,1.77-3.82.06-.12.13-.18.24-.18A.25.25,0,0,1,243,268.41Zm-.3.95-.77,1.61H243Z" style="fill:#fff"></path><path d="M247.49,272.82q0,.24-.24.24a.3.3,0,0,1-.26-.18l-1.56-3.56c0,.16-.05.35-.07.56-.21,1.71-.33,2.69-.37,2.93s-.12.25-.26.25a.22.22,0,0,1-.13,0,.29.29,0,0,1-.12-.26c.37-2.82.56-4.23.56-4.24l0-.1a.26.26,0,0,1,.23-.13c.14,0,.22,0,.26.12l1.56,3.49.45-3.37a.23.23,0,0,1,0-.11.2.2,0,0,1,.2-.13.28.28,0,0,1,.13,0,.25.25,0,0,1,.11.21l0,.23C247.71,271.19,247.54,272.55,247.49,272.82Z" style="fill:#fff"></path><path d="M76.09,424.74c-.58,1.18-15.31,14.43-15.31,14.43s-2.8,19.4.14,20.58l19.16.2c-.3-2.65-6.93-16.07-6.93-16.07l11.78-10.3Z" style="fill:#ffbe9d"></path><path d="M335.66,459.75c4.27-.34-5.58-4.17-10.33-5.26C319.6,453.18,315,451.6,315,451.6l.42-22.63-17.62-2.16-1.06,30.66a2.55,2.55,0,0,0,2.22,2.48Z" style="fill:#ffbe9d"></path><path d="M102.89,399.36l.09-.07Z" style="fill:#FF5EEE"></path><path d="M312,338.06l-55.71-20.38-1.68-12-43-1.46h-.42v.05c-2.73.52-13.93,5.54-21.92,15.59-5.53,6.95-42.11,49.23-45.24,50.12s-41.63,29.95-41.11,29.41L74.71,423.83l7.57,12.06,84.24-42h0c30.73-14.78,67.17-21.85,101.26-22.79,4.16-.11,8.63,0,12.05,2.34,7.34,5.07,10.52,13.18,13.61,28.94l3,35.12,18.81,1.23,9.09-82.32A18.15,18.15,0,0,0,312,338.06Z" style="fill:#FF5EEE"></path><path d="M82.52,423a11.84,11.84,0,0,1-2.78,2.21,12,12,0,0,1-3.08,1.78,12.64,12.64,0,0,1,2.79-2.21A12.8,12.8,0,0,1,82.52,423Z" style="fill:#263238"></path><path d="M84.54,427.32a10.08,10.08,0,0,1-2.73,1.77,10.67,10.67,0,0,1-3,1.32,10.29,10.29,0,0,1,2.72-1.78A10.23,10.23,0,0,1,84.54,427.32Z" style="fill:#263238"></path><path d="M86.79,430.17a11.34,11.34,0,0,1-2.79,2,11.45,11.45,0,0,1-3.06,1.57,11.7,11.7,0,0,1,2.79-2A11.45,11.45,0,0,1,86.79,430.17Z" style="fill:#263238"></path><path d="M254.72,308.19a12,12,0,0,1-1.68.55c-.54.17-1.21.36-2,.54s-1.68.42-2.69.58a57.64,57.64,0,0,1-7.1.9,59.86,59.86,0,0,1-17.43-1.46,58.09,58.09,0,0,1-6.86-2.06c-1-.33-1.8-.71-2.55-1s-1.38-.6-1.89-.86a9.73,9.73,0,0,1-1.56-.83,12,12,0,0,1,1.64.65c.52.23,1.16.5,1.92.77s1.6.64,2.56.94a63.29,63.29,0,0,0,6.84,1.94,63.39,63.39,0,0,0,17.3,1.45,64,64,0,0,0,7.07-.78c1-.14,1.89-.35,2.68-.5s1.47-.31,2-.45A9.86,9.86,0,0,1,254.72,308.19Z" style="fill:#263238"></path><path d="M234.46,347.13s-.08-.1-.18-.32a9.89,9.89,0,0,1-.4-1,18.85,18.85,0,0,1-.93-3.77,20.29,20.29,0,0,1,0-5.77,19.36,19.36,0,0,1,.8-3.33c.37-1.13.87-2.25,1.33-3.4.95-2.27,1.65-4.59,1.16-6.65s-1.8-3.59-2.47-5.1a6.13,6.13,0,0,1-.6-3.84,3.08,3.08,0,0,1,.4-1c.14-.2.22-.3.24-.29a6.39,6.39,0,0,0-.44,1.32,6.14,6.14,0,0,0,.74,3.64c.35.72.83,1.47,1.33,2.3a10.18,10.18,0,0,1,1.26,2.85,7.92,7.92,0,0,1,0,3.46,20.12,20.12,0,0,1-1.14,3.5c-.46,1.16-1,2.26-1.32,3.36a20.53,20.53,0,0,0-.82,3.24,21.36,21.36,0,0,0-.13,5.65A31.87,31.87,0,0,0,234.46,347.13Z" style="fill:#263238"></path><path d="M243.3,345.19A5.92,5.92,0,0,1,243,344c-.2-.78-.45-1.92-.72-3.34a112.78,112.78,0,0,1-1.57-11.19,110.34,110.34,0,0,1-.43-11.3c0-1.44.06-2.61.12-3.42a6.34,6.34,0,0,1,.13-1.25,5.48,5.48,0,0,1,.07,1.26c0,.91,0,2.05,0,3.41,0,2.89.19,6.87.58,11.25s.95,8.33,1.41,11.17c.22,1.34.41,2.47.56,3.37A5.47,5.47,0,0,1,243.3,345.19Z" style="fill:#263238"></path><path d="M291.64,377.24a1.3,1.3,0,0,1-.08-.33c0-.24-.1-.57-.18-1a11,11,0,0,0-.35-1.57,16.31,16.31,0,0,0-.66-2.09,25.72,25.72,0,0,0-8.23-11.06,32.78,32.78,0,0,0-8.27-4.88,37.12,37.12,0,0,0-10.71-2.57c-7.78-.8-16.39.53-25.15,2.65s-17.08,4.46-24.5,7a154.75,154.75,0,0,0-19.25,7.8,106.45,106.45,0,0,0-12.16,7c-1.4.88-2.42,1.67-3.14,2.15l-.82.56a1.52,1.52,0,0,1-.29.18s.08-.08.26-.22l.78-.6c.71-.52,1.71-1.33,3.1-2.24a98.72,98.72,0,0,1,12.1-7.12,151.93,151.93,0,0,1,19.27-7.93c7.43-2.53,15.74-4.84,24.53-7s17.45-3.45,25.32-2.62A37.63,37.63,0,0,1,274,355.94a33.59,33.59,0,0,1,8.34,5,25.61,25.61,0,0,1,8.18,11.28,14.55,14.55,0,0,1,.62,2.12,10.42,10.42,0,0,1,.31,1.59l.12,1A1.38,1.38,0,0,1,291.64,377.24Z" style="fill:#263238"></path><path d="M302.71,432.61a12.17,12.17,0,0,1-.34,5,6,6,0,0,1-.09-2.52A6.23,6.23,0,0,1,302.71,432.61Z" style="fill:#263238"></path><path d="M307.77,434.28a4.31,4.31,0,0,1-.08,2.05c-.18,1.1-.45,2-.59,1.95s-.11-.93.08-2S307.62,434.26,307.77,434.28Z" style="fill:#263238"></path><path d="M312.41,433.94a9.21,9.21,0,0,1-.34,4.34,4.88,4.88,0,0,1-.09-2.19A5,5,0,0,1,312.41,433.94Z" style="fill:#263238"></path><path d="M225.9,151.42c-.69-.89-4.07-2.62-8.05-2.1a1.63,1.63,0,0,1-1.58-1.91c.16-2.76,1.2-12.28,1.14-13.91,0-1.45-.56-3.06-1.31-1.89a52.49,52.49,0,0,0-2.4,7.2c.72-2.65,2.13-8.33,1-8.6-.63-.16-1.48.74-2.34,3.15a10.65,10.65,0,0,0,.45-3.64c-1-2.54-3.84,7-3.84,7,1.93-6.68,2.23-6.47,1.4-6.91-.63-.33-1.51,1-3.06,4.43-1.26,2.8-3.12,5.45-5.27,9.61l-19.37,49.6a27.66,27.66,0,0,0,.73,21.85l21.28,45.25a2.67,2.67,0,0,0,2.53,2.1,4.87,4.87,0,0,0,3.39-1.45c2.43-2.22,3.39-5.61,4-8.84,1.34-6.81,2.25-13.57,1.69-20.49l-17.1-30.77,14.94-46.12c.82-.39,1.79-.83,3-1.3a9.76,9.76,0,0,1,3.17-.67,15.32,15.32,0,0,1,4.06.24C225.6,153.58,226.6,152.32,225.9,151.42Z" style="fill:#ffbe9d"></path><path d="M205.57,147.08c0-.05.5.1,1.14.6a5.54,5.54,0,0,1,1.78,2.68l-.42-.12.66-.56a6.58,6.58,0,0,1,3.39-1.7c1-.11,1.58.2,1.55.25s-.6-.08-1.49.12a7.16,7.16,0,0,0-3.12,1.73l-.65.55-.31.26-.11-.39a5.87,5.87,0,0,0-1.51-2.56C205.94,147.39,205.53,147.14,205.57,147.08Z" style="fill:#eb996e"></path><path d="M215.13,133.26a13.4,13.4,0,0,1-.71,3.7,13.37,13.37,0,0,1-1.21,3.56,13.74,13.74,0,0,1,.71-3.7A13.9,13.9,0,0,1,215.13,133.26Z" style="fill:#eb996e"></path><path d="M210.37,139.1a8.82,8.82,0,0,1,.65-3.35,8.92,8.92,0,0,1,1.43-3.09,15.56,15.56,0,0,1-.93,3.25A16.32,16.32,0,0,1,210.37,139.1Z" style="fill:#eb996e"></path><path d="M208.07,138.53a29.68,29.68,0,0,1,1.29-3.36,29,29,0,0,1,1.22-3.39,11.86,11.86,0,0,1-2.51,6.75Z" style="fill:#eb996e"></path><g style="opacity:0.2"><path d="M170.77,386.55c20.12-15.84,44.72-26.19,69.85-31.07,7.21-1.4,14.59-2.31,21.89-1.54s14.57,3.33,20.07,8.2c1.26,1.12,2.51,2.69,2.05,4.31a3.37,3.37,0,0,1-2.83,2.15,10.93,10.93,0,0,1-3.72-.35c-21.64-4.44-44,.85-65.41,6.11-14.14,3.47-28.32,6.95-41.9,12.19"></path></g></g><g id="freepik--Plant--inject-95"><path d="M477.08,413.72a9,9,0,0,1,5.91,3.77,15.88,15.88,0,0,1,2.55,6.67c.77,4.59-.47,9.79-2.17,14.12-4.68-2.19-7.17-7.64-8.26-10.48-1.72-4.49-2.1-13.66,2-14.08" style="fill:#FF5EEE"></path><path d="M490.26,444.73a7.62,7.62,0,0,1-.18-7.67,10.13,10.13,0,0,1,6.21-4.76,4.27,4.27,0,0,1,3.59.25,3.27,3.27,0,0,1,1.19,3.09,6.64,6.64,0,0,1-1.47,3.11c-2.44,3.15-5.37,5.74-9.34,6" style="fill:#FF5EEE"></path><path d="M489.08,459.25a3.43,3.43,0,0,1-.16-1c-.07-.62-.14-1.52-.21-2.64a32.82,32.82,0,0,1,.54-8.76,16.4,16.4,0,0,1,4-7.81,10.58,10.58,0,0,1,2.07-1.69,3,3,0,0,1,.87-.44,21.93,21.93,0,0,0-2.67,2.38,17.24,17.24,0,0,0-3.74,7.67,37.45,37.45,0,0,0-.68,8.63A31.49,31.49,0,0,1,489.08,459.25Z" style="fill:#263238"></path><path d="M478.17,420.67a10.3,10.3,0,0,1,.59,1.5c.35,1,.83,2.39,1.4,4.15,1.15,3.52,2.66,8.41,4.19,13.85s2.8,10.4,3.66,14c.42,1.8.76,3.26,1,4.27a10.93,10.93,0,0,1,.28,1.59,8.27,8.27,0,0,1-.48-1.54l-1.13-4.24c-.95-3.57-2.27-8.51-3.8-13.95s-3-10.33-4-13.88c-.51-1.7-.92-3.12-1.24-4.2A8.75,8.75,0,0,1,478.17,420.67Z" style="fill:#263238"></path><path d="M484,449.09a17.86,17.86,0,0,0-12.76-10.17c-1.42-.27-3.16-.23-3.95,1s-.11,2.83.74,4a15.28,15.28,0,0,0,16,5.59" style="fill:#FF5EEE"></path><path d="M472.82,443a3.09,3.09,0,0,1,.93.09,9.28,9.28,0,0,1,1.08.23,13.87,13.87,0,0,1,1.39.42,18.7,18.7,0,0,1,3.44,1.6,21.9,21.9,0,0,1,3.69,2.83,21.52,21.52,0,0,1,2.94,3.6,18.2,18.2,0,0,1,1.71,3.38,11.9,11.9,0,0,1,.47,1.38,8,8,0,0,1,.26,1.06,3.09,3.09,0,0,1,.12.93c-.1,0-.35-1.28-1.19-3.23a21.09,21.09,0,0,0-1.77-3.26,22.72,22.72,0,0,0-2.91-3.49,23.15,23.15,0,0,0-3.57-2.79,20.9,20.9,0,0,0-3.32-1.66C474.12,443.3,472.8,443.09,472.82,443Z" style="fill:#263238"></path></g></svg>